<svg width="257" height="48" viewBox="0 0 257 48" fill="none" xmlns="http://www.w3.org/2000/svg">
<path d="M0 24C0 10.7452 10.7452 0 24 0H97C99.2091 0 101 1.79086 101 4V44C101 46.2091 99.2091 48 97 48H24C10.7452 48 0 37.2548 0 24Z" fill="url(#paint0_linear_667_455)"/>
<path d="M82.0979 12.8541C82.6966 11.0115 85.3034 11.0115 85.9021 12.8541L87.3677 17.3647C87.6355 18.1888 88.4034 18.7467 89.2698 18.7467L94.0126 18.7467C95.95 18.7467 96.7556 21.2259 95.1882 22.3647L91.3512 25.1525C90.6502 25.6618 90.3569 26.5645 90.6246 27.3885L92.0902 31.8992C92.6889 33.7418 90.58 35.2741 89.0126 34.1353L85.1756 31.3475C84.4746 30.8382 83.5254 30.8382 82.8244 31.3475L78.9874 34.1353C77.42 35.2741 75.3111 33.7418 75.9098 31.8992L77.3754 27.3885C77.6431 26.5645 77.3498 25.6618 76.6488 25.1525L72.8118 22.3647C71.2444 21.2259 72.05 18.7467 73.9874 18.7467L78.7302 18.7467C79.5966 18.7467 80.3645 18.1888 80.6323 17.3647L82.0979 12.8541Z" fill="#FFCC00" stroke="white" stroke-width="3"/>
<path d="M30.0979 12.8541C30.6966 11.0115 33.3034 11.0115 33.9021 12.8541L35.3677 17.3647C35.6355 18.1888 36.4034 18.7467 37.2698 18.7467L42.0126 18.7467C43.95 18.7467 44.7556 21.2259 43.1882 22.3647L39.3512 25.1525C38.6502 25.6618 38.3569 26.5645 38.6246 27.3885L40.0902 31.8992C40.6889 33.7418 38.58 35.2741 37.0126 34.1353L33.1756 31.3475C32.4746 30.8382 31.5254 30.8382 30.8244 31.3475L26.9874 34.1353C25.42 35.2741 23.3111 33.7418 23.9098 31.8992L25.3754 27.3885C25.6431 26.5645 25.3498 25.6618 24.6488 25.1525L20.8118 22.3647C19.2444 21.2259 20.05 18.7467 21.9874 18.7467L26.7302 18.7467C27.5966 18.7467 28.3645 18.1888 28.6323 17.3647L30.0979 12.8541Z" fill="#FFCC00" stroke="white" stroke-width="3"/>
<path d="M134.098 12.8541C134.697 11.0115 137.303 11.0115 137.902 12.8541L139.368 17.3647C139.635 18.1888 140.403 18.7467 141.27 18.7467L146.013 18.7467C147.95 18.7467 148.756 21.2259 147.188 22.3647L143.351 25.1525C142.65 25.6618 142.357 26.5645 142.625 27.3885L144.09 31.8992C144.689 33.7418 142.58 35.2741 141.013 34.1353L137.176 31.3475C136.475 30.8382 135.525 30.8382 134.824 31.3475L130.987 34.1353C129.42 35.2741 127.311 33.7418 127.91 31.8992L129.375 27.3885C129.643 26.5645 129.35 25.6618 128.649 25.1525L124.812 22.3647C123.244 21.2259 124.05 18.7467 125.987 18.7467L130.73 18.7467C131.597 18.7467 132.365 18.1888 132.632 17.3647L134.098 12.8541Z" fill="black" fill-opacity="0.08"/>
<path d="M186.098 12.8541C186.697 11.0115 189.303 11.0115 189.902 12.8541L191.368 17.3647C191.635 18.1888 192.403 18.7467 193.27 18.7467L198.013 18.7467C199.95 18.7467 200.756 21.2259 199.188 22.3647L195.351 25.1525C194.65 25.6618 194.357 26.5645 194.625 27.3885L196.09 31.8992C196.689 33.7418 194.58 35.2741 193.013 34.1353L189.176 31.3475C188.475 30.8382 187.525 30.8382 186.824 31.3475L182.987 34.1353C181.42 35.2741 179.311 33.7418 179.91 31.8992L181.375 27.3885C181.643 26.5645 181.35 25.6618 180.649 25.1525L176.812 22.3647C175.244 21.2259 176.05 18.7467 177.987 18.7467L182.73 18.7467C183.597 18.7467 184.365 18.1888 184.632 17.3647L186.098 12.8541Z" fill="black" fill-opacity="0.08"/>
<path d="M238.098 12.8541C238.697 11.0115 241.303 11.0115 241.902 12.8541L243.368 17.3647C243.635 18.1888 244.403 18.7467 245.27 18.7467L250.013 18.7467C251.95 18.7467 252.756 21.2259 251.188 22.3647L247.351 25.1525C246.65 25.6618 246.357 26.5645 246.625 27.3885L248.09 31.8992C248.689 33.7418 246.58 35.2741 245.013 34.1353L241.176 31.3475C240.475 30.8382 239.525 30.8382 238.824 31.3475L234.987 34.1353C233.42 35.2741 231.311 33.7418 231.91 31.8992L233.375 27.3885C233.643 26.5645 233.35 25.6618 232.649 25.1525L228.812 22.3647C227.244 21.2259 228.05 18.7467 229.987 18.7467L234.73 18.7467C235.597 18.7467 236.365 18.1888 236.632 17.3647L238.098 12.8541Z" fill="black" fill-opacity="0.08"/>
<defs>
<linearGradient id="paint0_linear_667_455" x1="-3.29222e-07" y1="24.0001" x2="101" y2="24.0001" gradientUnits="userSpaceOnUse">
<stop stop-color="#BF54F2"/>
<stop offset="1" stop-color="#986CE7" stop-opacity="0.25"/>
</linearGradient>
</defs>
</svg>
