<svg width="83" height="114" viewBox="0 0 83 114" fill="none" xmlns="http://www.w3.org/2000/svg">
<ellipse cx="42.5005" cy="97.5" rx="37.5" ry="16.5" fill="black" fill-opacity="0.05"/>
<path d="M13.6652 95.7535L4.00049 31C7.33382 34.5 19.7005 41 42.5005 41C65.3005 41 75.5005 34 79.0005 31L70.7745 95.8404C70.5924 97.2759 70.2973 98.7139 69.5624 99.9604C66.6661 104.873 58.5798 112 42.5005 112C26.4785 112 18.1398 104.923 15.0416 100.013C14.2362 98.7364 13.888 97.2464 13.6652 95.7535Z" fill="#C1DEE9"/>
<path d="M13.6652 95.7535L4.00049 31C7.33382 34.5 19.7005 41 42.5005 41C65.3005 41 75.5005 34 79.0005 31L70.7745 95.8404C70.5924 97.2759 70.2973 98.7139 69.5624 99.9604C66.6661 104.873 58.5798 112 42.5005 112C26.4785 112 18.1398 104.923 15.0416 100.013C14.2362 98.7364 13.888 97.2464 13.6652 95.7535Z" fill="url(#paint0_linear_101_1566)" fill-opacity="0.2"/>
<ellipse cx="41.5005" cy="18" rx="41.5" ry="18" fill="url(#paint1_linear_101_1566)"/>
<path fill-rule="evenodd" clip-rule="evenodd" d="M41.5005 36C66.0005 36 83.0005 27.9411 83.0005 18C83.0005 8.05887 64.4203 0 41.5005 0C18.5807 0 0.000488281 8.05887 0.000488281 18C0.000488281 27.9411 17.0005 36 41.5005 36ZM42.0005 34C62.435 34 79.0005 27.9558 79.0005 20.5C79.0005 13.0442 62.435 7 42.0005 7C21.566 7 5.00049 13.0442 5.00049 20.5C5.00049 27.9558 21.566 34 42.0005 34Z" fill="#5DA5D8"/>
<path d="M0.000488281 18L0.0138031 18.1465C0.674217 24.5301 12.2239 36 41.252 36C68.511 36 81.6112 26.3523 82.8954 19.1558L83.0005 18C83.0005 18.3766 82.9656 18.7625 82.8954 19.1558L82.0005 29C78.8528 34.8235 67.0963 43.5 41.252 43.5C15.4077 43.5 3.98252 34.8235 1.00049 29L0.0138031 18.1465C0.00872101 18.0973 0.00428372 18.0485 0.000488281 18Z" fill="#69B4E5"/>
<mask id="mask0_101_1566" style="mask-type:alpha" maskUnits="userSpaceOnUse" x="5" y="7" width="74" height="27">
<ellipse cx="42" cy="20.5" rx="37" ry="13.5" fill="#B4D8E7"/>
</mask>
<g mask="url(#mask0_101_1566)">
<g filter="url(#filter0_dd_101_1566)">
<circle cx="7.5" cy="50.5" r="22.5" fill="white"/>
</g>
<g filter="url(#filter1_dd_101_1566)">
<circle cx="30.5" cy="36.5" r="22.5" fill="white"/>
</g>
<g filter="url(#filter2_dd_101_1566)">
<circle cx="52.5" cy="53.5" r="22.5" fill="white"/>
</g>
<g filter="url(#filter3_dd_101_1566)">
<circle cx="64.5" cy="43.5" r="22.5" fill="white"/>
</g>
<g filter="url(#filter4_dd_101_1566)">
<circle cx="80.5" cy="50.5" r="22.5" fill="white"/>
</g>
</g>
<defs>
<filter id="filter0_dd_101_1566" x="-35" y="13" width="85" height="85" filterUnits="userSpaceOnUse" color-interpolation-filters="sRGB">
<feFlood flood-opacity="0" result="BackgroundImageFix"/>
<feColorMatrix in="SourceAlpha" type="matrix" values="0 0 0 0 0 0 0 0 0 0 0 0 0 0 0 0 0 0 127 0" result="hardAlpha"/>
<feOffset dy="5"/>
<feGaussianBlur stdDeviation="10"/>
<feComposite in2="hardAlpha" operator="out"/>
<feColorMatrix type="matrix" values="0 0 0 0 0 0 0 0 0 0 0 0 0 0 0 0 0 0 0.15 0"/>
<feBlend mode="normal" in2="BackgroundImageFix" result="effect1_dropShadow_101_1566"/>
<feColorMatrix in="SourceAlpha" type="matrix" values="0 0 0 0 0 0 0 0 0 0 0 0 0 0 0 0 0 0 127 0" result="hardAlpha"/>
<feOffset dy="2"/>
<feGaussianBlur stdDeviation="1.5"/>
<feColorMatrix type="matrix" values="0 0 0 0 0 0 0 0 0 0 0 0 0 0 0 0 0 0 0.05 0"/>
<feBlend mode="normal" in2="effect1_dropShadow_101_1566" result="effect2_dropShadow_101_1566"/>
<feBlend mode="normal" in="SourceGraphic" in2="effect2_dropShadow_101_1566" result="shape"/>
</filter>
<filter id="filter1_dd_101_1566" x="-12" y="-1" width="85" height="85" filterUnits="userSpaceOnUse" color-interpolation-filters="sRGB">
<feFlood flood-opacity="0" result="BackgroundImageFix"/>
<feColorMatrix in="SourceAlpha" type="matrix" values="0 0 0 0 0 0 0 0 0 0 0 0 0 0 0 0 0 0 127 0" result="hardAlpha"/>
<feOffset dy="5"/>
<feGaussianBlur stdDeviation="10"/>
<feComposite in2="hardAlpha" operator="out"/>
<feColorMatrix type="matrix" values="0 0 0 0 0 0 0 0 0 0 0 0 0 0 0 0 0 0 0.15 0"/>
<feBlend mode="normal" in2="BackgroundImageFix" result="effect1_dropShadow_101_1566"/>
<feColorMatrix in="SourceAlpha" type="matrix" values="0 0 0 0 0 0 0 0 0 0 0 0 0 0 0 0 0 0 127 0" result="hardAlpha"/>
<feOffset dy="2"/>
<feGaussianBlur stdDeviation="1.5"/>
<feColorMatrix type="matrix" values="0 0 0 0 0 0 0 0 0 0 0 0 0 0 0 0 0 0 0.05 0"/>
<feBlend mode="normal" in2="effect1_dropShadow_101_1566" result="effect2_dropShadow_101_1566"/>
<feBlend mode="normal" in="SourceGraphic" in2="effect2_dropShadow_101_1566" result="shape"/>
</filter>
<filter id="filter2_dd_101_1566" x="10" y="16" width="85" height="85" filterUnits="userSpaceOnUse" color-interpolation-filters="sRGB">
<feFlood flood-opacity="0" result="BackgroundImageFix"/>
<feColorMatrix in="SourceAlpha" type="matrix" values="0 0 0 0 0 0 0 0 0 0 0 0 0 0 0 0 0 0 127 0" result="hardAlpha"/>
<feOffset dy="5"/>
<feGaussianBlur stdDeviation="10"/>
<feComposite in2="hardAlpha" operator="out"/>
<feColorMatrix type="matrix" values="0 0 0 0 0 0 0 0 0 0 0 0 0 0 0 0 0 0 0.15 0"/>
<feBlend mode="normal" in2="BackgroundImageFix" result="effect1_dropShadow_101_1566"/>
<feColorMatrix in="SourceAlpha" type="matrix" values="0 0 0 0 0 0 0 0 0 0 0 0 0 0 0 0 0 0 127 0" result="hardAlpha"/>
<feOffset dy="2"/>
<feGaussianBlur stdDeviation="1.5"/>
<feColorMatrix type="matrix" values="0 0 0 0 0 0 0 0 0 0 0 0 0 0 0 0 0 0 0.05 0"/>
<feBlend mode="normal" in2="effect1_dropShadow_101_1566" result="effect2_dropShadow_101_1566"/>
<feBlend mode="normal" in="SourceGraphic" in2="effect2_dropShadow_101_1566" result="shape"/>
</filter>
<filter id="filter3_dd_101_1566" x="22" y="6" width="85" height="85" filterUnits="userSpaceOnUse" color-interpolation-filters="sRGB">
<feFlood flood-opacity="0" result="BackgroundImageFix"/>
<feColorMatrix in="SourceAlpha" type="matrix" values="0 0 0 0 0 0 0 0 0 0 0 0 0 0 0 0 0 0 127 0" result="hardAlpha"/>
<feOffset dy="5"/>
<feGaussianBlur stdDeviation="10"/>
<feComposite in2="hardAlpha" operator="out"/>
<feColorMatrix type="matrix" values="0 0 0 0 0 0 0 0 0 0 0 0 0 0 0 0 0 0 0.15 0"/>
<feBlend mode="normal" in2="BackgroundImageFix" result="effect1_dropShadow_101_1566"/>
<feColorMatrix in="SourceAlpha" type="matrix" values="0 0 0 0 0 0 0 0 0 0 0 0 0 0 0 0 0 0 127 0" result="hardAlpha"/>
<feOffset dy="2"/>
<feGaussianBlur stdDeviation="1.5"/>
<feColorMatrix type="matrix" values="0 0 0 0 0 0 0 0 0 0 0 0 0 0 0 0 0 0 0.05 0"/>
<feBlend mode="normal" in2="effect1_dropShadow_101_1566" result="effect2_dropShadow_101_1566"/>
<feBlend mode="normal" in="SourceGraphic" in2="effect2_dropShadow_101_1566" result="shape"/>
</filter>
<filter id="filter4_dd_101_1566" x="38" y="13" width="85" height="85" filterUnits="userSpaceOnUse" color-interpolation-filters="sRGB">
<feFlood flood-opacity="0" result="BackgroundImageFix"/>
<feColorMatrix in="SourceAlpha" type="matrix" values="0 0 0 0 0 0 0 0 0 0 0 0 0 0 0 0 0 0 127 0" result="hardAlpha"/>
<feOffset dy="5"/>
<feGaussianBlur stdDeviation="10"/>
<feComposite in2="hardAlpha" operator="out"/>
<feColorMatrix type="matrix" values="0 0 0 0 0 0 0 0 0 0 0 0 0 0 0 0 0 0 0.15 0"/>
<feBlend mode="normal" in2="BackgroundImageFix" result="effect1_dropShadow_101_1566"/>
<feColorMatrix in="SourceAlpha" type="matrix" values="0 0 0 0 0 0 0 0 0 0 0 0 0 0 0 0 0 0 127 0" result="hardAlpha"/>
<feOffset dy="2"/>
<feGaussianBlur stdDeviation="1.5"/>
<feColorMatrix type="matrix" values="0 0 0 0 0 0 0 0 0 0 0 0 0 0 0 0 0 0 0.05 0"/>
<feBlend mode="normal" in2="effect1_dropShadow_101_1566" result="effect2_dropShadow_101_1566"/>
<feBlend mode="normal" in="SourceGraphic" in2="effect2_dropShadow_101_1566" result="shape"/>
</filter>
<linearGradient id="paint0_linear_101_1566" x1="69.0005" y1="52.5" x2="42.0005" y2="60" gradientUnits="userSpaceOnUse">
<stop stop-color="#0B8CC2"/>
<stop offset="1" stop-color="#B4D8E7" stop-opacity="0"/>
</linearGradient>
<linearGradient id="paint1_linear_101_1566" x1="78.5005" y1="22" x2="8.50049" y2="33.5" gradientUnits="userSpaceOnUse">
<stop offset="0.5" stop-color="#C4DAE2"/>
<stop offset="1" stop-color="#6FBFDE"/>
</linearGradient>
</defs>
</svg>
