<svg width="83" height="114" viewBox="0 0 83 114" fill="none" xmlns="http://www.w3.org/2000/svg">
<path d="M80 97.5C80 106.613 63.2107 114 42.5 114C21.7893 114 5 106.613 5 97.5C5 88.3873 21.7893 81 42.5 81C63.2107 81 80 88.3873 80 97.5Z" fill="black" fill-opacity="0.05"/>
<path d="M13.6647 95.7535L4 31C7.33333 34.5 19.7 41 42.5 41C65.3 41 75.5 34 79 31L70.774 95.8404C70.5919 97.2759 70.2968 98.7139 69.5619 99.9604C66.6657 104.873 58.5793 112 42.5 112C26.478 112 18.1393 104.923 15.0411 100.013C14.2357 98.7364 13.8875 97.2464 13.6647 95.7535Z" fill="#DDEFFD"/>
<path d="M83 18C83 27.9411 64.4198 36 41.5 36C18.5802 36 0 27.9411 0 18C0 8.05887 18.5802 0 41.5 0C64.4198 0 83 8.05887 83 18Z" fill="#DDEFFD"/>
<path fill-rule="evenodd" clip-rule="evenodd" d="M41.5 36C66 36 83 27.9411 83 18C83 8.05887 64.4198 0 41.5 0C18.5802 0 0 8.05887 0 18C0 27.9411 17 36 41.5 36ZM42 34C62.4345 34 79 27.9558 79 20.5C79 13.0442 62.4345 7 42 7C21.5655 7 5 13.0442 5 20.5C5 27.9558 21.5655 34 42 34Z" fill="#53BBF3"/>
<path d="M0 18L0.0133149 18.1465C0.673729 24.5301 12.2234 36 41.2515 36C68.5105 36 81.6107 26.3523 82.8949 19.1558L83 18C83 18.3766 82.9651 18.7625 82.8949 19.1558L82 29C78.8523 34.8235 67.0958 43.5 41.2515 43.5C15.4072 43.5 3.98204 34.8235 1 29L0.0133149 18.1465C0.00823272 18.0973 0.00379544 18.0485 0 18Z" fill="#53BBF3"/>
</svg>
