<svg width="83" height="114" viewBox="0 0 83 114" fill="none" xmlns="http://www.w3.org/2000/svg">
<path d="M80 97.5C80 106.613 63.2107 114 42.5 114C21.7893 114 5 106.613 5 97.5C5 88.3873 21.7893 81 42.5 81C63.2107 81 80 88.3873 80 97.5Z" fill="black" fill-opacity="0.05"/>
<path d="M13.6647 95.7535L4 31C7.33333 34.5 19.7 41 42.5 41C65.3 41 75.5 34 79 31L70.774 95.8404C70.5919 97.2759 70.2968 98.7139 69.5619 99.9604C66.6657 104.873 58.5793 112 42.5 112C26.478 112 18.1393 104.923 15.0411 100.013C14.2357 98.7364 13.8875 97.2464 13.6647 95.7535Z" fill="#DDEFFD"/>
<path d="M83 18C83 27.9411 64.4198 36 41.5 36C18.5802 36 0 27.9411 0 18C0 8.05887 18.5802 0 41.5 0C64.4198 0 83 8.05887 83 18Z" fill="#DDEFFD"/>
<path fill-rule="evenodd" clip-rule="evenodd" d="M41.5 36C66 36 83 27.9411 83 18C83 8.05887 64.4198 0 41.5 0C18.5802 0 0 8.05887 0 18C0 27.9411 17 36 41.5 36ZM42 34C62.4345 34 79 27.9558 79 20.5C79 13.0442 62.4345 7 42 7C21.5655 7 5 13.0442 5 20.5C5 27.9558 21.5655 34 42 34Z" fill="#53BBF3"/>
<path d="M0 18L0.0133149 18.1465C0.673729 24.5301 12.2234 36 41.2515 36C68.5105 36 81.6107 26.3523 82.8949 19.1558L83 18C83 18.3766 82.9651 18.7625 82.8949 19.1558L82 29C78.8523 34.8235 67.0958 43.5 41.2515 43.5C15.4072 43.5 3.98204 34.8235 1 29L0.0133149 18.1465C0.00823272 18.0973 0.00379544 18.0485 0 18Z" fill="#53BBF3"/>
<mask id="mask0_171_947" style="mask-type:alpha" maskUnits="userSpaceOnUse" x="4" y="7" width="75" height="27">
<path d="M78.9995 20.5C78.9995 27.9558 62.434 34 41.9995 34C21.565 34 4.99951 27.9558 4.99951 20.5C4.99951 13.0442 21.565 7 41.9995 7C62.434 7 78.9995 13.0442 78.9995 20.5Z" fill="#B4D8E7"/>
</mask>
<g mask="url(#mask0_171_947)">
<g filter="url(#filter0_dd_171_947)">
<path d="M29.9995 50.5C29.9995 62.9264 19.9259 73 7.49951 73C-4.9269 73 -15.0005 62.9264 -15.0005 50.5C-15.0005 38.0736 -4.9269 28 7.49951 28C19.9259 28 29.9995 38.0736 29.9995 50.5Z" fill="white"/>
</g>
<g filter="url(#filter1_dd_171_947)">
<path d="M52.9995 36.5C52.9995 48.9264 42.9259 59 30.4995 59C18.0731 59 7.99951 48.9264 7.99951 36.5C7.99951 24.0736 18.0731 14 30.4995 14C42.9259 14 52.9995 24.0736 52.9995 36.5Z" fill="white"/>
</g>
<g filter="url(#filter2_dd_171_947)">
<path d="M74.9995 53.5C74.9995 65.9264 64.9259 76 52.4995 76C40.0731 76 29.9995 65.9264 29.9995 53.5C29.9995 41.0736 40.0731 31 52.4995 31C64.9259 31 74.9995 41.0736 74.9995 53.5Z" fill="white"/>
</g>
<g filter="url(#filter3_dd_171_947)">
<path d="M86.9995 43.5C86.9995 55.9264 76.9259 66 64.4995 66C52.0731 66 41.9995 55.9264 41.9995 43.5C41.9995 31.0736 52.0731 21 64.4995 21C76.9259 21 86.9995 31.0736 86.9995 43.5Z" fill="white"/>
</g>
<g filter="url(#filter4_dd_171_947)">
<path d="M103 50.5C103 62.9264 92.9259 73 80.4995 73C68.0731 73 57.9995 62.9264 57.9995 50.5C57.9995 38.0736 68.0731 28 80.4995 28C92.9259 28 103 38.0736 103 50.5Z" fill="white"/>
</g>
</g>
<defs>
<filter id="filter0_dd_171_947" x="-35.0005" y="13" width="85" height="85" filterUnits="userSpaceOnUse" color-interpolation-filters="sRGB">
<feFlood flood-opacity="0" result="BackgroundImageFix"/>
<feColorMatrix in="SourceAlpha" type="matrix" values="0 0 0 0 0 0 0 0 0 0 0 0 0 0 0 0 0 0 127 0" result="hardAlpha"/>
<feOffset dy="5"/>
<feGaussianBlur stdDeviation="10"/>
<feComposite in2="hardAlpha" operator="out"/>
<feColorMatrix type="matrix" values="0 0 0 0 0 0 0 0 0 0 0 0 0 0 0 0 0 0 0.1 0"/>
<feBlend mode="normal" in2="BackgroundImageFix" result="effect1_dropShadow_171_947"/>
<feColorMatrix in="SourceAlpha" type="matrix" values="0 0 0 0 0 0 0 0 0 0 0 0 0 0 0 0 0 0 127 0" result="hardAlpha"/>
<feOffset dy="2"/>
<feGaussianBlur stdDeviation="1.5"/>
<feColorMatrix type="matrix" values="0 0 0 0 0 0 0 0 0 0 0 0 0 0 0 0 0 0 0.05 0"/>
<feBlend mode="normal" in2="effect1_dropShadow_171_947" result="effect2_dropShadow_171_947"/>
<feBlend mode="normal" in="SourceGraphic" in2="effect2_dropShadow_171_947" result="shape"/>
</filter>
<filter id="filter1_dd_171_947" x="-12.0005" y="-1" width="85" height="85" filterUnits="userSpaceOnUse" color-interpolation-filters="sRGB">
<feFlood flood-opacity="0" result="BackgroundImageFix"/>
<feColorMatrix in="SourceAlpha" type="matrix" values="0 0 0 0 0 0 0 0 0 0 0 0 0 0 0 0 0 0 127 0" result="hardAlpha"/>
<feOffset dy="5"/>
<feGaussianBlur stdDeviation="10"/>
<feComposite in2="hardAlpha" operator="out"/>
<feColorMatrix type="matrix" values="0 0 0 0 0 0 0 0 0 0 0 0 0 0 0 0 0 0 0.1 0"/>
<feBlend mode="normal" in2="BackgroundImageFix" result="effect1_dropShadow_171_947"/>
<feColorMatrix in="SourceAlpha" type="matrix" values="0 0 0 0 0 0 0 0 0 0 0 0 0 0 0 0 0 0 127 0" result="hardAlpha"/>
<feOffset dy="2"/>
<feGaussianBlur stdDeviation="1.5"/>
<feColorMatrix type="matrix" values="0 0 0 0 0 0 0 0 0 0 0 0 0 0 0 0 0 0 0.05 0"/>
<feBlend mode="normal" in2="effect1_dropShadow_171_947" result="effect2_dropShadow_171_947"/>
<feBlend mode="normal" in="SourceGraphic" in2="effect2_dropShadow_171_947" result="shape"/>
</filter>
<filter id="filter2_dd_171_947" x="9.99951" y="16" width="85" height="85" filterUnits="userSpaceOnUse" color-interpolation-filters="sRGB">
<feFlood flood-opacity="0" result="BackgroundImageFix"/>
<feColorMatrix in="SourceAlpha" type="matrix" values="0 0 0 0 0 0 0 0 0 0 0 0 0 0 0 0 0 0 127 0" result="hardAlpha"/>
<feOffset dy="5"/>
<feGaussianBlur stdDeviation="10"/>
<feComposite in2="hardAlpha" operator="out"/>
<feColorMatrix type="matrix" values="0 0 0 0 0 0 0 0 0 0 0 0 0 0 0 0 0 0 0.1 0"/>
<feBlend mode="normal" in2="BackgroundImageFix" result="effect1_dropShadow_171_947"/>
<feColorMatrix in="SourceAlpha" type="matrix" values="0 0 0 0 0 0 0 0 0 0 0 0 0 0 0 0 0 0 127 0" result="hardAlpha"/>
<feOffset dy="2"/>
<feGaussianBlur stdDeviation="1.5"/>
<feColorMatrix type="matrix" values="0 0 0 0 0 0 0 0 0 0 0 0 0 0 0 0 0 0 0.05 0"/>
<feBlend mode="normal" in2="effect1_dropShadow_171_947" result="effect2_dropShadow_171_947"/>
<feBlend mode="normal" in="SourceGraphic" in2="effect2_dropShadow_171_947" result="shape"/>
</filter>
<filter id="filter3_dd_171_947" x="21.9995" y="6" width="85" height="85" filterUnits="userSpaceOnUse" color-interpolation-filters="sRGB">
<feFlood flood-opacity="0" result="BackgroundImageFix"/>
<feColorMatrix in="SourceAlpha" type="matrix" values="0 0 0 0 0 0 0 0 0 0 0 0 0 0 0 0 0 0 127 0" result="hardAlpha"/>
<feOffset dy="5"/>
<feGaussianBlur stdDeviation="10"/>
<feComposite in2="hardAlpha" operator="out"/>
<feColorMatrix type="matrix" values="0 0 0 0 0 0 0 0 0 0 0 0 0 0 0 0 0 0 0.1 0"/>
<feBlend mode="normal" in2="BackgroundImageFix" result="effect1_dropShadow_171_947"/>
<feColorMatrix in="SourceAlpha" type="matrix" values="0 0 0 0 0 0 0 0 0 0 0 0 0 0 0 0 0 0 127 0" result="hardAlpha"/>
<feOffset dy="2"/>
<feGaussianBlur stdDeviation="1.5"/>
<feColorMatrix type="matrix" values="0 0 0 0 0 0 0 0 0 0 0 0 0 0 0 0 0 0 0.05 0"/>
<feBlend mode="normal" in2="effect1_dropShadow_171_947" result="effect2_dropShadow_171_947"/>
<feBlend mode="normal" in="SourceGraphic" in2="effect2_dropShadow_171_947" result="shape"/>
</filter>
<filter id="filter4_dd_171_947" x="37.9995" y="13" width="85" height="85" filterUnits="userSpaceOnUse" color-interpolation-filters="sRGB">
<feFlood flood-opacity="0" result="BackgroundImageFix"/>
<feColorMatrix in="SourceAlpha" type="matrix" values="0 0 0 0 0 0 0 0 0 0 0 0 0 0 0 0 0 0 127 0" result="hardAlpha"/>
<feOffset dy="5"/>
<feGaussianBlur stdDeviation="10"/>
<feComposite in2="hardAlpha" operator="out"/>
<feColorMatrix type="matrix" values="0 0 0 0 0 0 0 0 0 0 0 0 0 0 0 0 0 0 0.1 0"/>
<feBlend mode="normal" in2="BackgroundImageFix" result="effect1_dropShadow_171_947"/>
<feColorMatrix in="SourceAlpha" type="matrix" values="0 0 0 0 0 0 0 0 0 0 0 0 0 0 0 0 0 0 127 0" result="hardAlpha"/>
<feOffset dy="2"/>
<feGaussianBlur stdDeviation="1.5"/>
<feColorMatrix type="matrix" values="0 0 0 0 0 0 0 0 0 0 0 0 0 0 0 0 0 0 0.05 0"/>
<feBlend mode="normal" in2="effect1_dropShadow_171_947" result="effect2_dropShadow_171_947"/>
<feBlend mode="normal" in="SourceGraphic" in2="effect2_dropShadow_171_947" result="shape"/>
</filter>
</defs>
</svg>
