<svg width="140" height="132" viewBox="0 0 140 132" fill="none" xmlns="http://www.w3.org/2000/svg">
<path fill-rule="evenodd" clip-rule="evenodd" d="M114.158 67.1808C118.129 56.5304 117.543 46.3264 112.468 38.5575C107.393 30.7886 98.2839 26.1525 86.9354 25.5097C75.5895 24.8671 62.412 28.2912 50.2729 36.2213C38.1337 44.1514 29.7036 54.8426 25.7334 65.4907C21.7624 76.1411 22.3481 86.3451 27.4232 94.114C32.4984 101.883 41.6072 106.519 52.9556 107.162C64.3016 107.804 77.479 104.38 89.6182 96.4502C101.757 88.5201 110.187 77.8289 114.158 67.1808ZM92.6807 101.138C118.754 84.1054 129.712 54.7159 117.156 35.495C104.6 16.2741 73.2839 14.5004 47.2103 31.5333C21.1368 48.5661 10.1789 77.9556 22.7352 97.1765C35.2915 116.397 66.6072 118.171 92.6807 101.138Z" fill="#DDEFFD"/>
<path d="M69.9961 85.1492C69.9961 103.447 55.1626 118.281 36.8645 118.281C18.5664 118.281 3.73291 103.447 3.73291 85.1492C3.73291 66.8511 18.5664 52.0176 36.8645 52.0176C55.1626 52.0176 69.9961 66.8511 69.9961 85.1492Z" fill="#53BBF3"/>
<path d="M129.842 31.0189C129.842 41.0699 121.694 49.2179 111.643 49.2179C101.592 49.2179 93.4438 41.0699 93.4438 31.0189C93.4438 20.9678 101.592 12.8198 111.643 12.8198C121.694 12.8198 129.842 20.9678 129.842 31.0189Z" fill="#F92D00"/>
</svg>
