<svg width="51" height="117" viewBox="0 0 51 117" fill="none" xmlns="http://www.w3.org/2000/svg">
<path fill-rule="evenodd" clip-rule="evenodd" d="M21.8745 0C15.7305 0 10.7498 4.98073 10.7498 11.1248V76.2856C4.31501 80.0938 0 87.105 0 95.124C0 107.205 9.79355 116.999 21.8745 116.999C33.9555 116.999 43.749 107.205 43.749 95.124C43.749 87.105 39.4341 80.0938 32.9993 76.2856V11.1248C32.9993 4.98072 28.0186 0 21.8745 0Z" fill="#53BBF3"/>
<mask id="mask0_187_359" style="mask-type:alpha" maskUnits="userSpaceOnUse" x="0" y="0" width="44" height="118">
<path fill-rule="evenodd" clip-rule="evenodd" d="M21.8745 0.00195312C15.7305 0.00195312 10.7498 4.98269 10.7498 11.1267V76.2875C4.31501 80.0957 0 87.1069 0 95.1259C0 107.207 9.79355 117 21.8745 117C33.9555 117 43.749 107.207 43.749 95.1259C43.749 87.1069 39.434 80.0958 32.9993 76.2876V11.1267C32.9993 4.98268 28.0186 0.00195312 21.8745 0.00195312Z" fill="#53BBF3"/>
</mask>
<g mask="url(#mask0_187_359)">
<path d="M-15.2495 41.251H63.2487V116.999H-15.2495V41.251Z" fill="#F92D00"/>
</g>
<path d="M39.5388 11.9971H50.7886V17.4969H39.5388V11.9971Z" fill="#53BBF3"/>
<path d="M39.5388 22.4971H50.7886V27.9969H39.5388V22.4971Z" fill="#53BBF3"/>
<path d="M39.5388 32.9976H50.7886V38.4974H39.5388V32.9976Z" fill="#53BBF3"/>
<path d="M39.5388 43.4976H50.7886V48.9974H39.5388V43.4976Z" fill="#F92D00"/>
<path d="M39.5388 53.9951H50.7886V59.495H39.5388V53.9951Z" fill="#F92D00"/>
<path d="M39.5388 64.4956H50.7886V69.9955H39.5388V64.4956Z" fill="#F92D00"/>
</svg>
