<svg width="382" height="720" viewBox="0 0 382 720" fill="none" xmlns="http://www.w3.org/2000/svg">
<path d="M67.5244 615.496L0 609.685L411.589 458.576V500.92L364.671 495.108V519.916L304.451 512.959V542.018L245.525 536.206V561.944L185.197 553.227V582.286L124.995 575.229V601.382L67.5244 594.325V615.496Z" fill="#ECF7FD"/>
<path d="M96.5837 706.416L29.0593 700.605L440.649 549.496V591.84L393.731 586.028V610.836L333.51 603.879V632.938L274.584 627.126V652.864L214.257 644.147V673.206L154.054 666.149V692.302L96.5837 685.245V706.416Z" fill="#ECF7FD"/>
<path d="M119.001 797.336L51.4764 791.525L463.066 640.416V682.76L416.148 676.948V701.756L355.928 694.799V723.858L297.002 718.046V743.784L236.674 735.067V764.126L176.471 757.069V783.222L119.001 776.165V797.336Z" fill="#ECF7FD"/>
<path d="M96.5837 342.736L29.0593 336.925L440.649 185.816V228.16L393.731 222.348V247.156L333.51 240.199V269.258L274.584 263.446V289.184L214.257 280.467V309.526L154.054 302.469V328.622L96.5837 321.565V342.736Z" fill="#ECF7FD"/>
<path d="M78.3179 433.656L10.7934 427.845L422.383 276.736V319.08L375.465 313.268V338.076L315.245 331.119V360.178L256.319 354.366V380.104L195.991 371.387V400.446L135.788 393.389V419.542L78.3179 412.485V433.656Z" fill="#ECF7FD"/>
<path d="M67.5244 524.576L0 518.765L411.589 367.656V410L364.671 404.188V428.996L304.451 422.039V451.098L245.525 445.286V471.024L185.197 462.307V491.366L124.995 484.309V510.462L67.5244 503.405V524.576Z" fill="#ECF7FD"/>
<path d="M211.16 69.9765L143.636 64.1646L555.225 -86.9435V-44.6L508.307 -50.4118V-25.6038L448.087 -32.5612V-3.50191L389.161 -9.31376V16.4244L328.833 7.70667V36.7659L268.63 29.7087V55.862L211.16 48.8047V69.9765Z" fill="#ECF7FD"/>
<path d="M163.835 160.896L96.3107 155.085L507.9 3.9765V46.32L460.982 40.5081V65.3162L400.762 58.3588V87.4181L341.836 81.6062V107.344L281.508 98.6266V127.686L221.305 120.629V146.782L163.835 139.725V160.896Z" fill="#ECF7FD"/>
<path d="M119.001 251.816L51.4764 246.005L463.066 94.8965V137.24L416.148 131.428V156.236L355.928 149.279V178.338L297.002 172.526V198.264L236.674 189.547V218.606L176.471 211.549V237.702L119.001 230.645V251.816Z" fill="#ECF7FD"/>
</svg>
