<svg width="888" height="570" viewBox="0 0 888 570" fill="none" xmlns="http://www.w3.org/2000/svg">
<path d="M887.732 527.336C887.705 452.486 828.706 390.192 753.926 393.428C605.587 399.848 499.07 425.499 359.469 420.398C269.473 417.109 83.4051 407.122 31.4335 404.3C22.2063 403.799 12.9849 404.044 3.96893 406.07C-165.522 444.154 -181.204 712.858 -372.863 712.839C-402.631 712.835 -435.869 707.369 -459.272 725.766C-469.559 733.853 -476.308 745.585 -481.751 757.485C-506.841 812.349 -508.747 874.578 -510.228 934.889C-511.673 993.696 -458.623 1042.15 -400.939 1053.67C-331.171 1067.62 -261.445 1092.72 -191.088 1084.7C-162.761 1081.47 -135.349 1072.92 -108.137 1064.42C-62.2506 1050.08 -12.2999 1027.35 35.2507 1023.35C73.9254 1020.1 114.355 1023.38 153.185 1023.38H403.019H812.012C853.923 1023.38 887.895 989.395 887.88 947.483L887.732 527.336Z" fill="#187A60"/>
<mask id="mask0_5_28" style="mask-type:alpha" maskUnits="userSpaceOnUse" x="-511" y="393" width="1399" height="694">
<path d="M887.732 527.336C887.705 452.486 828.706 390.192 753.926 393.428C605.587 399.848 499.07 425.499 359.469 420.398C261.99 416.836 51.8018 405.415 21.3837 403.752C18.8248 403.613 16.2486 403.546 13.686 403.564C-327.326 405.94 -176.919 712.858 -372.863 712.839C-402.631 712.835 -435.869 707.369 -459.272 725.766C-469.559 733.853 -476.308 745.585 -481.751 757.485C-506.841 812.349 -508.747 874.578 -510.228 934.889C-511.673 993.696 -458.623 1042.15 -400.939 1053.67C-331.171 1067.62 -261.445 1092.72 -191.088 1084.7C-162.761 1081.47 -135.349 1072.92 -108.137 1064.42C-62.2506 1050.08 -12.2999 1027.35 35.2507 1023.35C73.9254 1020.1 114.355 1023.38 153.185 1023.38H403.019H812.012C853.923 1023.38 887.895 989.395 887.88 947.483L887.732 527.336Z" fill="#187A60"/>
</mask>
<g mask="url(#mask0_5_28)">
<path d="M570.393 1071.82C476.559 1071.24 394.523 1069.36 379.534 1069.06C341.957 1068.32 304.377 1067.58 266.798 1066.84C78.2578 1063.12 -110.657 1059.41 -298.765 1069.59C-317.261 1014.47 -335.876 958.612 -334.968 901.818C-334.062 845.023 -311.422 786.235 -257.602 745.801C-233.978 728.052 -205.273 714.451 -175.64 702.647C-40.4526 648.801 105.627 646.027 248.464 641.569C371.688 637.724 556.371 648.259 660.138 567.342C681.158 550.95 726.62 505.699 723.693 477.276C722.837 468.956 718.98 461.224 714.052 454.597C690.804 423.329 657.324 427.177 623.768 428.133C467.58 432.584 303.484 458.387 147.5 451C93.2957 448.432 -127.5 417 60.3734 382.5L892 372C892 372 886.449 994.853 886.081 1055.07C886.081 1070.6 714.352 1072.73 570.393 1071.82Z" fill="#259E7B"/>
</g>
<path d="M150.832 202.194C150.478 196.147 144.398 176.325 144.398 176.325C144.398 176.325 126.433 181.442 126.145 184.049C128.072 166.574 127.452 135.48 122.41 116.313C102.6 120.697 98.7465 124.591 82.8423 138.969C93.6623 105.068 97.9286 84.1205 92.55 55.34C91.1932 48.0816 66.4205 61.5438 65.1408 62.5057C48.1984 75.2272 34.1249 95.6986 23.3241 113.204C32.0546 75.3083 15.0325 36.7709 0 0V413.997C0 413.997 7.43816 414.1 14.0051 413.149C73.1152 404.592 130.269 374.432 157.08 314.255C158.859 310.261 160.505 306.136 162.009 301.875C163.311 298.184 168.184 285.356 170 274.778C161.401 278.839 152.802 282.901 144.204 286.964C150.309 259.151 152.494 230.558 150.832 202.194Z" fill="#259E7B"/>
</svg>
