<svg width="214" height="376" viewBox="0 0 214 376" fill="none" xmlns="http://www.w3.org/2000/svg">
<g opacity="0.5" filter="url(#filter0_f_796_813)">
<path fill-rule="evenodd" clip-rule="evenodd" d="M85.6427 40L132.488 60.4754H132.601L85.6436 40H107.82L173.319 60.4754H173.479V143.185H173.48V335.303H161.435V176.795H139.951V335.303H132.603H127.905H123.988V176.795H104.973V335.303H92.9277V176.795H56.1235V335.303H48.6704H44.0781H40.0557V176.795V143.185V60.4907H40L85.6427 40Z" fill="url(#paint0_linear_796_813)"/>
</g>
<g opacity="0.5" filter="url(#filter1_f_796_813)">
<path fill-rule="evenodd" clip-rule="evenodd" d="M85.6427 40L132.488 60.4754H132.601L85.6436 40H107.82L173.319 60.4754H173.479V143.185H173.48V335.303H161.435V176.795H139.951V335.303H132.603H127.905H123.988V176.795H104.973V335.303H92.9277V176.795H56.1235V335.303H48.6704H44.0781H40.0557V176.795V143.185V60.4907H40L85.6427 40Z" fill="url(#paint1_linear_796_813)"/>
</g>
<g opacity="0.5" filter="url(#filter2_f_796_813)">
<path fill-rule="evenodd" clip-rule="evenodd" d="M85.6427 40L132.488 60.4754H132.601L85.6436 40H107.82L173.319 60.4754H173.479V143.185H173.48V335.303H161.435V176.795H139.951V335.303H132.603H127.905H123.988V176.795H104.973V335.303H92.9277V176.795H56.1235V335.303H48.6704H44.0781H40.0557V176.795V143.185V60.4907H40L85.6427 40Z" fill="url(#paint2_linear_796_813)"/>
</g>
<g filter="url(#filter3_f_796_813)">
<path fill-rule="evenodd" clip-rule="evenodd" d="M85.6427 40L132.488 60.4754H132.601L85.6436 40H107.82L173.319 60.4754H173.479V143.185H173.48V335.303H161.435V176.795H139.951V335.303H132.603H127.905H123.988V176.795H104.973V335.303H92.9277V176.795H56.1235V335.303H48.6704H44.0781H40.0557V176.795V143.185V60.4907H40L85.6427 40Z" fill="url(#paint3_linear_796_813)"/>
</g>
<defs>
<filter id="filter0_f_796_813" x="0" y="0" width="213.48" height="375.303" filterUnits="userSpaceOnUse" color-interpolation-filters="sRGB">
<feFlood flood-opacity="0" result="BackgroundImageFix"/>
<feBlend mode="normal" in="SourceGraphic" in2="BackgroundImageFix" result="shape"/>
<feGaussianBlur stdDeviation="20" result="effect1_foregroundBlur_796_813"/>
</filter>
<filter id="filter1_f_796_813" x="0" y="0" width="213.48" height="375.303" filterUnits="userSpaceOnUse" color-interpolation-filters="sRGB">
<feFlood flood-opacity="0" result="BackgroundImageFix"/>
<feBlend mode="normal" in="SourceGraphic" in2="BackgroundImageFix" result="shape"/>
<feGaussianBlur stdDeviation="20" result="effect1_foregroundBlur_796_813"/>
</filter>
<filter id="filter2_f_796_813" x="0" y="0" width="213.48" height="375.303" filterUnits="userSpaceOnUse" color-interpolation-filters="sRGB">
<feFlood flood-opacity="0" result="BackgroundImageFix"/>
<feBlend mode="normal" in="SourceGraphic" in2="BackgroundImageFix" result="shape"/>
<feGaussianBlur stdDeviation="20" result="effect1_foregroundBlur_796_813"/>
</filter>
<filter id="filter3_f_796_813" x="0" y="0" width="213.48" height="375.303" filterUnits="userSpaceOnUse" color-interpolation-filters="sRGB">
<feFlood flood-opacity="0" result="BackgroundImageFix"/>
<feBlend mode="normal" in="SourceGraphic" in2="BackgroundImageFix" result="shape"/>
<feGaussianBlur stdDeviation="20" result="effect1_foregroundBlur_796_813"/>
</filter>
<linearGradient id="paint0_linear_796_813" x1="106.74" y1="-47.4295" x2="106.74" y2="470.866" gradientUnits="userSpaceOnUse">
<stop stop-color="#FBB040"/>
<stop offset="0.505208" stop-color="#F9ED32"/>
</linearGradient>
<linearGradient id="paint1_linear_796_813" x1="106.74" y1="-47.4295" x2="106.74" y2="470.866" gradientUnits="userSpaceOnUse">
<stop stop-color="#FBB040"/>
<stop offset="0.505208" stop-color="#F9ED32"/>
</linearGradient>
<linearGradient id="paint2_linear_796_813" x1="106.74" y1="-47.4295" x2="106.74" y2="470.866" gradientUnits="userSpaceOnUse">
<stop stop-color="#FBB040"/>
<stop offset="0.505208" stop-color="#F9ED32"/>
</linearGradient>
<linearGradient id="paint3_linear_796_813" x1="106.74" y1="40" x2="106.74" y2="335.303" gradientUnits="userSpaceOnUse">
<stop stop-color="white"/>
<stop offset="1" stop-color="white" stop-opacity="0"/>
</linearGradient>
</defs>
</svg>
