<svg width="134" height="296" viewBox="0 0 134 296" fill="none" xmlns="http://www.w3.org/2000/svg">
<path d="M121.529 295.303H133.575V103.184H121.529V295.303Z" fill="#B8CEE7"/>
<path d="M4.17285 295.303H16.2183V103.184H4.17285V295.303Z" fill="#B8CEE7"/>
<path d="M127.552 24.7833H10.1958V132.489H127.552V24.7833Z" fill="#B8CEE7"/>
<path d="M121.529 29.09H16.2183V128.181H121.529V29.09ZM4.17285 20.4754H133.574V136.795H4.17285V20.4754Z" fill="#B8CEE7"/>
<path d="M67.9143 -3.86492e-06L133.462 20.4907L92.697 20.476L45.7383 -3.86492e-06H67.9143Z" fill="#B8CEE7"/>
<path d="M20.7383 44.7641H117.01V38.4308H20.7383V44.7641Z" fill="#B8CEE7"/>
<path d="M20.7383 57.0942H117.01V50.7608H20.7383V57.0942Z" fill="#B8CEE7"/>
<path d="M20.7383 69.4223H117.01V63.089H20.7383V69.4223Z" fill="#B8CEE7"/>
<path d="M20.7383 81.7504H117.01V75.4171H20.7383V81.7504Z" fill="#B8CEE7"/>
<path d="M20.7383 94.0805H117.01V87.7472H20.7383V94.0805Z" fill="#B8CEE7"/>
<path d="M20.7383 106.411H117.01V100.077H20.7383V106.411Z" fill="#B8CEE7"/>
<path d="M20.7383 118.737H117.01V112.403H20.7383V118.737Z" fill="#B8CEE7"/>
<path d="M84.0825 295.303H92.6973V103.184H84.0825V295.303Z" fill="white"/>
<path d="M0.150391 295.303H8.76514V103.184H0.150391V295.303Z" fill="white"/>
<path d="M88.3905 24.7833H4.4585V132.489H88.3905V24.7833Z" fill="white"/>
<path d="M84.0824 29.09H8.76514V128.181H84.0824V29.09ZM0.150391 20.4754H92.6971V136.795H0.150391V20.4754Z" fill="white"/>
<path d="M45.7374 -3.86492e-06L92.6174 20.4907H0.0947266L45.7374 -3.86492e-06Z" fill="white"/>
<path d="M11.9971 44.7641H80.8504V38.4308H11.9971V44.7641Z" fill="#B8CEE7"/>
<path d="M11.9971 57.0942H80.8504V50.7608H11.9971V57.0942Z" fill="#B8CEE7"/>
<path d="M11.9971 69.4223H80.8504V63.089H11.9971V69.4223Z" fill="#B8CEE7"/>
<path d="M11.9971 81.7504H80.8504V75.4171H11.9971V81.7504Z" fill="#B8CEE7"/>
<path d="M11.9971 94.0805H80.8504V87.7472H11.9971V94.0805Z" fill="#B8CEE7"/>
<path d="M11.9971 106.411H80.8504V100.077H11.9971V106.411Z" fill="#B8CEE7"/>
<path d="M11.9971 118.737H80.8504V112.403H11.9971V118.737Z" fill="#B8CEE7"/>
</svg>
