<svg width="134" height="296" viewBox="0 0 134 296" fill="none" xmlns="http://www.w3.org/2000/svg">
<path d="M121.529 295.303H133.575V103.185H121.529V295.303Z" fill="#B8CEE7"/>
<path d="M4.17285 295.303H16.2183V103.185H4.17285V295.303Z" fill="#B8CEE7"/>
<path d="M88 295.303H100.045V103.184H88V295.303Z" fill="#B8CEE7"/>
<path d="M127.552 24.7834H10.1958V132.489H127.552V24.7834Z" fill="#B8CEE7"/>
<path d="M121.529 29.0901H16.2183V128.181H121.529V29.0901ZM4.17285 20.4754H133.574V136.795H4.17285V20.4754Z" fill="#B8CEE7"/>
<path d="M67.9143 5.72205e-05L133.462 20.4907L92.697 20.4761L45.7383 5.72205e-05H67.9143Z" fill="#B8CEE7"/>
<path d="M20.7383 44.7642H117.01V38.4308H20.7383V44.7642Z" fill="#B8CEE7"/>
<path d="M20.7383 57.0942H117.01V50.7609H20.7383V57.0942Z" fill="#B8CEE7"/>
<path d="M20.7383 69.4224H117.01V63.089H20.7383V69.4224Z" fill="#B8CEE7"/>
<path d="M20.7383 81.7505H117.01V75.4172H20.7383V81.7505Z" fill="#B8CEE7"/>
<path d="M20.7383 94.0806H117.01V87.7472H20.7383V94.0806Z" fill="#B8CEE7"/>
<path d="M20.7383 106.411H117.01V100.077H20.7383V106.411Z" fill="#B8CEE7"/>
<path d="M20.7383 118.737H117.01V112.403H20.7383V118.737Z" fill="#B8CEE7"/>
<path d="M84.0825 295.303H92.6973V103.185H84.0825V295.303Z" fill="white"/>
<path d="M0.150391 295.303H8.76514V103.185H0.150391V295.303Z" fill="white"/>
<path d="M53.0225 295.303H65.0679V103.184H53.0225V295.303Z" fill="#B8CEE7"/>
<path d="M88.3905 24.7834H4.4585V132.489H88.3905V24.7834Z" fill="white"/>
<path d="M84.0824 29.0901H8.76514V128.181H84.0824V29.0901ZM0.150391 20.4754H92.6971V136.795H0.150391V20.4754Z" fill="white"/>
<path d="M45.7374 5.72205e-05L92.6174 20.4907H0.0947266L45.7374 5.72205e-05Z" fill="white"/>
<path d="M11.9971 44.7642H80.8504V38.4308H11.9971V44.7642Z" fill="#B8CEE7"/>
<path d="M11.9971 57.0942H80.8504V50.7609H11.9971V57.0942Z" fill="#B8CEE7"/>
<path d="M11.9971 69.4224H80.8504V63.089H11.9971V69.4224Z" fill="#B8CEE7"/>
<path d="M11.9971 81.7505H80.8504V75.4172H11.9971V81.7505Z" fill="#B8CEE7"/>
<path d="M11.9971 94.0806H80.8504V87.7472H11.9971V94.0806Z" fill="#B8CEE7"/>
<path d="M11.9971 106.411H80.8504V100.077H11.9971V106.411Z" fill="#B8CEE7"/>
<path d="M11.9971 118.737H80.8504V112.403H11.9971V118.737Z" fill="#B8CEE7"/>
</svg>
