<svg width="83" height="406" viewBox="0 0 83 406" fill="none" xmlns="http://www.w3.org/2000/svg">
<path d="M43.7368 405.537H62.3023V30.807H43.7368V405.537Z" fill="white"/>
<path d="M37.7356 40.1347L10.0144 32.7288V28.2674L37.7356 22.7383V40.1347Z" fill="white"/>
<path d="M7.63293 54.3971H11.5408V11.5284H7.63293V54.3971Z" fill="#B8CEE7"/>
<path d="M0.137909 12.1531L9.60816 21.6234L17.746 13.4855V-2.71049e-05H0.137909V12.1531Z" fill="white"/>
<path d="M0 52.3392L9.47025 42.869L17.6081 51.0068V64.4923H0V52.3392Z" fill="white"/>
<path d="M9.74001 36.0452C12.4834 36.0452 14.7065 33.8221 14.7065 31.0787C14.7065 28.3353 12.4834 26.1107 9.74001 26.1107C6.99663 26.1107 4.7735 28.3353 4.7735 31.0787C4.7735 33.8221 6.99663 36.0452 9.74001 36.0452Z" fill="white"/>
<path d="M37.7344 22.7383H82.613V40.1347H37.7344V22.7383Z" fill="#B8CEE7"/>
</svg>
