<svg width="123" height="446" viewBox="0 0 123 446" fill="none" xmlns="http://www.w3.org/2000/svg">
<g opacity="0.5" filter="url(#filter0_f_796_847)">
<path fill-rule="evenodd" clip-rule="evenodd" d="M20.1853 32.1531L27.6802 39.648V46.5787C25.9906 47.3717 24.8208 49.0887 24.8208 51.0787C24.8208 53.0688 25.9906 54.785 27.6802 55.5776V64.7066L20.0474 72.3394V84.4925H37.6555V71.007L31.588 64.9396V55.7089C32.5687 55.3273 33.3981 54.6432 33.9617 53.7711L57.7817 60.1348V60.1351H57.7829H63.7842V425.537H82.3496V60.1351H102.66V42.7387L57.7829 42.7387L57.7817 42.7387V42.7389L33.3456 47.6128C32.8541 47.108 32.2562 46.7074 31.588 46.4473V39.6909L37.7934 33.4855V20H20.1853V32.1531Z" fill="url(#paint0_linear_796_847)"/>
</g>
<g opacity="0.5" filter="url(#filter1_f_796_847)">
<path fill-rule="evenodd" clip-rule="evenodd" d="M20.1853 32.1531L27.6802 39.648V46.5787C25.9906 47.3717 24.8208 49.0887 24.8208 51.0787C24.8208 53.0688 25.9906 54.785 27.6802 55.5776V64.7066L20.0474 72.3394V84.4925H37.6555V71.007L31.588 64.9396V55.7089C32.5687 55.3273 33.3981 54.6432 33.9617 53.7711L57.7817 60.1348V60.1351H57.7829H63.7842V425.537H82.3496V60.1351H102.66V42.7387L57.7829 42.7387L57.7817 42.7387V42.7389L33.3456 47.6128C32.8541 47.108 32.2562 46.7074 31.588 46.4473V39.6909L37.7934 33.4855V20H20.1853V32.1531Z" fill="url(#paint1_linear_796_847)"/>
</g>
<g opacity="0.5" filter="url(#filter2_f_796_847)">
<path fill-rule="evenodd" clip-rule="evenodd" d="M20.1853 32.1531L27.6802 39.648V46.5787C25.9906 47.3717 24.8208 49.0887 24.8208 51.0787C24.8208 53.0688 25.9906 54.785 27.6802 55.5776V64.7066L20.0474 72.3394V84.4925H37.6555V71.007L31.588 64.9396V55.7089C32.5687 55.3273 33.3981 54.6432 33.9617 53.7711L57.7817 60.1348V60.1351H57.7829H63.7842V425.537H82.3496V60.1351H102.66V42.7387L57.7829 42.7387L57.7817 42.7387V42.7389L33.3456 47.6128C32.8541 47.108 32.2562 46.7074 31.588 46.4473V39.6909L37.7934 33.4855V20H20.1853V32.1531Z" fill="url(#paint2_linear_796_847)"/>
</g>
<g filter="url(#filter3_f_796_847)">
<path fill-rule="evenodd" clip-rule="evenodd" d="M20.1853 32.1531L27.6802 39.648V46.5787C25.9906 47.3717 24.8208 49.0887 24.8208 51.0787C24.8208 53.0688 25.9906 54.785 27.6802 55.5776V64.7066L20.0474 72.3394V84.4925H37.6555V71.007L31.588 64.9396V55.7089C32.5687 55.3273 33.3981 54.6432 33.9617 53.7711L57.7817 60.1348V60.1351H57.7829H63.7842V425.537H82.3496V60.1351H102.66V42.7387L57.7829 42.7387L57.7817 42.7387V42.7389L33.3456 47.6128C32.8541 47.108 32.2562 46.7074 31.588 46.4473V39.6909L37.7934 33.4855V20H20.1853V32.1531Z" fill="url(#paint3_radial_796_847)"/>
</g>
<defs>
<filter id="filter0_f_796_847" x="0.0473633" y="0" width="122.613" height="445.537" filterUnits="userSpaceOnUse" color-interpolation-filters="sRGB">
<feFlood flood-opacity="0" result="BackgroundImageFix"/>
<feBlend mode="normal" in="SourceGraphic" in2="BackgroundImageFix" result="shape"/>
<feGaussianBlur stdDeviation="10" result="effect1_foregroundBlur_796_847"/>
</filter>
<filter id="filter1_f_796_847" x="0.0473633" y="0" width="122.613" height="445.537" filterUnits="userSpaceOnUse" color-interpolation-filters="sRGB">
<feFlood flood-opacity="0" result="BackgroundImageFix"/>
<feBlend mode="normal" in="SourceGraphic" in2="BackgroundImageFix" result="shape"/>
<feGaussianBlur stdDeviation="10" result="effect1_foregroundBlur_796_847"/>
</filter>
<filter id="filter2_f_796_847" x="0.0473633" y="0" width="122.613" height="445.537" filterUnits="userSpaceOnUse" color-interpolation-filters="sRGB">
<feFlood flood-opacity="0" result="BackgroundImageFix"/>
<feBlend mode="normal" in="SourceGraphic" in2="BackgroundImageFix" result="shape"/>
<feGaussianBlur stdDeviation="10" result="effect1_foregroundBlur_796_847"/>
</filter>
<filter id="filter3_f_796_847" x="0.0473633" y="0" width="122.613" height="445.537" filterUnits="userSpaceOnUse" color-interpolation-filters="sRGB">
<feFlood flood-opacity="0" result="BackgroundImageFix"/>
<feBlend mode="normal" in="SourceGraphic" in2="BackgroundImageFix" result="shape"/>
<feGaussianBlur stdDeviation="10" result="effect1_foregroundBlur_796_847"/>
</filter>
<linearGradient id="paint0_linear_796_847" x1="61.3539" y1="-100.066" x2="61.3537" y2="611.705" gradientUnits="userSpaceOnUse">
<stop stop-color="#FBB040"/>
<stop offset="0.505208" stop-color="#F9ED32"/>
</linearGradient>
<linearGradient id="paint1_linear_796_847" x1="61.3539" y1="-100.066" x2="61.3537" y2="611.705" gradientUnits="userSpaceOnUse">
<stop stop-color="#FBB040"/>
<stop offset="0.505208" stop-color="#F9ED32"/>
</linearGradient>
<linearGradient id="paint2_linear_796_847" x1="61.3539" y1="-100.066" x2="61.3537" y2="611.705" gradientUnits="userSpaceOnUse">
<stop stop-color="#FBB040"/>
<stop offset="0.505208" stop-color="#F9ED32"/>
</linearGradient>
<radialGradient id="paint3_radial_796_847" cx="0" cy="0" r="1" gradientUnits="userSpaceOnUse" gradientTransform="translate(67.4109 43.7836) rotate(90.909) scale(414.754 85.1158)">
<stop offset="0.046875" stop-color="white"/>
<stop offset="0.114583" stop-color="white"/>
<stop offset="0.572188" stop-color="white" stop-opacity="0"/>
</radialGradient>
</defs>
</svg>
