<svg width="122" height="265" viewBox="0 0 122 265" fill="none" xmlns="http://www.w3.org/2000/svg">
<path d="M85.3486 229.019H108.875V150.931H85.3486V229.019Z" fill="white"/>
<path d="M104.567 155.237H89.6566V224.711H104.567V155.237ZM81.0405 146.623H113.181V233.325H81.0405V146.623Z" fill="white"/>
<path d="M73.1768 155.237H121.047V146.623H73.1768V155.237Z" fill="white"/>
<path d="M73.1768 233.325H121.047V224.711H73.1768V233.325Z" fill="white"/>
<path d="M92.4004 264.101H101.822V229.845H92.4004V264.101Z" fill="white"/>
<path d="M106.806 131.541H87.417V150.931H106.806V131.541Z" fill="white"/>
<path d="M86.2637 225.544H98.1436V155.701H86.2637V225.544Z" fill="#B8CEE7"/>
<path d="M55.5247 65.4167H40.1074V264.101H55.5247V65.4167Z" fill="white"/>
<path d="M61.7862 59.879H33.8462L35.5702 90.5323H60.0622L61.7862 59.879Z" fill="#B8CEE7"/>
<path d="M54.8354 59.88H62.9514L82.6915 10.9667L95.6328 8.65539e-06H83.1301L70.5728 10.0347L54.8354 59.88Z" fill="white"/>
<path d="M51.1066 59.88L64.4759 8.88401L54.8359 8.65539e-06H47.8159V59.88H51.1066Z" fill="white"/>
<path d="M40.7973 59.88H32.6813L12.9413 10.9667L0 8.65539e-06H12.5027L25.06 10.0347L40.7973 59.88Z" fill="white"/>
<path d="M44.5266 59.88L31.1572 8.88401L40.7972 8.65539e-06H47.8172V59.88H44.5266Z" fill="white"/>
</svg>
