<svg fill="none" height="425" viewBox="0 0 282 425" width="282" xmlns="http://www.w3.org/2000/svg" xmlns:xlink="http://www.w3.org/1999/xlink"><filter id="a" color-interpolation-filters="sRGB" filterUnits="userSpaceOnUse" height="424.102" width="281.047" x="0" y="0"><feFlood flood-opacity="0" result="BackgroundImageFix"/><feBlend in="SourceGraphic" in2="BackgroundImageFix" mode="normal" result="shape"/><feGaussianBlur result="effect1_foregroundBlur_796_848" stdDeviation="40"/></filter><filter id="b" color-interpolation-filters="sRGB" filterUnits="userSpaceOnUse" height="424.102" width="281.047" x="0" y="0"><feFlood flood-opacity="0" result="BackgroundImageFix"/><feBlend in="SourceGraphic" in2="BackgroundImageFix" mode="normal" result="shape"/><feGaussianBlur result="effect1_foregroundBlur_796_848" stdDeviation="40"/></filter><filter id="c" color-interpolation-filters="sRGB" filterUnits="userSpaceOnUse" height="424.102" width="281.047" x="0" y="0"><feFlood flood-opacity="0" result="BackgroundImageFix"/><feBlend in="SourceGraphic" in2="BackgroundImageFix" mode="normal" result="shape"/><feGaussianBlur result="effect1_foregroundBlur_796_848" stdDeviation="40"/></filter><filter id="d" color-interpolation-filters="sRGB" filterUnits="userSpaceOnUse" height="304.102" width="161.047" x="60" y="60"><feFlood flood-opacity="0" result="BackgroundImageFix"/><feBlend in="SourceGraphic" in2="BackgroundImageFix" mode="normal" result="shape"/><feGaussianBlur result="effect1_foregroundBlur_796_848" stdDeviation="10"/></filter><linearGradient id="e" gradientUnits="userSpaceOnUse" x1="140.524" x2="140.524" y1="1.80856" y2="465.339"><stop offset="0" stop-color="#fbb040"/><stop offset=".505208" stop-color="#f9ed32"/></linearGradient><linearGradient id="f" gradientUnits="userSpaceOnUse" x1="140.524" x2="140.524" y1="80" y2="344.101"><stop offset=".619792" stop-color="#fff"/><stop offset="1" stop-color="#fff" stop-opacity="0"/></linearGradient><g filter="url(#a)"><path clip-rule="evenodd" d="m112.681 139.88h1.165l1.724 30.652h4.537v173.569h15.418v-173.569h4.537l1.724-30.652h1.165l19.74-48.9133 12.942-10.9667h-12.503l-12.557 10.0347-15.737 49.8443h-3.729l13.369-50.995-9.64-8.884h-7.019-.001-7.019l-9.64 8.884 13.369 50.995h-3.729l-15.737-49.8443-12.5573-10.0347h-12.5027l12.9413 10.9667zm74.125 71.661h-19.389v19.39h19.389zm-4.984 101.784h19.225v-8.614h-22.903v-69.01h-11.88v69.01h-13.087v8.614h19.223v30.776h9.422z" fill="url(#e)" fill-rule="evenodd"/></g><g filter="url(#b)"><path clip-rule="evenodd" d="m112.681 139.88h1.165l1.724 30.652h4.537v173.569h15.418v-173.569h4.537l1.724-30.652h1.165l19.74-48.9133 12.942-10.9667h-12.503l-12.557 10.0347-15.737 49.8443h-3.729l13.369-50.995-9.64-8.884h-7.019-.001-7.019l-9.64 8.884 13.369 50.995h-3.729l-15.737-49.8443-12.5573-10.0347h-12.5027l12.9413 10.9667zm74.125 71.661h-19.389v19.39h19.389zm-4.984 101.784h19.225v-8.614h-22.903v-69.01h-11.88v69.01h-13.087v8.614h19.223v30.776h9.422z" fill="url(#e)" fill-rule="evenodd"/></g><g filter="url(#c)"><path clip-rule="evenodd" d="m112.681 139.88h1.165l1.724 30.652h4.537v173.569h15.418v-173.569h4.537l1.724-30.652h1.165l19.74-48.9133 12.942-10.9667h-12.503l-12.557 10.0347-15.737 49.8443h-3.729l13.369-50.995-9.64-8.884h-7.019-.001-7.019l-9.64 8.884 13.369 50.995h-3.729l-15.737-49.8443-12.5573-10.0347h-12.5027l12.9413 10.9667zm74.125 71.661h-19.389v19.39h19.389zm-4.984 101.784h19.225v-8.614h-22.903v-69.01h-11.88v69.01h-13.087v8.614h19.223v30.776h9.422z" fill="url(#e)" fill-rule="evenodd"/></g><g filter="url(#d)" opacity=".7"><path clip-rule="evenodd" d="m112.681 139.88h1.165l1.724 30.652h4.537v173.569h15.418v-173.569h4.537l1.724-30.652h1.165l19.74-48.9133 12.942-10.9667h-12.503l-12.557 10.0347-15.737 49.8443h-3.729l13.369-50.995-9.64-8.884h-7.019-.001-7.019l-9.64 8.884 13.369 50.995h-3.729l-15.737-49.8443-12.5573-10.0347h-12.5027l12.9413 10.9667zm74.125 71.661h-19.389v19.39h19.389zm-4.984 101.784h19.225v-8.614h-22.903v-69.01h-11.88v69.01h-13.087v8.614h19.223v30.776h9.422z" fill="url(#f)" fill-rule="evenodd"/></g></svg>