<svg width="62" height="62" viewBox="0 0 62 62" fill="none" xmlns="http://www.w3.org/2000/svg">
<circle cx="31" cy="31" r="31" fill="#986CE7"/>
<mask id="mask0_1_153" style="mask-type:alpha" maskUnits="userSpaceOnUse" x="0" y="0" width="62" height="62">
<circle cx="31" cy="31" r="31" fill="#986CE7"/>
</mask>
<g mask="url(#mask0_1_153)">
<path d="M33.05 36.324C36.6552 35.2316 39.6775 32.4175 41.5733 28.9859C43.4692 25.5543 44.3044 21.5465 44.427 17.5711C44.4633 16.3948 44.4391 15.21 44.2325 14.0537C43.7255 11.2156 42.0757 8.6281 39.7812 7.07262C41.5908 7.3915 43.1535 8.65678 44.1154 10.3138C45.0774 11.9708 45.3033 13.7336 45.5102 15.6672C46.2394 22.4837 43.9466 31.0714 39.8619 36.2579C37.9769 38.6514 36.0534 38.7727 33.1386 39.1801" fill="#E9F2FF"/>
<path d="M44.5533 14.3858C44.9947 18.6737 44.8614 23.0938 43.4477 27.1658C42.034 31.2378 40.3899 33.9967 36.9273 37.7135C36.2538 38.4365 33.4996 37.5652 32.515 37.6494C30.4889 37.8227 28.5335 36.9516 26.7041 36.0634C25.7899 35.6196 24.8696 35.1595 24.0991 34.4967C23.2672 33.7812 22.6416 32.8556 22.1103 31.8954C20.0017 28.0847 19.2737 23.6658 18.9717 19.321C18.9215 18.5998 18.8846 17.8578 19.1102 17.1709C19.3491 16.4439 19.8602 15.8436 20.3617 15.2656C22.1202 13.2389 23.9664 11.1867 26.3661 9.98624C30.1763 8.0803 34.7641 8.6322 38.8274 9.91239C40.5209 10.4459 42.2352 11.1349 43.4621 12.4183" fill="#BACAE0"/>
<path d="M25.4313 38.3249C28.7518 39.1613 33.4994 43.4173 36.9234 43.3803C36.9381 41.6663 36.9088 33.3759 36.9234 31.6619C36.9262 31.3324 35.9386 31.0585 35.7848 30.767C35.6235 30.4613 35.3197 30.2624 35.0326 30.07C32.4144 28.3148 30.1822 25.9895 28.5271 23.3076C28.4109 23.1193 28.2175 22.5976 27.9139 22.69C27.7999 22.7247 27.7187 22.8291 27.6768 22.9406C27.635 23.0521 27.6256 23.1727 27.6084 23.2906C27.5498 23.6926 27.4218 24.075 27.3595 24.4768C27.291 24.9186 27.2246 25.3608 27.1592 25.8031C27.0265 26.7003 26.8986 27.5984 26.772 28.4965C26.5186 30.2939 26.2705 32.0921 25.9988 33.8869C25.9762 34.0358 25.4131 38.3203 25.4313 38.3249Z" fill="#E28781"/>
<path d="M25.4315 38.3242C25.8063 38.6078 26.5186 38.6972 26.9617 38.9294C27.3862 39.1519 27.9925 39.7213 28.5053 39.4845C28.8088 39.3442 28.9306 38.9846 29.0215 38.6627C29.482 37.0309 29.9426 35.399 30.403 33.7672C31.5196 34.204 36.3963 34.2984 36.7632 33.7299C37.4095 32.7285 35.9545 30.6872 35.0328 30.0693C32.4146 28.314 30.1825 25.9888 28.5273 23.3069C28.4111 23.1186 28.2178 22.5968 27.9141 22.6893C27.8001 22.724 27.719 22.8283 27.6771 22.9399C27.6352 23.0514 27.6258 23.1719 27.6087 23.2898C27.55 23.6919 27.422 24.0743 27.3597 24.4761C27.2912 24.9179 27.2248 25.3601 27.1594 25.8024C27.0267 26.6996 26.8988 27.5977 26.7722 28.4958C26.5188 30.2932 26.2707 32.0914 25.999 33.8862C25.9765 34.0349 25.4144 38.3112 25.4315 38.3242Z" fill="#C0655F"/>
<path d="M26.9753 18.5918C26.8305 16.6417 26.8038 14.5197 27.9835 12.9304C28.9845 11.5817 30.6648 10.888 32.2956 10.3791C35.106 9.50205 38.2346 8.99894 40.954 10.101C41.7491 10.4232 42.5096 10.8982 42.9732 11.602C43.3571 12.1847 43.5101 12.8785 43.6564 13.5555C44.0182 15.2304 44.3808 16.9598 44.0406 18.6406C43.9114 19.2788 43.6831 19.8949 43.5413 20.5305C43.3381 21.4417 43.3153 22.3796 43.224 23.3073C43.0781 24.789 42.7561 26.2503 42.3706 27.6916C41.9957 29.0931 41.2027 31.1607 40.2504 32.2773C37.5676 35.423 34.0046 33.1825 31.055 30.501C29.3141 28.9184 28.6336 27.4302 28.1726 25.2657C27.6771 22.9393 27.145 20.8794 26.9753 18.5918Z" fill="#E28781"/>
<path fill-rule="evenodd" clip-rule="evenodd" d="M38.8397 21.5525C38.8261 20.8184 38.8877 20.0985 38.949 19.6584L39.1456 19.6858C39.0856 20.1171 39.0248 20.8265 39.0382 21.5488C39.0517 22.2751 39.1401 22.998 39.3682 23.4669C39.6773 24.1023 39.5975 24.6217 39.2515 24.9101C38.9138 25.1915 38.3643 25.2147 37.814 24.9568L37.8983 24.777C38.4068 25.0154 38.8665 24.9725 39.1244 24.7576C39.3739 24.5496 39.4761 24.1426 39.1897 23.5537C38.9413 23.0432 38.8532 22.2826 38.8397 21.5525Z" fill="#A4002A"/>
<path d="M42.87 20.971C42.9693 20.931 43.0697 20.8832 43.1432 20.7985C43.2184 20.7119 43.2586 20.5938 43.2768 20.4749C43.4418 19.3961 42.3266 19.0634 41.5785 19.1209C40.9976 19.1656 39.0613 19.9165 40.23 20.7029C41.0037 21.2234 42.0263 21.3111 42.87 20.971Z" fill="#141823"/>
<path d="M26.3994 13.5382C26.9589 13.519 27.5185 13.5 28.078 13.4808C28.4477 13.4682 28.8622 13.5069 29.2246 13.4259C29.4371 13.3785 29.7764 13.0824 29.9887 13.2078C30.1255 13.2886 30.1047 13.4901 30.0659 13.6443C29.7869 14.7528 30.1054 14.2745 29.8265 15.383C29.6399 16.1245 28.8526 18.4614 28.4905 19.1348C28.3124 19.466 27.916 20.217 27.5415 20.3563C26.9489 20.5766 27.0111 19.9911 26.9828 19.5344C26.9126 18.3985 26.8976 17.2623 26.917 16.1247C26.9216 15.8518 26.5791 13.5382 26.3994 13.5382Z" fill="#C0655F"/>
<path d="M29.251 16.0212C29.6949 15.6147 30.0084 15.0927 30.264 14.5165C30.806 13.2948 31.804 10.9974 33.4098 12.1943C33.8869 12.55 34.244 13.0514 34.7369 13.3848C35.4367 13.8583 36.3879 13.9333 37.1533 13.5753C37.8031 14.3483 38.7546 14.8203 39.735 15.0619C41.5304 15.5044 43.8121 15.7236 45.1885 14.2743C45.9405 13.4825 45.7364 12.2172 45.5062 11.2221C45.2118 9.94937 44.4149 8.73131 43.4254 7.88849C39.8475 4.84081 33.3902 6.04141 29.4265 7.64364C28.7287 7.92573 28.0283 8.25899 27.5135 8.80798C26.4461 9.9462 25.8676 11.2115 25.6729 12.7503C25.5728 13.5417 25.8972 14.4302 26.155 15.1629C26.2989 15.572 26.456 15.9763 26.5968 16.3865C26.6473 16.5337 26.8929 17.2021 26.952 17.606C27.3628 17.117 27.9646 16.7894 28.5379 16.508C28.8089 16.375 29.0441 16.2106 29.251 16.0212Z" fill="#141823"/>
<path d="M27.8209 23.2585C27.8209 23.2585 27.0785 23.895 26.5821 23.7705C25.9985 23.6242 25.4844 22.9994 25.0969 22.5832C24.5505 21.9963 24.3797 21.19 24.4482 20.3973C24.5315 19.4318 25.1328 16.9778 26.6169 17.8088C27.1964 18.1332 27.5459 19.0709 27.6203 19.699C27.6807 20.21 27.7879 20.7053 27.8175 21.2226C27.8563 21.8989 27.8592 22.5819 27.8209 23.2585Z" fill="#DC768A"/>
<path d="M27.1799 21.5063C27.0795 21.487 26.2365 21.3928 25.7697 20.6339C25.4246 20.0547 25.5207 19.4523 25.5398 19.3118C26.0865 20.05 26.6331 20.7682 27.1799 21.5063Z" fill="#AB5755"/>
<path d="M41.7807 49.1176C41.5796 52.1708 42.012 55.2293 42.5451 58.2423C43.7759 65.198 45.5474 72.0448 47.317 78.8833C50.6125 78.4712 53.8569 77.652 56.953 76.4502C54.1223 68.851 55.7718 60.195 53.2369 52.4921C52.0223 48.8014 51.263 42.6332 46.7149 40.7029C42.1578 38.7689 41.9639 46.3349 41.7807 49.1176Z" fill="#BACAE0"/>
<path d="M20.5643 36.8379C17.1413 37.5684 11.2454 38.3251 10.3993 41.3786C10.0009 42.8169 10.4238 44.3138 10.8044 45.7555C12.6717 52.8303 13.5366 60.0906 13.3751 67.3353C13.3011 70.6487 13.0285 74.0537 14.2988 77.1919C26.8567 77.6405 39.4473 77.445 51.9768 76.6069C50.4903 74.383 50.463 71.7034 50.4741 69.1541C50.5018 62.735 50.5294 56.3158 50.5571 49.8967C50.5672 47.5431 50.553 45.0949 49.329 42.9768C48.0129 40.6994 45.6623 38.9865 43.2191 37.7142C42.286 37.2282 41.3809 36.7049 40.4172 36.2659C39.2906 35.7527 39.9137 36.1199 38.743 35.6675C37.6247 37.7857 34.6685 39.2337 32.625 40.1203C30.9332 39.5444 30.5575 39.188 29.6588 38.5358C28.4259 37.641 27.1768 36.7638 25.9121 35.905C24.7562 35.12 22.6664 36.3193 21.4534 36.6318C21.1828 36.7015 20.8844 36.7696 20.5643 36.8379Z" fill="#D5E2F7"/>
<path d="M50.4742 69.1555C50.5019 62.7364 50.5296 56.3173 50.5572 49.8982C50.5675 47.5445 50.5532 45.0963 49.3292 42.9782C48.0131 40.7008 42.0231 56.9509 37.6936 68.4838L36.7814 72.1499C41.2409 73.5564 46.1573 73.3183 50.5248 71.6644C50.4715 70.8278 50.4707 69.9847 50.4742 69.1555Z" fill="#E9F2FF"/>
<path d="M38.1319 52.5532C38.6522 52.5532 39.1095 53.0057 39.1719 53.7738C39.2343 54.5419 38.6689 55.1174 38.14 55.1174C37.6111 55.1174 37.3639 54.5064 37.302 53.751C37.2401 52.9955 37.6116 52.5532 38.1319 52.5532Z" fill="#FC3F1D"/>
<path d="M38.3142 53.1796C38.2763 53.1794 38.2573 53.1793 38.2194 53.179C38.0567 53.1781 37.9878 53.2855 38.0057 53.4585C38.0258 53.6505 38.0881 53.7523 38.2177 53.8744C38.2582 53.915 38.2783 53.9355 38.3184 53.9763C38.223 54.2249 38.1716 54.3516 38.0401 54.5949C37.9531 54.5938 37.9097 54.5932 37.8229 54.5922C37.9474 54.3719 37.9979 54.2582 38.0912 54.0337C37.936 53.8701 37.8448 53.7259 37.8188 53.4758C37.7868 53.1683 37.9146 52.9833 38.1996 52.9842C38.3136 52.9846 38.3706 52.9847 38.4847 52.9851C38.5374 53.5572 38.6259 53.9504 38.5719 54.6014C38.4953 54.6006 38.457 54.6 38.3806 54.5991C38.4297 54.033 38.3695 53.7045 38.3142 53.1796Z" fill="white"/>
<path d="M40.142 52.5532C40.6624 52.5532 41.1142 53.0167 41.19 53.7982C41.2658 54.5797 40.7513 55.1174 40.2099 55.1174C39.6686 55.1174 39.3606 54.5443 39.2977 53.7753C39.2347 53.0064 39.6217 52.5532 40.142 52.5532Z" fill="#A9E6FD"/>
<path d="M39.2757 53.5213C39.2759 53.5213 39.276 53.5214 39.2761 53.5214C39.2904 53.6648 39.8181 53.8599 40.2282 53.9665C40.6022 54.0636 41.1908 54.1123 41.2009 54.0017C41.201 54.0005 41.201 53.9999 41.201 53.9988H41.2012C41.2015 53.9369 41.1986 53.8737 41.1924 53.8097C41.1163 53.0105 40.6581 52.5341 40.1331 52.5341C39.6692 52.5341 39.2964 52.8786 39.2757 53.5213Z" fill="url(#paint0_linear_1_153)"/>
<path d="M40.2293 53.9706C40.6033 54.0678 41.1919 54.1165 41.2019 54.0058C41.2121 53.8952 40.8108 53.6921 40.2787 53.5619C40.1492 53.5302 39.2808 53.3437 39.2772 53.5256C39.2912 53.6689 39.8191 53.8641 40.2293 53.9706Z" fill="#D12000"/>
<path d="M40.27 52.8677C40.3032 52.8748 40.3279 52.9136 40.3258 52.9558C40.2967 53.5431 40.3461 53.961 40.2399 54.6093C40.2216 54.7209 40.2645 54.8229 40.3427 54.8418C40.4209 54.8609 40.5061 54.7921 40.5255 54.6825C40.5299 54.6576 40.532 54.645 40.536 54.6196C40.5433 54.5734 40.5751 54.5421 40.6082 54.5507C40.6413 54.5593 40.6629 54.6043 40.6555 54.6503C40.6514 54.6753 40.6493 54.6878 40.6448 54.7126C40.6083 54.9118 40.442 55.0295 40.2995 54.9969C40.157 54.9645 40.0883 54.7845 40.1209 54.5784C40.2242 53.9258 40.174 53.5097 40.2055 52.9291C40.2078 52.8874 40.2369 52.8605 40.27 52.8677Z" fill="black"/>
<path d="M39.2761 53.5368C39.2763 53.5368 39.2764 53.5369 39.2765 53.5369V53.5368C39.2801 53.3551 40.1485 53.5417 40.2779 53.5733C40.8054 53.7023 41.2044 53.903 41.2014 54.0143H41.2015C41.2019 53.9524 41.199 53.8893 41.1928 53.8252C41.1167 53.026 40.6585 52.5496 40.1335 52.5496C39.6695 52.5496 39.2968 52.8942 39.2761 53.5368Z" fill="url(#paint1_linear_1_153)"/>
<path d="M47.3011 53.8629C47.2753 53.6702 47.2284 53.5333 47.1572 53.4538C47.0856 53.3722 46.9879 53.3322 46.8631 53.3314C46.7847 53.3308 46.7166 53.3456 46.6591 53.3758C46.6028 53.406 46.5587 53.4375 46.5268 53.4703C46.5417 53.5932 46.5499 53.6561 46.5665 53.7813C46.5844 53.7563 46.6091 53.7324 46.6406 53.7095C46.6731 53.6846 46.7097 53.6651 46.7502 53.6508C46.7906 53.6344 46.8306 53.6264 46.8704 53.6268C46.9273 53.6275 46.9713 53.6457 47.0023 53.6819C47.0334 53.7181 47.0544 53.7787 47.0658 53.8631C47.0705 53.8986 47.073 53.9164 47.0779 53.9517C47.0628 53.9515 47.0553 53.9515 47.0402 53.9512C46.8604 53.9489 46.7339 53.9928 46.6617 54.0806C46.5909 54.1686 46.5669 54.2911 46.5891 54.4379C46.6114 54.5846 46.6557 54.6891 46.7232 54.7605C46.7919 54.8302 46.8723 54.8619 46.9646 54.8627C47.0355 54.8634 47.0864 54.8531 47.1172 54.8311C47.1491 54.8075 47.1737 54.7808 47.1911 54.7508C47.1951 54.7508 47.1971 54.7508 47.201 54.7509C47.2053 54.7677 47.2103 54.7852 47.2161 54.8031C47.2232 54.8211 47.2299 54.8363 47.2361 54.8489C47.3289 54.8499 47.3751 54.8503 47.4674 54.8512C47.4415 54.754 47.4189 54.6462 47.4002 54.5319C47.3598 54.2847 47.3384 54.1425 47.3011 53.8629ZM47.1656 54.5371C47.1558 54.5668 47.1387 54.5922 47.1145 54.6135C47.0901 54.6349 47.0566 54.6451 47.0141 54.6445C46.9636 54.6438 46.9228 54.6265 46.892 54.5914C46.8622 54.5544 46.8426 54.5059 46.8331 54.4442C46.8203 54.3612 46.8332 54.3011 46.8718 54.2674C46.9114 54.2318 46.9816 54.2145 47.0822 54.2159C47.0957 54.2161 47.1024 54.2162 47.1159 54.2164C47.1356 54.3497 47.1458 54.4149 47.1656 54.5371ZM46.1983 54.5958C46.063 54.594 45.9952 54.5931 45.8593 54.5913C45.8713 54.5219 45.8758 54.4357 45.8731 54.3309C45.8714 54.224 45.8642 54.1124 45.8524 53.9982C45.8416 53.882 45.83 53.7768 45.8178 53.6849C45.8153 53.6661 45.8141 53.6568 45.8117 53.638C45.9125 53.639 45.963 53.6396 46.0638 53.6405C46.1152 54.0355 46.1477 54.2499 46.1983 54.5958ZM46.544 54.6004C46.5015 54.5999 46.4802 54.5995 46.4377 54.599C46.3699 54.1507 46.3236 53.8495 46.2655 53.3516C45.9881 53.3496 45.8491 53.3486 45.5709 53.3466C45.5771 53.3985 45.5803 53.4249 45.587 53.4777C45.6029 53.605 45.6186 53.7423 45.6328 53.8863C45.6468 54.028 45.6557 54.1634 45.6583 54.289C45.6621 54.4127 45.6548 54.5115 45.6368 54.5884C45.6068 54.588 45.5918 54.5878 45.5618 54.5874C45.5923 54.8182 45.6058 54.9247 45.6201 55.0867C45.7111 55.0868 45.7565 55.0869 45.8472 55.0869C45.838 54.9988 45.8316 54.9474 45.8173 54.8352C46.0348 54.8373 46.1432 54.8383 46.3594 54.8404C46.3758 54.9512 46.3833 55.0017 46.3955 55.0875C46.4855 55.0876 46.5305 55.0876 46.6202 55.0876C46.5959 54.9338 46.5792 54.8293 46.544 54.6004ZM45.0532 54.6083C44.9852 54.6074 44.9302 54.5707 44.8873 54.4943C44.8456 54.4178 44.8143 54.2939 44.7913 54.1164C44.768 53.9367 44.7663 53.8029 44.7877 53.7204C44.8104 53.638 44.8554 53.5973 44.9225 53.598C44.9895 53.5986 45.0444 53.6403 45.0876 53.7237C45.1319 53.8072 45.1667 53.941 45.1906 54.1188C45.2148 54.2987 45.2142 54.423 45.19 54.4984C45.1671 54.5739 45.1211 54.6092 45.0532 54.6083ZM44.8868 53.3119C44.7554 53.3111 44.656 53.3771 44.5904 53.515C44.5244 53.6508 44.5096 53.854 44.5425 54.1128C44.5642 54.2842 44.5997 54.4249 44.6502 54.5363C44.7003 54.6457 44.761 54.7235 44.8343 54.7754C44.9076 54.8273 44.9893 54.8518 45.0796 54.8527C45.2137 54.8538 45.3181 54.8029 45.3877 54.6853C45.4571 54.5659 45.474 54.3822 45.4385 54.1223C45.4149 53.9503 45.3758 53.8006 45.3225 53.6796C45.2691 53.5586 45.2055 53.468 45.1311 53.4069C45.0565 53.3436 44.9752 53.3126 44.8868 53.3119ZM43.7937 53.334C43.8645 53.9291 43.9278 54.3074 43.9551 54.8175C44.0535 54.8184 44.1026 54.8189 44.2009 54.8198C44.1746 54.4072 44.1319 54.1225 44.0686 53.6201C44.2171 53.6216 44.2913 53.6224 44.4397 53.6239C44.4248 53.508 44.4175 53.4504 44.404 53.3383C44.16 53.3366 44.0379 53.3358 43.7937 53.334ZM43.3194 54.586C43.2509 54.5852 43.1973 54.5477 43.1574 54.4706C43.1187 54.3934 43.0921 54.2689 43.0734 54.0926C43.0547 53.9142 43.0549 53.7826 43.0777 53.7015C43.1017 53.6203 43.1473 53.5804 43.2147 53.5811C43.2821 53.5818 43.3368 53.6226 43.3791 53.7048C43.4228 53.7869 43.4559 53.9185 43.4757 54.0951C43.4956 54.2738 43.4904 54.3986 43.4626 54.4748C43.4363 54.5509 43.3879 54.5869 43.3194 54.586ZM43.1814 53.3005C43.0495 53.2996 42.9494 53.3642 42.882 53.4995C42.8143 53.6329 42.7971 53.832 42.8232 54.0891C42.8405 54.2592 42.871 54.4005 42.9164 54.5131C42.9617 54.6239 43.0182 54.7037 43.0887 54.7571C43.1591 54.8106 43.2397 54.8363 43.3309 54.8371C43.4664 54.8383 43.5764 54.7847 43.6534 54.6645C43.7303 54.5424 43.7554 54.3567 43.7256 54.0985C43.7058 53.9278 43.6685 53.7804 43.6161 53.6614C43.5638 53.5425 43.5005 53.4536 43.4261 53.3936C43.3516 53.3316 43.2701 53.3011 43.1814 53.3005ZM42.2811 52.8045C42.3294 53.485 42.4603 54.0768 42.454 54.8034C42.5544 54.8042 42.6046 54.8048 42.705 54.8057C42.7038 54.0828 42.5739 53.4867 42.5247 52.8049C42.4272 52.8048 42.3786 52.8047 42.2811 52.8045ZM41.6027 52.8036C41.6486 53.4801 41.782 54.0601 41.7549 54.7967C41.8552 54.7977 41.9054 54.7982 42.0058 54.7991C42.0255 54.0661 41.893 53.4819 41.8462 52.804C41.7488 52.8039 41.7001 52.8038 41.6027 52.8036ZM41.623 53.045C41.9921 53.0464 42.1768 53.0471 42.5461 53.0486C42.5358 52.9463 42.5313 52.8971 42.5247 52.8049C42.1559 52.8043 41.9714 52.8042 41.6027 52.8036C41.6089 52.8951 41.6132 52.9439 41.623 53.045Z" fill="black"/>
<path d="M5.63176 46.4062C4.1039 49.2318 3.35409 52.2664 2.7474 55.2905C1.34677 62.2717 0.657754 69.3242 -0.0300293 76.3681C4.20184 77.04 8.54136 77.31 12.8587 77.1701C12.5584 69.0641 18.2195 61.4015 18.3271 53.2926C18.3786 49.4074 20.0298 43.3236 15.2373 40.0306C10.4354 36.7311 7.02427 43.831 5.63176 46.4062Z" fill="#BACAE0"/>
<path d="M30.4619 39.4725C24.8812 35.0793 24.9188 26.4771 25.8084 19.3805C25.9313 18.3998 26.1096 17.423 26.4142 16.488C28.1837 11.057 30.7784 7.96551 35.8646 6.76411C38.0857 6.23948 40.5217 5.99789 42.5412 7.11034C41.7221 6.65911 41.0671 5.83069 40.2025 5.3784C39.2925 4.90247 38.3111 4.5783 37.3075 4.42053C35.7327 4.17304 34.1155 4.1171 32.5261 4.23092C31.0921 4.33362 30.4033 4.61333 30.0652 4.61694C28.3979 4.63477 26.7355 3.86484 25.0761 4.01334C23.2195 4.17948 21.2854 4.6218 19.8043 5.82231C18.0699 7.22805 16.7718 8.77893 15.7641 10.7644C13.218 15.7809 12.4908 20.4584 14.9435 25.7101C16.0316 28.0404 17.5761 30.0905 19.1083 32.1204C20.3451 33.7592 21.5941 35.411 23.1251 36.7411C25.5523 38.8497 28.4191 39.0739 31.2678 40.111" fill="#D5E2F7"/>
<path d="M26.5852 34.2985C24.5162 32.3576 23.4729 29.2949 23.3958 24.9356C23.2958 19.2939 24.5933 14.4416 27.148 10.9032C28.5948 8.89902 30.6142 7.23281 32.8341 6.2115C35.2071 5.11969 37.6813 4.79782 39.9889 5.28037L39.9527 5.45304C35.4567 4.513 30.3678 6.74443 27.291 11.0064C24.7589 14.5138 23.473 19.3293 23.5722 24.9324C23.6485 29.2416 24.6735 32.2632 26.706 34.1697L26.5852 34.2985Z" fill="#BACAE0"/>
<path d="M42.8703 21.2391C42.9696 21.1991 43.07 21.1513 43.1435 21.0666C43.2187 20.98 43.2589 20.8619 43.2771 20.7429C43.4421 19.6642 42.3269 19.3315 41.5787 19.389C40.9979 19.4337 39.0615 20.1846 40.2303 20.9709C41.004 21.4915 42.0265 21.5791 42.8703 21.2391Z" fill="white"/>
<path d="M42.4216 19.483C42.1425 19.394 41.8387 19.3669 41.579 19.3869C41.4352 19.3979 41.2082 19.4524 40.9659 19.5398C40.7154 19.7503 40.5562 20.0618 40.5562 20.4101C40.5562 20.7905 40.7464 21.1268 41.0381 21.3357C41.4625 21.4518 41.9121 21.4694 42.3409 21.3897C42.6789 21.1881 42.9053 20.8254 42.9053 20.4101C42.9053 20.0287 42.7143 19.6918 42.4216 19.483Z" fill="#44181C"/>
<path d="M42.5127 20.5406C42.5127 20.845 42.3076 21.0917 42.0546 21.0917C41.8018 21.0917 41.5967 20.845 41.5967 20.5406C41.5967 20.2362 41.8018 19.9895 42.0546 19.9895C42.3076 19.9895 42.5127 20.2362 42.5127 20.5406Z" fill="#141823"/>
<path d="M33.9163 26.7913C33.8324 26.6571 33.8214 26.4688 33.8731 26.3658C33.8954 26.3214 33.9487 26.2926 33.9919 26.3051C34.8086 26.5402 35.8623 26.5589 36.7771 26.5842C37.7735 26.6118 38.8229 26.5748 39.8264 26.4478C39.9192 26.4361 40.006 26.5231 40.0157 26.6429C40.0217 26.7171 40.0021 26.7924 39.963 26.8313C39.672 27.1595 39.5093 27.3406 39.1729 27.697C37.524 29.4918 35.6126 28.8229 34.2029 27.2259C34.0842 27.0526 34.0266 26.9642 33.9163 26.7913Z" fill="#27060E"/>
<path d="M36.8414 27.1753C36.262 27.1434 35.3472 27.3219 35.0662 28.0327C35.7465 28.5441 36.493 28.8274 37.2441 28.7581C37.2471 28.7577 37.2502 28.7575 37.2532 28.7571C37.276 28.7549 37.299 28.7511 37.3218 28.7483C37.4979 28.7239 37.6713 28.6831 37.8399 28.6255C37.8585 28.6188 37.8772 28.6134 37.8958 28.6063C37.8987 28.6053 37.9016 28.6039 37.9045 28.6029C38.1361 28.5142 38.3662 28.3871 38.5933 28.2205C38.6509 28.1757 38.7074 28.1289 38.7619 28.0785C38.4694 27.3908 37.4372 27.208 36.8414 27.1753Z" fill="#772E4A"/>
<path d="M36.7759 26.5855C37.6019 26.5979 38.4478 26.5807 39.2771 26.4974C39.2832 26.618 39.2332 26.7576 39.1577 26.8232C38.7435 27.1829 38.1632 27.3434 37.7029 27.4293C37.1043 27.541 36.5562 27.5972 35.9512 27.4824C35.7025 27.4353 35.4471 27.3805 35.196 27.2034C35.0779 27.1202 34.9602 27.0134 34.8533 26.8683C34.8145 26.8156 34.6121 26.4045 34.5964 26.4037C34.5964 26.4037 34.9491 26.4221 35.0039 26.4297C35.1834 26.4546 35.365 26.4771 35.5481 26.497C35.9521 26.541 36.3669 26.5793 36.7759 26.5855Z" fill="white"/>
<path d="M40.3171 18.5846C41.2845 18.1244 42.5527 18.2193 43.562 18.4984C44.0188 18.6248 44.2139 17.945 43.7581 17.819C42.5454 17.4836 41.0973 17.4279 39.9449 17.9761C39.5199 18.1782 39.8931 18.7863 40.3171 18.5846Z" fill="#141823"/>
<path d="M32.057 18.4156C33.0244 17.9555 34.2925 18.0503 35.3018 18.3295C35.7586 18.4558 35.9537 17.7761 35.4979 17.65C34.2852 17.3146 32.8371 17.259 31.6847 17.8072C31.2598 18.0093 31.6329 18.6173 32.057 18.4156Z" fill="#141823"/>
<path d="M19.9439 13.0726L19.8043 13.0066C21.7663 8.85099 25.6022 5.71551 30.0652 4.61938L30.102 4.76921C25.6837 5.85448 21.8863 8.95846 19.9439 13.0726Z" fill="#BACAE0"/>
<path d="M40.2505 33.651C38.1349 36.3657 27.9882 39.4402 31.1796 43.376C33.7264 41.8374 37.9304 37.4137 40.2505 33.651Z" fill="#BACAE0"/>
<path d="M23.1254 36.7434C22.9445 36.5846 22.7989 36.3205 22.5752 36.2407C22.2918 36.3452 21.6858 36.5649 21.4538 36.6248C21.1747 36.6966 19.1828 37.0349 19.1828 37.0349C19.8349 38.5078 21.0859 39.6508 22.4802 40.4573C23.8911 41.2735 25.4402 41.7008 26.9431 42.2897C28.3943 42.8585 29.9539 43.3803 31.5292 43.4193C27.9812 43.3315 25.7926 39.0848 23.1254 36.7434Z" fill="#BACAE0"/>
<path d="M34.5587 43.2594C34.849 43.2563 36.87 42.4569 37.0207 42.2144C37.7037 41.1143 38.3867 40.0142 39.0698 38.9142C39.3884 38.401 40.6872 37.3918 41.7394 36.9146C41.7394 36.9146 41.6097 33.9749 41.859 33.1941C42.0406 32.6252 40.963 34.0188 40.8437 33.3782C40.0908 33.9225 39.4009 34.5466 38.6018 35.0424C38.3849 35.177 34.4915 36.6995 34.4914 36.7889C34.4884 38.896 34.7749 41.1948 34.5587 43.2594Z" fill="#E9F2FF"/>
<path d="M35.0947 48.6587C35.0947 49.1041 34.7337 49.4651 34.2884 49.4651C33.843 49.4651 33.4819 49.1041 33.4819 48.6587C33.4819 48.2133 33.843 47.8523 34.2884 47.8523C34.7337 47.8523 35.0947 48.2133 35.0947 48.6587Z" fill="#BACAE0"/>
<path d="M34.0118 77.5737C33.8877 71.764 33.5357 65.8838 32.9655 60.0964C32.8029 58.4473 32.5728 56.7859 32.3503 55.1792C31.9293 52.1403 31.4943 48.998 31.5052 45.8394C31.5062 45.5709 31.5037 45.2952 31.5013 45.0255C31.4932 44.1064 31.4861 43.3126 31.6024 42.9901L31.7478 43.0425C31.6406 43.339 31.648 44.1574 31.6556 45.0241C31.6581 45.2945 31.6605 45.5708 31.6595 45.84C31.6486 48.9876 32.083 52.1245 32.5031 55.1581C32.7259 56.7661 32.9562 58.4291 33.1192 60.0813C33.6896 65.8725 34.0419 71.7567 34.1661 77.5704L34.0118 77.5737Z" fill="#BACAE0"/>
<path d="M24.923 32.401C26.6128 34.793 29.6988 35.6907 32.573 36.2525C32.2736 38.5058 31.9743 40.759 31.6749 43.0122C31.6556 43.157 31.6313 43.3127 31.5289 43.4168C31.3508 43.5977 31.0489 43.5283 30.8117 43.438C27.3077 42.1038 24.722 39.3665 22.0339 36.9002C21.9415 36.8154 21.8443 36.7304 21.7262 36.6883C21.5598 36.6292 21.3766 36.6628 21.2034 36.6971C20.5415 36.8279 19.8797 36.9587 19.2178 37.0895C17.637 33.9437 16.7604 30.4465 16.6704 26.9269" fill="#D5E2F7"/>
<path d="M26.1487 37.665C26.0172 37.8634 25.5869 37.8096 25.1876 37.5447C24.7884 37.2799 24.5714 36.9045 24.7029 36.7061C24.8345 36.5078 25.2648 36.5616 25.6641 36.8264C26.0633 37.0912 26.2803 37.4667 26.1487 37.665Z" fill="#BACAE0"/>
<path d="M38.6689 36.3314C38.8026 36.5282 38.5899 36.9061 38.1936 37.1754C37.7975 37.4447 37.3678 37.5034 37.234 37.3065C37.1001 37.1097 37.313 36.7318 37.7091 36.4625C38.1054 36.1932 38.5351 36.1345 38.6689 36.3314Z" fill="#BACAE0"/>
<path fill-rule="evenodd" clip-rule="evenodd" d="M38.18 29.844C37.4962 29.6246 36.8976 29.7216 36.2061 29.8918L36.2483 30.0631C36.9331 29.8946 37.4911 29.8083 38.1261 30.012L38.18 29.844Z" fill="#A4002A"/>
<path fill-rule="evenodd" clip-rule="evenodd" d="M36.8994 24.7069C36.9656 24.8544 37.087 24.9818 37.2471 25.0385L37.3059 24.8721C37.1983 24.834 37.1101 24.7453 37.0604 24.6346C37.0107 24.5239 37.0031 24.3991 37.0462 24.2934L36.8828 24.2267C36.8187 24.384 36.8332 24.5594 36.8994 24.7069Z" fill="#A4002A"/>
<path d="M35.1177 20.961C35.2169 20.921 35.3173 20.8732 35.3908 20.7885C35.466 20.7019 35.5062 20.5838 35.5245 20.4649C35.6894 19.3861 34.5742 19.0534 33.8262 19.1109C33.2452 19.1556 31.3089 19.9065 32.4777 20.6929C33.2513 21.2134 34.2739 21.301 35.1177 20.961Z" fill="#141823"/>
<path d="M35.1177 21.2331C35.2169 21.1931 35.3173 21.1453 35.3908 21.0606C35.466 20.974 35.5062 20.8559 35.5245 20.7369C35.6894 19.6582 34.5742 19.3255 33.8262 19.383C33.2452 19.4277 31.3089 20.1786 32.4777 20.9649C33.2513 21.4855 34.2739 21.5731 35.1177 21.2331Z" fill="white"/>
<path d="M34.669 19.4799C34.3898 19.3911 34.0861 19.3638 33.8264 19.3839C33.6826 19.3949 33.4556 19.4493 33.2132 19.5368C32.9627 19.7474 32.8036 20.0588 32.8036 20.407C32.8036 20.7876 32.9938 21.1238 33.2854 21.3327C33.7099 21.4488 34.1595 21.4663 34.5883 21.3867C34.9263 21.1851 35.1527 20.8223 35.1527 20.407C35.1527 20.0257 34.9617 19.6888 34.669 19.4799Z" fill="#44181C"/>
<path d="M34.7604 20.5376C34.7604 20.842 34.5554 21.0887 34.3024 21.0887C34.0495 21.0887 33.8445 20.842 33.8445 20.5376C33.8445 20.2332 34.0495 19.9865 34.3024 19.9865C34.5554 19.9865 34.7604 20.2332 34.7604 20.5376Z" fill="#141823"/>
</g>
<defs>
<linearGradient id="paint0_linear_1_153" x1="40.3998" y1="52.8336" x2="40.1663" y2="54.1051" gradientUnits="userSpaceOnUse">
<stop stop-color="#FC3F1D"/>
<stop offset="1" stop-color="#FD8974"/>
</linearGradient>
<linearGradient id="paint1_linear_1_153" x1="40.3612" y1="52.995" x2="40.0335" y2="54.971" gradientUnits="userSpaceOnUse">
<stop stop-color="#FC3F1D"/>
<stop offset="1" stop-color="#FC3F1D"/>
</linearGradient>
</defs>
</svg>
