<svg width="393" height="852" viewBox="0 0 393 852" fill="none" xmlns="http://www.w3.org/2000/svg">
<g filter="url(#filter0_f_13_535)">
<path d="M817.732 677.337C817.705 602.487 758.706 540.193 683.926 543.429C535.587 549.849 429.07 575.5 289.469 570.399C199.473 567.11 13.4051 557.123 -38.5665 554.301C-47.7937 553.8 -57.0151 554.045 -66.031 556.071C-235.522 594.155 -251.204 862.859 -442.863 862.84C-472.631 862.836 -505.869 857.37 -529.272 875.767C-539.559 883.854 -546.308 895.586 -551.751 907.486C-576.841 962.35 -578.747 1024.58 -580.228 1084.89V1084.89C-581.673 1143.7 -528.623 1192.15 -470.939 1203.68C-401.171 1217.62 -331.445 1242.72 -261.088 1234.7C-232.761 1231.47 -205.349 1222.92 -178.137 1214.42C-132.251 1200.08 -82.2999 1177.35 -34.7493 1173.35C3.9254 1170.1 44.3548 1173.38 83.1854 1173.38H333.019H742.012V1173.38C783.923 1173.38 817.895 1139.4 817.88 1097.48L817.732 677.337Z" fill="#187A60"/>
<mask id="mask0_13_535" style="mask-type:alpha" maskUnits="userSpaceOnUse" x="-581" y="543" width="1399" height="694">
<path d="M817.732 677.336C817.705 602.486 758.706 540.192 683.926 543.428C535.587 549.848 429.07 575.499 289.469 570.398C191.99 566.836 -18.1982 555.415 -48.6163 553.752C-51.1752 553.613 -53.7514 553.546 -56.314 553.564C-397.326 555.94 -246.919 862.858 -442.863 862.839C-472.631 862.835 -505.869 857.369 -529.272 875.766C-539.559 883.853 -546.308 895.585 -551.751 907.485C-576.841 962.349 -578.747 1024.58 -580.228 1084.89V1084.89C-581.673 1143.7 -528.623 1192.15 -470.939 1203.67C-401.171 1217.62 -331.445 1242.72 -261.088 1234.7C-232.761 1231.47 -205.349 1222.92 -178.137 1214.42C-132.251 1200.08 -82.2999 1177.35 -34.7493 1173.35C3.9254 1170.1 44.3548 1173.38 83.1854 1173.38H333.019H742.012V1173.38C783.923 1173.38 817.895 1139.39 817.88 1097.48L817.732 677.336Z" fill="#187A60"/>
</mask>
<g mask="url(#mask0_13_535)">
<path d="M500.393 1221.82C406.559 1221.24 324.523 1219.36 309.534 1219.06C271.957 1218.32 234.377 1217.58 196.798 1216.84C8.25784 1213.12 -180.657 1209.41 -368.765 1219.59C-387.261 1164.47 -405.876 1108.61 -404.968 1051.82C-404.062 995.023 -381.422 936.235 -327.602 895.801C-303.978 878.052 -275.273 864.451 -245.64 852.647C-110.453 798.801 35.6268 796.027 178.464 791.569C301.688 787.724 486.371 798.259 590.138 717.342C611.158 700.95 656.62 655.699 653.693 627.276C652.837 618.956 648.98 611.224 644.052 604.597C620.804 573.329 587.324 577.177 553.768 578.133C397.58 582.584 233.484 608.387 77.5 601C23.2957 598.432 -197.5 567 -9.62656 532.5L822 522C822 522 816.449 1144.85 816.081 1205.07C816.081 1220.6 644.352 1222.73 500.393 1221.82Z" fill="#259E7B"/>
</g>
<path d="M68.0911 211.404C67.5015 201.339 57.3805 168.34 57.3805 168.34C57.3805 168.34 27.4735 176.859 26.9937 181.198C30.2018 152.108 29.1696 100.345 20.7768 68.4379C-12.2015 75.7366 -18.6161 82.2186 -45.092 106.153C-27.0799 49.7185 -19.9777 14.8469 -28.9314 -33.0641C-31.1901 -45.1472 -72.4295 -22.7366 -74.5598 -21.1354C-102.764 0.0421543 -126.192 34.1211 -144.172 63.2629C-129.638 0.177212 -157.975 -63.9762 -183 -125.189V563.994C-183 563.994 -170.618 564.165 -159.686 562.583C-61.2846 548.338 33.8593 498.13 78.4926 397.954C81.4541 391.305 84.1942 384.437 86.6979 377.344C88.8653 371.199 96.9777 349.845 100 332.235C85.6859 338.997 71.3701 345.758 57.0577 352.522C67.221 306.222 70.8583 258.622 68.0911 211.404Z" fill="#259E7B"/>
</g>
<defs>
<filter id="filter0_f_13_535" x="-590.257" y="-135.189" width="1418.14" height="1381.44" filterUnits="userSpaceOnUse" color-interpolation-filters="sRGB">
<feFlood flood-opacity="0" result="BackgroundImageFix"/>
<feBlend mode="normal" in="SourceGraphic" in2="BackgroundImageFix" result="shape"/>
<feGaussianBlur stdDeviation="5" result="effect1_foregroundBlur_13_535"/>
</filter>
</defs>
</svg>
