<svg width="320" height="96" viewBox="0 0 320 96" fill="none" xmlns="http://www.w3.org/2000/svg">
<g filter="url(#filter0_dd_68_100)">
<rect x="20" y="15" width="280" height="56" rx="28" fill="white"/>
</g>
<path d="M106.098 31.8541C106.697 30.0115 109.303 30.0115 109.902 31.8541L111.368 36.3647C111.635 37.1888 112.403 37.7467 113.27 37.7467L118.013 37.7467C119.95 37.7467 120.756 40.2259 119.188 41.3647L115.351 44.1525C114.65 44.6618 114.357 45.5645 114.625 46.3885L116.09 50.8992C116.689 52.7418 114.58 54.2741 113.013 53.1353L109.176 50.3475C108.475 49.8382 107.525 49.8382 106.824 50.3475L102.987 53.1353C101.42 54.2741 99.3111 52.7418 99.9098 50.8992L101.375 46.3885C101.643 45.5645 101.35 44.6618 100.649 44.1525L96.8118 41.3647C95.2444 40.2259 96.05 37.7467 97.9874 37.7467L102.73 37.7467C103.597 37.7467 104.365 37.1888 104.632 36.3647L106.098 31.8541Z" fill="black" fill-opacity="0.08"/>
<path d="M54.0979 31.8541C54.6966 30.0115 57.3034 30.0115 57.9021 31.8541L59.3677 36.3647C59.6355 37.1888 60.4034 37.7467 61.2698 37.7467L66.0126 37.7467C67.95 37.7467 68.7556 40.2259 67.1882 41.3647L63.3512 44.1525C62.6502 44.6618 62.3569 45.5645 62.6246 46.3885L64.0902 50.8992C64.6889 52.7418 62.58 54.2741 61.0126 53.1353L57.1756 50.3475C56.4746 49.8382 55.5254 49.8382 54.8244 50.3475L50.9874 53.1353C49.42 54.2741 47.3111 52.7418 47.9098 50.8992L49.3754 46.3885C49.6431 45.5645 49.3498 44.6618 48.6488 44.1525L44.8118 41.3647C43.2444 40.2259 44.05 37.7467 45.9874 37.7467L50.7302 37.7467C51.5966 37.7467 52.3645 37.1888 52.6323 36.3647L54.0979 31.8541Z" fill="black" fill-opacity="0.08"/>
<path d="M158.098 31.8541C158.697 30.0115 161.303 30.0115 161.902 31.8541L163.368 36.3647C163.635 37.1888 164.403 37.7467 165.27 37.7467L170.013 37.7467C171.95 37.7467 172.756 40.2259 171.188 41.3647L167.351 44.1525C166.65 44.6618 166.357 45.5645 166.625 46.3885L168.09 50.8992C168.689 52.7418 166.58 54.2741 165.013 53.1353L161.176 50.3475C160.475 49.8382 159.525 49.8382 158.824 50.3475L154.987 53.1353C153.42 54.2741 151.311 52.7418 151.91 50.8992L153.375 46.3885C153.643 45.5645 153.35 44.6618 152.649 44.1525L148.812 41.3647C147.244 40.2259 148.05 37.7467 149.987 37.7467L154.73 37.7467C155.597 37.7467 156.365 37.1888 156.632 36.3647L158.098 31.8541Z" fill="black" fill-opacity="0.08"/>
<path d="M210.098 31.8541C210.697 30.0115 213.303 30.0115 213.902 31.8541L215.368 36.3647C215.635 37.1888 216.403 37.7467 217.27 37.7467L222.013 37.7467C223.95 37.7467 224.756 40.2259 223.188 41.3647L219.351 44.1525C218.65 44.6618 218.357 45.5645 218.625 46.3885L220.09 50.8992C220.689 52.7418 218.58 54.2741 217.013 53.1353L213.176 50.3475C212.475 49.8382 211.525 49.8382 210.824 50.3475L206.987 53.1353C205.42 54.2741 203.311 52.7418 203.91 50.8992L205.375 46.3885C205.643 45.5645 205.35 44.6618 204.649 44.1525L200.812 41.3647C199.244 40.2259 200.05 37.7467 201.987 37.7467L206.73 37.7467C207.597 37.7467 208.365 37.1888 208.632 36.3647L210.098 31.8541Z" fill="black" fill-opacity="0.08"/>
<path d="M262.098 31.8541C262.697 30.0115 265.303 30.0115 265.902 31.8541L267.368 36.3647C267.635 37.1888 268.403 37.7467 269.27 37.7467L274.013 37.7467C275.95 37.7467 276.756 40.2259 275.188 41.3647L271.351 44.1525C270.65 44.6618 270.357 45.5645 270.625 46.3885L272.09 50.8992C272.689 52.7418 270.58 54.2741 269.013 53.1353L265.176 50.3475C264.475 49.8382 263.525 49.8382 262.824 50.3475L258.987 53.1353C257.42 54.2741 255.311 52.7418 255.91 50.8992L257.375 46.3885C257.643 45.5645 257.35 44.6618 256.649 44.1525L252.812 41.3647C251.244 40.2259 252.05 37.7467 253.987 37.7467L258.73 37.7467C259.597 37.7467 260.365 37.1888 260.632 36.3647L262.098 31.8541Z" fill="black" fill-opacity="0.08"/>
<defs>
<filter id="filter0_dd_68_100" x="0" y="0" width="320" height="96" filterUnits="userSpaceOnUse" color-interpolation-filters="sRGB">
<feFlood flood-opacity="0" result="BackgroundImageFix"/>
<feColorMatrix in="SourceAlpha" type="matrix" values="0 0 0 0 0 0 0 0 0 0 0 0 0 0 0 0 0 0 127 0" result="hardAlpha"/>
<feOffset dy="5"/>
<feGaussianBlur stdDeviation="10"/>
<feComposite in2="hardAlpha" operator="out"/>
<feColorMatrix type="matrix" values="0 0 0 0 0 0 0 0 0 0 0 0 0 0 0 0 0 0 0.15 0"/>
<feBlend mode="normal" in2="BackgroundImageFix" result="effect1_dropShadow_68_100"/>
<feColorMatrix in="SourceAlpha" type="matrix" values="0 0 0 0 0 0 0 0 0 0 0 0 0 0 0 0 0 0 127 0" result="hardAlpha"/>
<feOffset dy="2"/>
<feGaussianBlur stdDeviation="1.5"/>
<feColorMatrix type="matrix" values="0 0 0 0 0 0 0 0 0 0 0 0 0 0 0 0 0 0 0.05 0"/>
<feBlend mode="normal" in2="effect1_dropShadow_68_100" result="effect2_dropShadow_68_100"/>
<feBlend mode="normal" in="SourceGraphic" in2="effect2_dropShadow_68_100" result="shape"/>
</filter>
</defs>
</svg>
