<svg width="131" height="116" viewBox="0 0 131 116" fill="none" xmlns="http://www.w3.org/2000/svg">
<path d="M59.9123 75.4049C60.4235 74.5795 61.4436 74.2259 62.3559 74.558V74.558C63.2683 74.89 63.8225 75.8166 63.6835 76.7775L59.5038 105.669C58.7653 110.774 53.5219 113.91 48.6751 112.146V112.146C43.8283 110.382 41.8275 104.609 44.5431 100.224L59.9123 75.4049Z" fill="#53BBF3"/>
<path d="M68.3475 77.3251C68.2085 76.3642 68.7627 75.4376 69.675 75.1056V75.1056C70.5874 74.7735 71.6075 75.1271 72.1187 75.9525L87.4879 100.771C90.2034 105.156 88.2026 110.929 83.3558 112.693V112.693C78.509 114.457 73.2656 111.321 72.5271 106.217L68.3475 77.3251Z" fill="#53BBF3"/>
<path d="M63.9935 77.6311C64.1915 76.6807 65.0292 75.9995 66.0001 75.9995V75.9995C66.9709 75.9995 67.8086 76.6807 68.0066 77.6311L73.9605 106.21C75.0125 111.259 71.1579 116 66.0001 116V116C60.8422 116 56.9876 111.259 58.0396 106.21L63.9935 77.6311Z" fill="#53BBF3"/>
<path d="M85.0401 32.5C81.1061 32.5 77.1722 38.3034 75.6164 41.3489C75.5646 41.4503 75.4999 41.5385 75.4182 41.6178C66.4416 50.3226 55.6663 67.5 83.5401 67.5C115.54 67.5 127.822 47.114 130.54 38C132.18 32.5 126.04 32.5 126.04 32.5H85.0401Z" fill="#DDEFFD"/>
<path d="M45.7812 32C49.7154 32 53.6496 37.8034 55.2055 40.8489C55.2572 40.9503 55.322 41.0385 55.4037 41.1178C64.3808 49.8226 75.1568 67 47.2813 67C15.2793 67 2.99619 46.614 0.278397 37.5C-1.3617 32 4.77863 32 4.77868 32H45.7812Z" fill="#DDEFFD"/>
<path d="M64.3335 0.947574L61.0408 10.6793C60.8215 11.3277 61.3036 11.9998 61.9881 11.9998H68.2442C68.9158 11.9998 69.3965 11.351 69.2008 10.7085L66.2374 0.976767C65.9543 0.0468991 64.6451 0.0268255 64.3335 0.947574Z" fill="#F92D00"/>
<path d="M77.594 21.5C77.594 28.4036 71.9976 34 65.094 34C58.1904 34 52.594 28.4036 52.594 21.5C52.594 14.5964 58.1904 9 65.094 9C71.9976 9 77.594 14.5964 77.594 21.5Z" fill="#53BBF3"/>
<path d="M83.594 57C83.594 74.6731 75.3113 89 65.094 89C54.8767 89 46.594 74.6731 46.594 57C46.594 39.3269 54.8767 25 65.094 25C75.3113 25 83.594 39.3269 83.594 57Z" fill="#53BBF3"/>
</svg>
