<svg width="106" height="106" viewBox="0 0 106 106" fill="none" xmlns="http://www.w3.org/2000/svg">
<path fill-rule="evenodd" clip-rule="evenodd" d="M50 61.5V48.5L52 46L54 48.5V61.5H50Z" fill="#53BBF3"/>
<path fill-rule="evenodd" clip-rule="evenodd" d="M30 69.1701L65.8214 45.383L69.0104 45.6661L68.0342 48.7152L32.2128 72.5023L30 69.1701Z" fill="#53BBF3"/>
<path d="M44 13H62L59.2 49H46.8L44 13Z" fill="#DDEFFD"/>
<path d="M62 94L44 94L46.8 58L59.2 58L62 94Z" fill="#DDEFFD"/>
<path d="M83.5742 25.4556L92.5742 41.044L59.9973 56.6192L53.7973 45.8804L83.5742 25.4556Z" fill="#DDEFFD"/>
<path d="M22.426 81.5444L13.426 65.956L46.0029 50.3809L52.2029 61.1196L22.426 81.5444Z" fill="#DDEFFD"/>
<path d="M13.426 41.0444L22.426 25.456L52.2029 45.8808L46.0029 56.6196L13.426 41.0444Z" fill="#DDEFFD"/>
<path d="M92.5742 65.9561L83.5742 81.5445L53.7973 61.1196L59.9973 50.3809L92.5742 65.9561Z" fill="#DDEFFD"/>
<path fill-rule="evenodd" clip-rule="evenodd" d="M53 106C82.2711 106 106 82.2711 106 53C106 23.7289 82.2711 0 53 0C23.7289 0 0 23.7289 0 53C0 82.2711 23.7289 106 53 106ZM53 89.3381C72.7928 89.3381 88.8381 73.2928 88.8381 53.5C88.8381 33.7072 72.7928 17.6619 53 17.6619C33.2072 17.6619 17.1619 33.7072 17.1619 53.5C17.1619 73.2928 33.2072 89.3381 53 89.3381Z" fill="#53BBF3"/>
<path fill-rule="evenodd" clip-rule="evenodd" d="M53 87C71.7777 87 87 71.7777 87 53C87 34.2223 71.7777 19 53 19C34.2223 19 19 34.2223 19 53C19 71.7777 34.2223 87 53 87ZM53 91C73.9868 91 91 73.9868 91 53C91 32.0132 73.9868 15 53 15C32.0132 15 15 32.0132 15 53C15 73.9868 32.0132 91 53 91Z" fill="white"/>
<path d="M69 54C69 62.8366 61.8366 70 53 70C44.1634 70 37 62.8366 37 54C37 45.1634 44.1634 38 53 38C61.8366 38 69 45.1634 69 54Z" fill="white"/>
<path fill-rule="evenodd" clip-rule="evenodd" d="M53 67C60.1797 67 66 61.1797 66 54C66 46.8203 60.1797 41 53 41C45.8203 41 40 46.8203 40 54C40 61.1797 45.8203 67 53 67ZM53 70C61.8366 70 69 62.8366 69 54C69 45.1634 61.8366 38 53 38C44.1634 38 37 45.1634 37 54C37 62.8366 44.1634 70 53 70Z" fill="#53BBF3"/>
<path d="M56 54C56 55.6569 54.6569 57 53 57C51.3431 57 50 55.6569 50 54C50 52.3431 51.3431 51 53 51C54.6569 51 56 52.3431 56 54Z" fill="#53BBF3"/>
<path fill-rule="evenodd" clip-rule="evenodd" d="M52.7429 51.7432L56.2723 48.2138L58.9194 47.9196L58.6253 50.5667L55.0959 54.0961L52.7429 51.7432Z" fill="#53BBF3"/>
<path fill-rule="evenodd" clip-rule="evenodd" d="M53 40.5C54.7728 40.5 56.5283 40.8492 58.1662 41.5276C59.8041 42.2061 61.2924 43.2005 62.5459 44.4541C63.7995 45.7076 64.7939 47.1959 65.4724 48.8338C66.1508 50.4717 66.5 52.2272 66.5 54H63.5C63.5 52.6211 63.2284 51.2557 62.7007 49.9818C62.1731 48.7079 61.3996 47.5504 60.4246 46.5754C59.4496 45.6004 58.2921 44.8269 57.0182 44.2993C55.7443 43.7716 54.3789 43.5 53 43.5V40.5Z" fill="#F92D00"/>
</svg>
