<svg width="108" height="108" viewBox="0 0 108 108" fill="none" xmlns="http://www.w3.org/2000/svg">
<path d="M52.793 0.706956L37.7073 15.7927C37.0773 16.4227 37.5235 17.4998 38.4144 17.4998H48.0001C48.5524 17.4998 49.0001 17.9476 49.0001 18.4998V37.4998C49.0001 38.0521 49.4479 38.4998 50.0001 38.4998H57.0001C57.5524 38.4998 58.0001 38.0521 58.0001 37.4998V18.4998C58.0001 17.9476 58.4479 17.4998 59.0001 17.4998H68.5859C69.4768 17.4998 69.923 16.4227 69.293 15.7927L54.2073 0.706956C53.8167 0.316431 53.1836 0.316431 52.793 0.706956Z" fill="#53BBF3"/>
<path d="M105.793 53.2928L90.7073 38.207C90.0773 37.577 89.0002 38.0232 89.0002 38.9141L89.0002 48.4999C89.0002 49.0522 88.5524 49.4999 88.0002 49.4999L69.0002 49.4999C68.4479 49.4999 68.0002 49.9476 68.0002 50.4999L68.0002 57.4999C68.0002 58.0522 68.4479 58.4999 69.0002 58.4999L88.0001 58.4999C88.5524 58.4999 89.0001 58.9476 89.0001 59.4999L89.0001 69.0857C89.0001 69.9766 90.0773 70.4228 90.7073 69.7928L105.793 54.707C106.184 54.3165 106.184 53.6833 105.793 53.2928Z" fill="#53BBF3"/>
<path d="M53.7072 107.293L68.793 92.2068C69.423 91.5768 68.9768 90.4997 68.0859 90.4997L58.5001 90.4997C57.9478 90.4997 57.5001 90.0519 57.5001 89.4997L57.5001 70.4997C57.5001 69.9474 57.0524 69.4997 56.5001 69.4997L49.5001 69.4997C48.9478 69.4997 48.5001 69.9474 48.5001 70.4997L48.5001 89.4997C48.5001 90.0519 48.0524 90.4997 47.5001 90.4997L37.9143 90.4997C37.0234 90.4997 36.5772 91.5768 37.2072 92.2068L52.293 107.293C52.6835 107.683 53.3167 107.683 53.7072 107.293Z" fill="#53BBF3"/>
<path d="M0.707202 54.7067L15.793 69.7925C16.423 70.4225 17.5001 69.9763 17.5001 69.0854L17.5001 59.4996C17.5001 58.9473 17.9478 58.4996 18.5001 58.4996L37.5001 58.4996C38.0524 58.4996 38.5001 58.0519 38.5001 57.4996L38.5001 50.4996C38.5001 49.9473 38.0524 49.4996 37.5001 49.4996L18.5001 49.4996C17.9478 49.4996 17.5001 49.0519 17.5001 48.4996L17.5001 38.9138C17.5001 38.0229 16.423 37.5768 15.793 38.2067L0.707202 53.2925C0.316678 53.683 0.316678 54.3162 0.707202 54.7067Z" fill="#53BBF3"/>
<path fill-rule="evenodd" clip-rule="evenodd" d="M99.9949 107.066L0.999977 8.07107L8.07104 1L107.066 99.9949L99.9949 107.066Z" fill="#F92D00"/>
</svg>
