<svg width="108" height="94" viewBox="0 0 108 94" fill="none" xmlns="http://www.w3.org/2000/svg">
<path fill-rule="evenodd" clip-rule="evenodd" d="M47 84C67.4345 84 84 67.4345 84 47C84 26.5655 67.4345 10 47 10C26.5655 10 10 26.5655 10 47C10 67.4345 26.5655 84 47 84ZM47 94C72.9574 94 94 72.9574 94 47C94 21.0426 72.9574 0 47 0C21.0426 0 0 21.0426 0 47C0 72.9574 21.0426 94 47 94Z" fill="#53BBF3"/>
<path fill-rule="evenodd" clip-rule="evenodd" d="M62.7279 22.9615C67.3833 26.0722 71.0118 30.4935 73.1545 35.6664L70.8448 36.6231L73.1545 35.6664C75.2971 40.8392 75.8578 46.5313 74.7654 52.0228C73.6731 57.5143 70.9769 62.5585 67.0178 66.5177L63.4822 62.9821C66.7421 59.7223 68.9621 55.5689 69.8615 51.0473C70.7609 46.5258 70.2993 41.839 68.5351 37.5798C66.7708 33.3206 63.7832 29.6801 59.95 27.1189C56.1168 24.5576 51.6102 23.1905 47 23.1905C42.3898 23.1905 37.8832 24.5576 34.05 27.1189C30.2168 29.6801 27.2292 33.3206 25.4649 37.5798C23.7007 41.839 23.2391 46.5258 24.1385 51.0473C25.0379 55.5689 27.2579 59.7223 30.5178 62.9821L26.9822 66.5177C23.0231 62.5585 20.3269 57.5143 19.2346 52.0228C18.1422 46.5313 18.7029 40.8392 20.8455 35.6664L23.1191 36.6081L20.8455 35.6664C22.9882 30.4935 26.6167 26.0722 31.2721 22.9615C35.9276 19.8508 41.4009 18.1905 47 18.1905C52.5991 18.1905 58.0724 19.8508 62.7279 22.9615Z" fill="#DDEFFD"/>
<path fill-rule="evenodd" clip-rule="evenodd" d="M49.5022 60.4019L35.7968 19.6445L36.8957 16.6374L39.5882 18.3696L53.2936 59.127L49.5022 60.4019Z" fill="#53BBF3"/>
<path d="M55 47C55 51.4183 51.4183 55 47 55C42.5817 55 39 51.4183 39 47C39 42.5817 42.5817 39 47 39C51.4183 39 55 42.5817 55 47Z" fill="#53BBF3"/>
<path d="M50 47C50 48.6569 48.6569 50 47 50C45.3431 50 44 48.6569 44 47C44 45.3431 45.3431 44 47 44C48.6569 44 50 45.3431 50 47Z" fill="white"/>
<path d="M84 67.6316C84 59.4211 92 47.7895 96 43C100.333 47.4474 108 58.6 108 67.6316C108 78.9211 101 82 96 82C91 82 84 77.8947 84 67.6316Z" fill="#DDEFFD"/>
<path fill-rule="evenodd" clip-rule="evenodd" d="M88.5516 62C88.4936 62.5108 88.4631 63.011 88.4631 63.4981C88.4631 72.9315 94.8644 76.7049 99.4367 76.7049C100.201 76.7049 101.017 76.6258 101.845 76.4456C100.065 78.2676 97.7165 78.8996 95.7789 78.8996C92.121 78.8996 87 75.8963 87 68.3881C87 66.437 87.6175 64.2219 88.5516 62Z" fill="white"/>
</svg>
