<svg width="115" height="105" viewBox="0 0 115 105" fill="none" xmlns="http://www.w3.org/2000/svg">
<path fill-rule="evenodd" clip-rule="evenodd" d="M111.905 25.5C113.285 25.5 114.405 26.6193 114.405 28V102.5C114.405 103.881 113.285 105 111.905 105H95.9045C94.5238 105 93.4045 103.881 93.4045 102.5C93.4045 101.119 94.5238 100 95.9045 100H109.405V28C109.405 26.6193 110.524 25.5 111.905 25.5Z" fill="#DDEFFD"/>
<path fill-rule="evenodd" clip-rule="evenodd" d="M93.4045 2.5C93.4045 1.11929 94.5238 0 95.9045 0H111.905C113.285 0 114.405 1.11929 114.405 2.5V28C114.405 29.3807 113.285 30.5 111.905 30.5C110.524 30.5 109.405 29.3807 109.405 28V5H95.9045C94.5238 5 93.4045 3.88071 93.4045 2.5Z" fill="#F92D00"/>
<path fill-rule="evenodd" clip-rule="evenodd" d="M93.4045 52.5C93.4045 51.1193 94.5238 50 95.9045 50H111.905C113.285 50 114.405 51.1193 114.405 52.5C114.405 53.8807 113.285 55 111.905 55H95.9045C94.5238 55 93.4045 53.8807 93.4045 52.5Z" fill="#DDEFFD"/>
<path fill-rule="evenodd" clip-rule="evenodd" d="M99.4045 28.5C99.4045 27.1193 100.524 26 101.905 26H111.905C113.285 26 114.405 27.1193 114.405 28.5C114.405 29.8807 113.285 31 111.905 31H101.905C100.524 31 99.4045 29.8807 99.4045 28.5Z" fill="#F92D00"/>
<path fill-rule="evenodd" clip-rule="evenodd" d="M99.4045 77.5C99.4045 76.1193 100.524 75 101.905 75H111.905C113.285 75 114.405 76.1193 114.405 77.5C114.405 78.8807 113.285 80 111.905 80H101.905C100.524 80 99.4045 78.8807 99.4045 77.5Z" fill="#DDEFFD"/>
<path fill-rule="evenodd" clip-rule="evenodd" d="M99.4045 14.5C99.4045 13.1193 100.524 12 101.905 12H111.905C113.285 12 114.405 13.1193 114.405 14.5C114.405 15.8807 113.285 17 111.905 17H101.905C100.524 17 99.4045 15.8807 99.4045 14.5Z" fill="#F92D00"/>
<path fill-rule="evenodd" clip-rule="evenodd" d="M99.4045 64.5C99.4045 63.1193 100.524 62 101.905 62H111.905C113.285 62 114.405 63.1193 114.405 64.5C114.405 65.8807 113.285 67 111.905 67H101.905C100.524 67 99.4045 65.8807 99.4045 64.5Z" fill="#DDEFFD"/>
<path fill-rule="evenodd" clip-rule="evenodd" d="M99.4045 39.5C99.4045 38.1193 100.524 37 101.905 37H111.905C113.285 37 114.405 38.1193 114.405 39.5C114.405 40.8807 113.285 42 111.905 42H101.905C100.524 42 99.4045 40.8807 99.4045 39.5Z" fill="#DDEFFD"/>
<path fill-rule="evenodd" clip-rule="evenodd" d="M99.4045 89.5C99.4045 88.1193 100.524 87 101.905 87H111.905C113.285 87 114.405 88.1193 114.405 89.5C114.405 90.8807 113.285 92 111.905 92H101.905C100.524 92 99.4045 90.8807 99.4045 89.5Z" fill="#DDEFFD"/>
<path fill-rule="evenodd" clip-rule="evenodd" d="M79.0492 0.521816C80.1416 0.358313 81.1597 1.11133 81.3232 2.20374L79.3923 2.49274C81.3232 2.20375 81.3233 2.20445 81.3234 2.20526L81.3238 2.20735L81.3246 2.21327L81.3274 2.23195L81.3365 2.29643C81.3441 2.35135 81.3548 2.43001 81.3679 2.5315C81.3939 2.73446 81.4295 3.02881 81.4695 3.4073C81.5495 4.16415 81.6471 5.25829 81.7213 6.63162C81.8696 9.37661 81.9249 13.2466 81.5556 17.7743C80.8187 26.8085 78.3814 38.5836 71.5028 49.255C64.2462 60.5127 62.176 72.5827 62.0716 82.3755L71.243 81.098L62.5657 102.5L48.3699 84.2841L58.0677 82.9332C58.0992 72.5332 60.2078 59.3949 68.1407 47.0879C74.5386 37.1622 76.8631 26.1015 77.5688 17.4491C77.9208 13.1336 77.8676 9.44758 77.7271 6.84742C77.6569 5.54818 77.5651 4.52245 77.4917 3.82757C77.455 3.4802 77.4229 3.21573 77.4005 3.04132C77.3893 2.95413 77.3805 2.88947 77.3747 2.84825L77.3685 2.80412L77.3673 2.79583L77.3672 2.79545L77.3671 2.79488C77.2042 1.70284 77.9571 0.685271 79.0492 0.521816Z" fill="#53BBF3"/>
<path fill-rule="evenodd" clip-rule="evenodd" d="M54.2819 0.521816C55.3743 0.358313 56.3924 1.11133 56.5559 2.20374L54.625 2.49274C56.5559 2.20375 56.556 2.20445 56.5561 2.20526L56.5564 2.20735L56.5573 2.21327L56.56 2.23195L56.5692 2.29643C56.5768 2.35135 56.5875 2.43001 56.6005 2.5315C56.6266 2.73446 56.6622 3.02881 56.7022 3.4073C56.7821 4.16415 56.8798 5.25829 56.954 6.63162C57.1023 9.37661 57.1575 13.2466 56.7882 17.7743C56.0513 26.8085 53.614 38.5836 46.7354 49.255C39.4789 60.5127 37.4087 72.5827 37.3042 82.3755L46.4757 81.098L37.7984 102.5L23.6025 84.2841L33.3004 82.9332C33.3319 72.5332 35.4405 59.3949 43.3734 47.0879C49.7713 37.1622 52.0957 26.1015 52.8015 17.4491C53.1535 13.1336 53.1003 9.44758 52.9598 6.84742C52.8896 5.54818 52.7977 4.52245 52.7243 3.82757C52.6876 3.4802 52.6556 3.21573 52.6331 3.04132C52.6219 2.95413 52.6131 2.88947 52.6074 2.84825L52.6012 2.80412L52.6 2.79583L52.5999 2.79545L52.5998 2.79488C52.4369 1.70284 53.1898 0.685271 54.2819 0.521816Z" fill="#53BBF3"/>
<path fill-rule="evenodd" clip-rule="evenodd" d="M29.5602 0.519315C30.654 0.365237 31.6656 1.12701 31.8197 2.22078L29.8392 2.49976C31.8197 2.22078 31.8198 2.22146 31.8199 2.22223L31.8202 2.22426L31.821 2.23004L31.8235 2.24844L31.832 2.31236C31.8392 2.3669 31.8491 2.44516 31.8614 2.54625C31.8858 2.74841 31.9192 3.04191 31.9568 3.41951C32.0319 4.17459 32.1236 5.26676 32.1933 6.63793C32.3327 9.37867 32.3846 13.2432 32.0375 17.7648C31.3451 26.7845 29.055 38.5452 22.5858 49.2088C15.7503 60.4761 13.7978 72.5638 13.6993 82.3744L22.8984 81.1695L14.0467 102.5L0 84.1688L9.69577 82.8988C9.7296 72.5224 11.7139 59.4176 19.166 47.134C25.1923 37.2006 27.3839 26.1254 28.0493 17.4586C28.381 13.1369 28.3309 9.44548 28.1985 6.84107C28.1323 5.53967 28.0457 4.51196 27.9764 3.81532C27.9418 3.46706 27.9115 3.20174 27.8903 3.02653C27.8797 2.93894 27.8714 2.87389 27.8659 2.83228L27.86 2.78758L27.8588 2.77874L27.8588 2.77864L27.8587 2.77786C27.7051 1.68443 28.4668 0.673351 29.5602 0.519315Z" fill="#53BBF3"/>
</svg>
