<svg width="128" height="126" viewBox="0 0 128 126" fill="none" xmlns="http://www.w3.org/2000/svg">
<path d="M117.935 23.9999C117.935 31.6963 111.696 37.9354 104 37.9354C96.3036 37.9354 90.0645 31.6963 90.0645 23.9999C90.0645 16.3036 96.3036 10.0645 104 10.0645C111.696 10.0645 117.935 16.3036 117.935 23.9999Z" fill="#F92D00"/>
<path fill-rule="evenodd" clip-rule="evenodd" d="M104 3.38411e-08C104.427 5.2531e-08 104.774 0.346618 104.774 0.774194L104.774 5.41935C104.774 5.84693 104.427 6.19355 104 6.19355C103.572 6.19355 103.226 5.84693 103.226 5.41935L103.226 0.774194C103.226 0.346618 103.572 1.51512e-08 104 3.38411e-08Z" fill="#F92D00"/>
<path fill-rule="evenodd" clip-rule="evenodd" d="M104 41.8066C104.427 41.8066 104.774 42.1533 104.774 42.5808L104.774 47.226C104.774 47.6536 104.427 48.0002 104 48.0002C103.572 48.0002 103.226 47.6536 103.226 47.226L103.226 42.5808C103.226 42.1533 103.572 41.8066 104 41.8066Z" fill="#F92D00"/>
<path fill-rule="evenodd" clip-rule="evenodd" d="M128 23.9998C128 24.4274 127.653 24.774 127.226 24.774L122.581 24.774C122.153 24.774 121.806 24.4274 121.806 23.9998C121.806 23.5722 122.153 23.2256 122.581 23.2256L127.226 23.2256C127.653 23.2256 128 23.5722 128 23.9998Z" fill="#F92D00"/>
<path fill-rule="evenodd" clip-rule="evenodd" d="M86.1934 23.9998C86.1934 24.4274 85.8467 24.774 85.4192 24.774L80.774 24.774C80.3464 24.774 79.9998 24.4274 79.9998 23.9998C79.9998 23.5722 80.3464 23.2256 80.774 23.2256L85.4192 23.2256C85.8467 23.2256 86.1934 23.5722 86.1934 23.9998Z" fill="#F92D00"/>
<path fill-rule="evenodd" clip-rule="evenodd" d="M124.785 12.0001C124.998 12.3704 124.871 12.8438 124.501 13.0576L120.478 15.3802C120.108 15.594 119.635 15.4671 119.421 15.0968C119.207 14.7265 119.334 14.2531 119.704 14.0393L123.727 11.7167C124.097 11.5029 124.571 11.6298 124.785 12.0001Z" fill="#F92D00"/>
<path fill-rule="evenodd" clip-rule="evenodd" d="M88.579 32.9034C88.7928 33.2737 88.6659 33.7472 88.2956 33.9609L84.2728 36.2835C83.9025 36.4973 83.429 36.3704 83.2152 36.0002C83.0014 35.6299 83.1283 35.1564 83.4986 34.9426L87.5214 32.62C87.8917 32.4062 88.3652 32.5331 88.579 32.9034Z" fill="#F92D00"/>
<path fill-rule="evenodd" clip-rule="evenodd" d="M116 3.21571C116.37 3.4295 116.497 3.90299 116.283 4.27328L113.961 8.29611C113.747 8.6664 113.274 8.79327 112.903 8.57948C112.533 8.36569 112.406 7.8922 112.62 7.52191L114.942 3.49908C115.156 3.12879 115.63 3.00192 116 3.21571Z" fill="#F92D00"/>
<path fill-rule="evenodd" clip-rule="evenodd" d="M95.0967 39.4213C95.467 39.6351 95.5939 40.1086 95.3801 40.4788L93.0575 44.5017C92.8437 44.872 92.3703 44.9988 92 44.785C91.6297 44.5713 91.5028 44.0978 91.7166 43.7275L94.0392 39.7047C94.253 39.3344 94.7264 39.2075 95.0967 39.4213Z" fill="#F92D00"/>
<path fill-rule="evenodd" clip-rule="evenodd" d="M92.0001 3.21544C92.3704 3.00165 92.8438 3.12853 93.0576 3.49882L95.3802 7.52164C95.594 7.89194 95.4671 8.36543 95.0968 8.57921C94.7265 8.793 94.2531 8.66613 94.0393 8.29584L91.7167 4.27301C91.5029 3.90272 91.6298 3.42923 92.0001 3.21544Z" fill="#F92D00"/>
<path fill-rule="evenodd" clip-rule="evenodd" d="M112.903 39.4215C113.274 39.2077 113.747 39.3346 113.961 39.7049L116.284 43.7277C116.497 44.098 116.37 44.5715 116 44.7853C115.63 44.9991 115.156 44.8722 114.943 44.5019L112.62 40.4791C112.406 40.1088 112.533 39.6353 112.903 39.4215Z" fill="#F92D00"/>
<path fill-rule="evenodd" clip-rule="evenodd" d="M83.2157 11.9999C83.4295 11.6296 83.903 11.5028 84.2733 11.7166L88.2961 14.0391C88.6664 14.2529 88.7933 14.7264 88.5795 15.0967C88.3657 15.467 87.8922 15.5939 87.5219 15.3801L83.4991 13.0575C83.1288 12.8437 83.0019 12.3702 83.2157 11.9999Z" fill="#F92D00"/>
<path fill-rule="evenodd" clip-rule="evenodd" d="M119.421 32.9033C119.635 32.533 120.109 32.4061 120.479 32.6199L124.502 34.9425C124.872 35.1563 124.999 35.6297 124.785 36C124.571 36.3703 124.098 36.4972 123.727 36.2834L119.705 33.9608C119.334 33.747 119.207 33.2736 119.421 32.9033Z" fill="#F92D00"/>
<path d="M0 83.5023C5.1201 82.8127 18.8779 85.1931 22.0408 80.7268C23.3944 78.8156 20.7607 73.3975 22.0408 71.584C23.7319 69.1879 25.7092 67.7622 27.102 65.2166C27.102 65.2166 16.2963 64.1233 9.79592 66.8493C4.73469 68.9717 0 66.3595 0 66.3595V73.3799V83.5023Z" fill="#53BBF3"/>
<path d="M0 83.5206V91.9923C22.8541 91.9923 44.6681 87.5675 66.3032 80.4796C71.2868 78.8469 76.2672 77.1923 81.2214 75.4755C82.9353 74.8815 85.7406 74.555 86.8571 73.094C79.7693 72.7903 73.8239 67.4772 66.9662 66.6376C62.0876 66.0403 57.7481 67.8956 53.0425 68.7069C49.0783 69.3909 44.755 69.1999 40.7764 68.8024C36.3298 68.3583 30.3121 64.3672 25.9146 65.3812C23.7371 65.8829 19.1987 69.0191 18.4938 71.139C17.8071 73.2038 18.4876 75.6886 16.6531 77.6556C12.6768 81.9192 5.5335 82.3981 0 83.5206Z" fill="#DDEFFD"/>
<path d="M0 91.9922V125.625H39.8367H58.6122C59.8034 125.291 59.6114 123.87 60.4375 123.042C62.0836 121.392 64.0212 120.046 65.9592 118.769C73.4403 113.836 82.8513 110.362 89.0485 103.718C95.0916 97.2389 90.0937 92.1039 89.809 84.8085C89.5628 78.5 105.234 73.4365 110.531 70.931C99.102 69.4616 93.3215 71.1694 90.449 71.9361C83.1481 73.8851 76.0767 76.7556 68.898 79.1488C46.3229 86.6737 23.905 91.9922 0 91.9922Z" fill="#53BBF3"/>
<path d="M58.4492 125.625H128V73.008C116.18 73.008 95.7201 63.8073 90.3673 80.2428C87.5473 88.9018 96.1593 95.8502 88.7607 103.562C83.069 109.495 74.8499 113.061 67.9186 117.272C64.523 119.335 60.06 121.793 58.4492 125.625Z" fill="#DDEFFD"/>
</svg>
