<svg width="409" height="720" viewBox="0 0 409 720" fill="none" xmlns="http://www.w3.org/2000/svg">
<path d="M183.717 250.027L109.715 244.305L577.613 3.52554L582.727 41.6844L520.775 53.0133L523.896 76.3051L457.685 80.1333L468.331 106.957L391.06 117.312L394.978 146.55L320.774 147.414L321.025 185.72L253.417 183.177L257.601 214.398L182.933 211.793L183.717 250.027Z" fill="#D5F7DD"/>
<path d="M216.786 172.951L142.785 167.229L610.682 -73.5506L615.796 -35.3917L553.844 -24.0629L556.966 -0.7711L490.754 3.05711L501.401 29.8806L424.129 40.2357L428.047 69.4743L353.844 70.3377L354.095 108.644L286.487 106.101L290.671 137.322L216.002 134.716L216.786 172.951Z" fill="#D5F7DD"/>
<path d="M228.539 98.7322L154.538 93.0104L622.436 -147.769L627.55 -109.61L565.598 -98.2816L568.719 -74.9898L502.507 -71.1616L513.154 -44.3381L435.883 -33.9831L439.801 -4.74446L365.597 -3.88102L365.848 34.425L298.24 31.8822L302.424 63.1032L227.755 60.4976L228.539 98.7322Z" fill="#D5F7DD"/>
<path d="M159.174 325.959L85.1724 320.237L553.07 79.4572L558.184 117.616L496.232 128.945L499.353 152.237L433.142 156.065L443.788 182.888L366.517 193.243L370.435 222.482L296.231 223.346L296.482 261.652L228.874 259.109L233.058 290.33L158.39 287.724L159.174 325.959Z" fill="#D5F7DD"/>
<path d="M157.013 398.892L83.0117 393.171L550.91 152.391L556.023 190.55L494.071 201.879L497.193 225.17L430.981 228.999L441.628 255.822L364.356 266.177L368.274 295.416L294.071 296.279L294.322 334.585L226.714 332.042L230.898 363.263L156.229 360.658L157.013 398.892Z" fill="#D5F7DD"/>
<path d="M145.26 473.111L71.2583 467.389L539.156 226.61L544.27 264.768L482.318 276.097L485.439 299.389L419.228 303.217L429.874 330.041L352.603 340.396L356.521 369.634L282.317 370.498L282.568 408.804L214.96 406.261L219.144 437.482L144.476 434.877L145.26 473.111Z" fill="#D5F7DD"/>
<path d="M154.823 544.474L80.8213 538.753L548.719 297.973L553.833 336.132L491.881 347.461L495.002 370.752L428.791 374.581L439.437 401.404L362.166 411.759L366.084 440.998L291.88 441.861L292.131 480.167L224.523 477.624L228.707 508.845L154.039 506.24L154.823 544.474Z" fill="#D5F7DD"/>
<path d="M185.702 612.978L111.701 607.257L579.599 366.477L584.712 404.636L522.76 415.964L525.882 439.256L459.67 443.084L470.317 469.908L393.045 480.263L396.963 509.502L322.76 510.365L323.011 548.671L255.403 546.128L259.587 577.349L184.918 574.744L185.702 612.978Z" fill="#D5F7DD"/>
<path d="M206.989 682.771L132.988 677.05L600.886 436.27L605.999 474.429L544.047 485.757L547.169 509.049L480.957 512.877L491.604 539.701L414.332 550.056L418.25 579.295L344.047 580.158L344.298 618.464L276.69 615.921L280.874 647.142L206.205 644.537L206.989 682.771Z" fill="#D5F7DD"/>
<path d="M250.658 749.56L176.657 743.839L644.555 503.059L649.669 541.218L587.717 552.546L590.838 575.838L524.627 579.666L535.273 606.49L458.002 616.845L461.92 646.084L387.716 646.947L387.967 685.253L320.359 682.71L324.543 713.931L249.875 711.326L250.658 749.56Z" fill="#D5F7DD"/>
<path d="M302.854 815.209L228.853 809.487L696.75 568.707L701.864 606.866L639.912 618.195L643.034 641.487L576.822 645.315L587.469 672.138L510.197 682.493L514.115 711.732L439.912 712.596L440.163 750.902L372.555 748.359L376.738 779.58L302.07 776.974L302.854 815.209Z" fill="#D5F7DD"/>
<path d="M333.733 883.717L259.732 877.995L727.63 637.215L732.743 675.374L670.792 686.703L673.913 709.995L607.701 713.823L618.348 740.646L541.076 751.001L544.995 780.24L470.791 781.103L471.042 819.409L403.434 816.867L407.618 848.088L332.949 845.482L333.733 883.717Z" fill="#D5F7DD"/>
</svg>
