<svg width="898" height="187" viewBox="0 0 898 187" fill="none" xmlns="http://www.w3.org/2000/svg">
<g filter="url(#filter0_f_579_672)">
<path d="M887.732 144.336C887.705 69.4858 828.706 7.19177 753.926 10.428C605.587 16.8475 499.07 42.4987 359.469 37.3979C269.473 34.1091 83.4051 24.1214 31.4335 21.2994C22.2063 20.7984 12.9849 21.0435 3.96893 23.0693C-165.522 61.1541 -181.204 329.857 -372.863 329.839C-402.631 329.835 -435.869 324.369 -459.272 342.766C-469.559 350.853 -476.308 362.585 -481.751 374.485C-506.841 429.349 -508.747 491.578 -510.228 551.889C-511.673 610.695 -458.623 659.147 -400.939 670.674C-331.171 684.616 -261.445 709.724 -191.088 701.698C-162.761 698.467 -135.349 689.921 -108.137 681.417C-62.2506 667.079 -12.2999 644.347 35.2507 640.347C73.9254 637.095 114.355 640.378 153.185 640.378H403.019H812.012C853.923 640.378 887.895 606.394 887.88 564.483L887.732 144.336Z" fill="#187A60"/>
<mask id="mask0_579_672" style="mask-type:alpha" maskUnits="userSpaceOnUse" x="-511" y="10" width="1399" height="694">
<path d="M887.732 144.336C887.705 69.4858 828.706 7.19177 753.926 10.428C605.587 16.8475 499.07 42.4987 359.469 37.3979C261.99 33.8356 51.8018 22.4144 21.3837 20.7521C18.8248 20.6123 16.2486 20.5456 13.686 20.5634C-327.326 22.94 -176.919 329.858 -372.863 329.839C-402.631 329.835 -435.869 324.369 -459.272 342.766C-469.559 350.853 -476.308 362.585 -481.751 374.485C-506.841 429.349 -508.747 491.578 -510.228 551.889C-511.673 610.695 -458.623 659.147 -400.939 670.674C-331.171 684.616 -261.445 709.724 -191.088 701.698C-162.761 698.467 -135.349 689.921 -108.137 681.417C-62.2506 667.079 -12.2999 644.347 35.2507 640.347C73.9254 637.095 114.355 640.378 153.185 640.378H403.019H812.012C853.923 640.378 887.895 606.394 887.88 564.483L887.732 144.336Z" fill="#187A60"/>
</mask>
<g mask="url(#mask0_579_672)">
<path d="M570.393 688.824C476.559 688.236 394.523 686.358 379.534 686.062C341.957 685.322 304.377 684.581 266.798 683.84C78.2578 680.121 -110.657 676.409 -298.765 686.585C-317.261 631.466 -335.876 575.612 -334.968 518.818C-334.062 462.023 -311.422 403.235 -257.602 362.801C-233.978 345.052 -205.273 331.451 -175.64 319.647C-40.4526 265.801 105.627 263.027 248.464 258.569C371.688 254.724 556.371 265.259 660.138 184.342C681.158 167.95 726.62 122.699 723.693 94.2764C722.837 85.9561 718.98 78.2238 714.052 71.5969C690.804 40.3291 657.324 44.1772 623.768 45.1332C467.58 49.584 303.484 75.387 147.5 68C93.2957 65.4319 -127.5 34 60.3734 -0.499573L892 -11C892 -11 886.449 611.853 886.081 672.069C886.081 687.596 714.352 689.727 570.393 688.824Z" fill="#259E7B"/>
</g>
</g>
<defs>
<filter id="filter0_f_579_672" x="-520.257" y="0.306641" width="1418.14" height="712.939" filterUnits="userSpaceOnUse" color-interpolation-filters="sRGB">
<feFlood flood-opacity="0" result="BackgroundImageFix"/>
<feBlend mode="normal" in="SourceGraphic" in2="BackgroundImageFix" result="shape"/>
<feGaussianBlur stdDeviation="5" result="effect1_foregroundBlur_579_672"/>
</filter>
</defs>
</svg>
