<?xml version="1.0" standalone="no"?>
<!DOCTYPE svg PUBLIC "-//W3C//DTD SVG 20010904//EN"
 "http://www.w3.org/TR/2001/REC-SVG-20010904/DTD/svg10.dtd">
<svg version="1.0" xmlns="http://www.w3.org/2000/svg"
 width="420.000000pt" height="420.000000pt" viewBox="0 0 420.000000 420.000000"
 preserveAspectRatio="xMidYMid meet">
<metadata>
Created by potrace 1.14, written by Peter Selinger 2001-2017
</metadata>
<g transform="translate(0.000000,420.000000) scale(0.100000,-0.100000)"
fill="#000000" stroke="none">
<path d="M3284 3978 c-14 -23 -11 -150 4 -165 10 -10 18 -11 25 -4 10 10 17
143 9 169 -5 15 -29 16 -38 0z"/>
<path d="M2934 3885 c-3 -7 0 -25 8 -38 7 -13 23 -43 36 -66 23 -43 43 -58 61
-47 12 8 0 39 -41 108 -31 49 -55 66 -64 43z"/>
<path d="M3632 3887 c-26 -32 -72 -120 -72 -138 0 -39 34 -15 72 51 21 36 38
70 38 76 0 17 -27 25 -38 11z"/>
<path d="M3182 3669 c-82 -27 -121 -50 -175 -104 -238 -238 -115 -637 216
-705 256 -52 501 157 493 422 -4 113 -43 203 -125 284 -107 108 -271 149 -409
103z"/>
<path d="M2676 3625 c-5 -15 27 -41 101 -78 84 -44 83 1 -2 54 -66 41 -90 47
-99 24z"/>
<path d="M3840 3609 c-66 -37 -85 -53 -76 -68 11 -17 33 -13 76 14 22 14 44
25 49 25 14 0 41 41 35 52 -9 14 -27 9 -84 -23z"/>
<path d="M2603 3292 c-25 -4 -30 -24 -10 -39 20 -15 158 -8 168 8 5 8 4 18 -1
23 -10 10 -111 14 -157 8z"/>
<path d="M3843 3281 c-24 -23 1 -34 83 -35 62 -1 79 3 88 16 16 26 2 31 -81
32 -53 1 -81 -3 -90 -13z"/>
<path d="M2741 2975 c-71 -44 -78 -52 -63 -67 18 -18 162 58 162 84 0 27 -38
21 -99 -17z"/>
<path d="M3760 2995 c0 -15 52 -52 115 -82 28 -14 38 -14 48 -4 10 10 6 17
-18 37 -16 13 -34 24 -40 24 -5 0 -21 9 -35 20 -30 23 -70 26 -70 5z"/>
<path d="M2971 2744 c-22 -36 -41 -71 -41 -79 0 -26 29 -24 48 3 38 56 69 117
65 130 -10 26 -32 9 -72 -54z"/>
<path d="M3558 2798 c-6 -16 68 -144 88 -152 30 -12 25 26 -12 92 -37 64 -67
88 -76 60z"/>
<path d="M3283 2728 c-10 -18 -11 -139 -1 -160 10 -21 38 -24 39 -5 7 109 3
160 -13 168 -11 6 -19 5 -25 -3z"/>
<path d="M624 2024 c-39 -7 -109 -25 -154 -40 -69 -22 -93 -26 -150 -21 -37 3
-84 12 -104 21 l-36 15 0 -889 0 -889 1920 0 1920 0 0 789 0 790 -32 1 c-62 3
-103 7 -173 19 -38 6 -79 13 -90 15 -11 1 -54 7 -95 14 -41 6 -91 14 -110 17
-19 3 -116 7 -215 9 -194 4 -259 -4 -443 -51 -94 -25 -107 -26 -160 -15 -55
13 -226 76 -248 92 -5 5 -50 24 -100 43 -121 47 -212 60 -304 43 -25 -4 -58
-10 -75 -13 -16 -3 -64 -14 -105 -24 -202 -51 -436 -45 -611 16 -57 20 -126
43 -154 51 -67 20 -384 25 -481 7z"/>
</g>
</svg>
