<svg width="116" height="85" viewBox="0 0 116 85" fill="none" xmlns="http://www.w3.org/2000/svg">
<path fill-rule="evenodd" clip-rule="evenodd" d="M80.0031 39.3541C80.4677 40.5746 79.8549 41.9406 78.6344 42.4051L44.467 55.41C43.2466 55.8745 41.8806 55.2617 41.416 54.0412C40.9515 52.8208 41.5643 51.4548 42.7848 50.9903L76.9521 37.9854C78.1726 37.5208 79.5386 38.1336 80.0031 39.3541Z" fill="#53BBF3"/>
<path fill-rule="evenodd" clip-rule="evenodd" d="M70.1427 25.8586C70.4882 27.118 69.7474 28.419 68.488 28.7645L2.99075 46.7349C1.7314 47.0804 0.43039 46.3396 0.0848647 45.0803C-0.260661 43.8209 0.48014 42.5199 1.73949 42.1744L67.2368 24.204C68.4961 23.8585 69.7971 24.5993 70.1427 25.8586Z" fill="#53BBF3"/>
<path d="M115.744 26.3644C115.744 40.9251 103.941 52.7289 89.3801 52.7289C74.8194 52.7289 63.0156 40.9251 63.0156 26.3644C63.0156 11.8038 74.8194 0 89.3801 0C103.941 0 115.744 11.8038 115.744 26.3644Z" fill="#0863B8"/>
<path fill-rule="evenodd" clip-rule="evenodd" d="M88.2759 2.16832C88.514 3.45233 87.666 4.68619 86.382 4.92423L20.0572 17.2197C18.7732 17.4578 17.5393 16.6098 17.3013 15.3258C17.0632 14.0418 17.9112 12.808 19.1952 12.5699L85.52 0.274407C86.804 0.0363725 88.0379 0.884305 88.2759 2.16832Z" fill="#53BBF3"/>
<path fill-rule="evenodd" clip-rule="evenodd" d="M103.886 45.7157C104.494 46.8715 104.05 48.3012 102.894 48.909L36.569 83.7857C35.4132 84.3935 33.9835 83.9492 33.3757 82.7934C32.7679 81.6376 33.2122 80.2079 34.368 79.6001L100.693 44.7234C101.849 44.1156 103.278 44.5598 103.886 45.7157Z" fill="#53BBF3"/>
</svg>
