<svg width="116" height="85" viewBox="0 0 116 85" fill="none" xmlns="http://www.w3.org/2000/svg">
<path fill-rule="evenodd" clip-rule="evenodd" d="M80.0034 39.3536C80.4679 40.5741 79.8551 41.9401 78.6346 42.4046L44.4673 55.4095C43.2468 55.874 41.8808 55.2612 41.4163 54.0407C40.9517 52.8203 41.5646 51.4543 42.785 50.9898L76.9524 37.9849C78.1729 37.5204 79.5388 38.1332 80.0034 39.3536Z" fill="#DDEFFD"/>
<path fill-rule="evenodd" clip-rule="evenodd" d="M70.1427 25.8581C70.4882 27.1175 69.7474 28.4185 68.488 28.764L2.99075 46.7344C1.7314 47.0799 0.43039 46.3391 0.0848646 45.0798C-0.260661 43.8204 0.48014 42.5194 1.73949 42.1739L67.2368 24.2035C68.4961 23.858 69.7971 24.5988 70.1427 25.8581Z" fill="#DDEFFD"/>
<path d="M115.744 26.3644C115.744 40.9251 103.941 52.7289 89.3801 52.7289C74.8194 52.7289 63.0156 40.9251 63.0156 26.3644C63.0156 11.8038 74.8194 0 89.3801 0C103.941 0 115.744 11.8038 115.744 26.3644Z" fill="#53BBF3"/>
<path fill-rule="evenodd" clip-rule="evenodd" d="M88.2759 2.16832C88.514 3.45233 87.666 4.68619 86.382 4.92423L20.0572 17.2197C18.7732 17.4578 17.5393 16.6098 17.3013 15.3258C17.0632 14.0418 17.9112 12.808 19.1952 12.5699L85.52 0.274407C86.804 0.0363725 88.0379 0.884305 88.2759 2.16832Z" fill="#DDEFFD"/>
<path fill-rule="evenodd" clip-rule="evenodd" d="M103.886 45.7152C104.494 46.871 104.05 48.3007 102.894 48.9085L36.569 83.7852C35.4132 84.393 33.9835 83.9487 33.3757 82.7929C32.7679 81.6371 33.2122 80.2074 34.368 79.5996L100.693 44.7229C101.849 44.1151 103.278 44.5594 103.886 45.7152Z" fill="#DDEFFD"/>
</svg>
