<svg width="120" height="120" viewBox="0 0 120 120" fill="none" xmlns="http://www.w3.org/2000/svg">
<circle cx="60.0002" cy="60.0002" r="48.3889" stroke="#53BBF3" stroke-opacity="0.2"/>
<circle cx="60" cy="60" r="59" stroke="#0863B8" stroke-width="2"/>
<circle cx="59.9999" cy="60.0009" r="35.0556" stroke="#53BBF3" stroke-opacity="0.2"/>
<circle cx="60.0001" cy="59.9996" r="21.7222" stroke="#53BBF3" stroke-opacity="0.2"/>
<path d="M60 120V0" stroke="#0863B8" stroke-width="2"/>
<path d="M60.0002 61.1115L86 15" stroke="#0863B8" stroke-width="2" stroke-linecap="round"/>
<path d="M-6.79493e-06 61.1113L120 61.1113" stroke="#0863B8" stroke-width="2"/>
<rect x="20" y="62" width="36" height="36" rx="18" fill="white"/>
<path d="M47 80C47 84.9706 42.9706 89 38 89C33.0294 89 29 84.9706 29 80C29 75.0294 33.0294 71 38 71C42.9706 71 47 75.0294 47 80Z" fill="#F9AE00"/>
<path fill-rule="evenodd" clip-rule="evenodd" d="M38 64.5C38.2761 64.5 38.5 64.7239 38.5 65L38.5 68C38.5 68.2761 38.2761 68.5 38 68.5C37.7239 68.5 37.5 68.2761 37.5 68L37.5 65C37.5 64.7239 37.7239 64.5 38 64.5Z" fill="#F9AE00"/>
<path fill-rule="evenodd" clip-rule="evenodd" d="M38 91.5C38.2761 91.5 38.5 91.7239 38.5 92L38.5 95C38.5 95.2761 38.2761 95.5 38 95.5C37.7239 95.5 37.5 95.2761 37.5 95L37.5 92C37.5 91.7239 37.7239 91.5 38 91.5Z" fill="#F9AE00"/>
<path fill-rule="evenodd" clip-rule="evenodd" d="M53.5 80C53.5 80.2761 53.2761 80.5 53 80.5L50 80.5C49.7239 80.5 49.5 80.2761 49.5 80C49.5 79.7239 49.7239 79.5 50 79.5L53 79.5C53.2761 79.5 53.5 79.7239 53.5 80Z" fill="#F9AE00"/>
<path fill-rule="evenodd" clip-rule="evenodd" d="M26.5 80C26.5 80.2761 26.2761 80.5 26 80.5L23 80.5C22.7239 80.5 22.5 80.2761 22.5 80C22.5 79.7239 22.7239 79.5 23 79.5L26 79.5C26.2761 79.5 26.5 79.7239 26.5 80Z" fill="#F9AE00"/>
<path fill-rule="evenodd" clip-rule="evenodd" d="M51.4233 72.2494C51.5614 72.4886 51.4795 72.7944 51.2403 72.9324L48.6423 74.4324C48.4031 74.5705 48.0973 74.4886 47.9592 74.2494C47.8212 74.0103 47.9031 73.7045 48.1423 73.5664L50.7403 72.0664C50.9795 71.9283 51.2853 72.0103 51.4233 72.2494Z" fill="#F9AE00"/>
<path fill-rule="evenodd" clip-rule="evenodd" d="M28.0405 85.7494C28.1786 85.9886 28.0967 86.2944 27.8575 86.4324L25.2594 87.9324C25.0203 88.0705 24.7145 87.9886 24.5764 87.7494C24.4384 87.5103 24.5203 87.2045 24.7594 87.0664L27.3575 85.5664C27.5967 85.4283 27.9025 85.5103 28.0405 85.7494Z" fill="#F9AE00"/>
<path fill-rule="evenodd" clip-rule="evenodd" d="M45.7499 66.5762C45.9891 66.7142 46.071 67.02 45.9329 67.2592L44.4329 69.8573C44.2948 70.0964 43.9891 70.1783 43.7499 70.0403C43.5108 69.9022 43.4288 69.5964 43.5669 69.3573L45.0669 66.7592C45.205 66.52 45.5108 66.4381 45.7499 66.5762Z" fill="#F9AE00"/>
<path fill-rule="evenodd" clip-rule="evenodd" d="M32.2499 89.959C32.4891 90.0971 32.571 90.4029 32.4329 90.642L30.9329 93.2401C30.7948 93.4792 30.4891 93.5612 30.2499 93.4231C30.0108 93.285 29.9288 92.9792 30.0669 92.7401L31.5669 90.142C31.705 89.9029 32.0108 89.8209 32.2499 89.959Z" fill="#F9AE00"/>
<path fill-rule="evenodd" clip-rule="evenodd" d="M30.2499 66.5762C30.4891 66.4381 30.7948 66.52 30.9329 66.7592L32.4329 69.3573C32.571 69.5964 32.4891 69.9022 32.2499 70.0403C32.0108 70.1783 31.705 70.0964 31.5669 69.8573L30.0669 67.2592C29.9288 67.02 30.0108 66.7142 30.2499 66.5762Z" fill="#F9AE00"/>
<path fill-rule="evenodd" clip-rule="evenodd" d="M43.7504 89.959C43.9895 89.8209 44.2953 89.9029 44.4334 90.142L45.9334 92.7401C46.0715 92.9792 45.9895 93.285 45.7504 93.4231C45.5112 93.5612 45.2055 93.4792 45.0674 93.2401L43.5674 90.642C43.4293 90.4029 43.5112 90.0971 43.7504 89.959Z" fill="#F9AE00"/>
<path fill-rule="evenodd" clip-rule="evenodd" d="M24.5767 72.2506C24.7147 72.0114 25.0205 71.9295 25.2597 72.0676L27.8577 73.5676C28.0969 73.7056 28.1788 74.0114 28.0408 74.2506C27.9027 74.4897 27.5969 74.5717 27.3577 74.4336L24.7597 72.9336C24.5205 72.7955 24.4386 72.4897 24.5767 72.2506Z" fill="#F9AE00"/>
<path fill-rule="evenodd" clip-rule="evenodd" d="M47.9595 85.7506C48.0975 85.5114 48.4033 85.4295 48.6425 85.5676L51.2406 87.0676C51.4797 87.2056 51.5616 87.5114 51.4236 87.7506C51.2855 87.9897 50.9797 88.0717 50.7406 87.9336L48.1425 86.4336C47.9033 86.2955 47.8214 85.9897 47.9595 85.7506Z" fill="#F9AE00"/>
<rect x="73" y="40" width="36" height="36" rx="18" fill="white"/>
<path fill-rule="evenodd" clip-rule="evenodd" d="M102 55C102 55.0277 102 55.0553 101.999 55.0829C104.837 55.5587 107 58.0268 107 61C107 63.973 104.838 66.441 102 66.917V67H101H82H81V66.917C78.1623 66.441 76 63.973 76 61C76 57.6863 78.6863 55 82 55C82.2624 55 82.5209 55.0168 82.7744 55.0495C83.8046 53.2288 85.7588 52 88 52C88.9 52 89.7537 52.1982 90.5199 52.5532C91.4563 50.4592 93.5578 49 96 49C99.3137 49 102 51.6863 102 55Z" fill="#53BBF3"/>
<rect x="20" y="18" width="36" height="36" rx="18" fill="white"/>
<path fill-rule="evenodd" clip-rule="evenodd" d="M49 33C49 33.0277 48.9998 33.0553 48.9994 33.0829C51.8374 33.5587 54 36.0268 54 39C54 41.973 51.8377 44.441 49 44.917V45H48H29H28V44.917C25.1623 44.441 23 41.973 23 39C23 35.6863 25.6863 33 29 33C29.2624 33 29.5209 33.0168 29.7744 33.0495C30.8046 31.2288 32.7588 30 35 30C35.9 30 36.7537 30.1982 37.5199 30.5532C38.4563 28.4592 40.5578 27 43 27C46.3137 27 49 29.6863 49 33Z" fill="#53BBF3"/>
</svg>
