<svg width="74" height="120" viewBox="0 0 74 120" fill="none" xmlns="http://www.w3.org/2000/svg">
<path d="M69 120H74V57H69V120Z" fill="#0863B8"/>
<path d="M2.22217 120H8.88882V57.2223H2.22217V120Z" fill="#0863B8"/>
<path d="M70.8622 13.7673H5.66455V73.6035H70.8622V13.7673Z" fill="#0863B8"/>
<path d="M67.2979 15.8139H8.70217V71.1861H67.2979V15.8139ZM2 11H74V76H2V11Z" fill="#0863B8"/>
<path d="M37.3869 0L74 11H50.5L25 0H37.3869Z" fill="#0863B8"/>
<path d="M11.5215 24.8691H65.0058V21.3506H11.5215V24.8691Z" fill="#0863B8"/>
<path d="M11.5215 31.7188H65.0058V28.2002H11.5215V31.7188Z" fill="#0863B8"/>
<path d="M11.5215 38.5684H65.0058V35.0498H11.5215V38.5684Z" fill="#0863B8"/>
<path d="M11.5215 45.416H65.0058V41.8975H11.5215V45.416Z" fill="#0863B8"/>
<path d="M11.5215 52.2676H65.0058V48.7491H11.5215V52.2676Z" fill="#0863B8"/>
<path d="M11.5215 59.1172H65.0058V55.5987H11.5215V59.1172Z" fill="#0863B8"/>
<path d="M11.5215 65.9648H65.0058V62.4463H11.5215V65.9648Z" fill="#0863B8"/>
<path d="M46.6665 120H51.6665V57.2223H46.6665V120Z" fill="#53BBF3"/>
<path d="M0 120H4.99999V57.2223H0V120Z" fill="#53BBF3"/>
<path d="M49.1058 13.7673H2.47705V73.6035H49.1058V13.7673Z" fill="#53BBF3"/>
<path d="M46.7123 16.1599H4.86946V71.2102H46.7123V16.1599ZM0.0834961 11.374H51.4982V75.9961H0.0834961V11.374Z" fill="#53BBF3"/>
<path d="M25.4097 -0.000867844L51.4541 11.3828H0.0527344L25.4097 -0.000867844Z" fill="#53BBF3"/>
<path d="M6.66504 24.8691H44.9168V21.3506H6.66504V24.8691Z" fill="#0863B8"/>
<path d="M6.66504 31.7188H44.9168V28.2002H6.66504V31.7188Z" fill="#0863B8"/>
<path d="M6.66504 38.5684H44.9168V35.0498H6.66504V38.5684Z" fill="#0863B8"/>
<path d="M6.66504 45.416H44.9168V41.8975H6.66504V45.416Z" fill="#0863B8"/>
<path d="M6.66504 52.2676H44.9168V48.7491H6.66504V52.2676Z" fill="#0863B8"/>
<path d="M6.66504 59.1172H44.9168V55.5987H6.66504V59.1172Z" fill="#0863B8"/>
<path d="M6.66504 65.9648H44.9168V62.4463H6.66504V65.9648Z" fill="#0863B8"/>
</svg>
