<svg width="120" height="120" viewBox="0 0 120 120" fill="none" xmlns="http://www.w3.org/2000/svg">
<path d="M120 60C120 93.1371 93.1371 120 60 120C26.8629 120 0 93.1371 0 60C0 26.8629 26.8629 0 60 0C93.1371 0 120 26.8629 120 60Z" fill="#DDEFFD"/>
<path opacity="0.5" fill-rule="evenodd" clip-rule="evenodd" d="M59.8889 106.778C85.7849 106.778 106.778 85.7849 106.778 59.8889C106.778 33.9929 85.7849 13 59.8889 13C33.9929 13 13 33.9929 13 59.8889C13 85.7849 33.9929 106.778 59.8889 106.778ZM59.8889 108.778C86.8895 108.778 108.778 86.8895 108.778 59.8889C108.778 32.8883 86.8895 11 59.8889 11C32.8883 11 11 32.8883 11 59.8889C11 86.8895 32.8883 108.778 59.8889 108.778Z" fill="white"/>
<path opacity="0.5" fill-rule="evenodd" clip-rule="evenodd" d="M59.5556 93.1111C78.0878 93.1111 93.1111 78.0878 93.1111 59.5556C93.1111 41.0233 78.0878 26 59.5556 26C41.0233 26 26 41.0233 26 59.5556C26 78.0878 41.0233 93.1111 59.5556 93.1111ZM59.5556 95.1111C79.1923 95.1111 95.1111 79.1923 95.1111 59.5556C95.1111 39.9188 79.1923 24 59.5556 24C39.9188 24 24 39.9188 24 59.5556C24 79.1923 39.9188 95.1111 59.5556 95.1111Z" fill="white"/>
<path opacity="0.5" fill-rule="evenodd" clip-rule="evenodd" d="M60.2222 80.4444C71.3906 80.4444 80.4444 71.3906 80.4444 60.2222C80.4444 49.0538 71.3906 40 60.2222 40C49.0538 40 40 49.0538 40 60.2222C40 71.3906 49.0538 80.4444 60.2222 80.4444ZM60.2222 82.4444C72.4952 82.4444 82.4444 72.4952 82.4444 60.2222C82.4444 47.9492 72.4952 38 60.2222 38C47.9492 38 38 47.9492 38 60.2222C38 72.4952 47.9492 82.4444 60.2222 82.4444Z" fill="white"/>
<path d="M20 80C20 70.0589 28.0589 62 38 62V62C47.9411 62 56 70.0589 56 80V80C56 89.9411 47.9411 98 38 98V98C28.0589 98 20 89.9411 20 80V80Z" fill="white"/>
<path d="M47 80C47 84.9706 42.9706 89 38 89C33.0294 89 29 84.9706 29 80C29 75.0294 33.0294 71 38 71C42.9706 71 47 75.0294 47 80Z" fill="#F92D00"/>
<path fill-rule="evenodd" clip-rule="evenodd" d="M38 64.5C38.2761 64.5 38.5 64.7239 38.5 65L38.5 68C38.5 68.2761 38.2761 68.5 38 68.5C37.7239 68.5 37.5 68.2761 37.5 68L37.5 65C37.5 64.7239 37.7239 64.5 38 64.5Z" fill="#F92D00"/>
<path fill-rule="evenodd" clip-rule="evenodd" d="M38 91.5C38.2761 91.5 38.5 91.7239 38.5 92L38.5 95C38.5 95.2761 38.2761 95.5 38 95.5C37.7239 95.5 37.5 95.2761 37.5 95L37.5 92C37.5 91.7239 37.7239 91.5 38 91.5Z" fill="#F92D00"/>
<path fill-rule="evenodd" clip-rule="evenodd" d="M53.5 80C53.5 80.2761 53.2761 80.5 53 80.5L50 80.5C49.7239 80.5 49.5 80.2761 49.5 80C49.5 79.7239 49.7239 79.5 50 79.5L53 79.5C53.2761 79.5 53.5 79.7239 53.5 80Z" fill="#F92D00"/>
<path fill-rule="evenodd" clip-rule="evenodd" d="M26.5 80C26.5 80.2761 26.2761 80.5 26 80.5L23 80.5C22.7239 80.5 22.5 80.2761 22.5 80C22.5 79.7239 22.7239 79.5 23 79.5L26 79.5C26.2761 79.5 26.5 79.7239 26.5 80Z" fill="#F92D00"/>
<path fill-rule="evenodd" clip-rule="evenodd" d="M51.4233 72.2499C51.5614 72.4891 51.4795 72.7948 51.2403 72.9329L48.6423 74.4329C48.4031 74.571 48.0973 74.4891 47.9592 74.2499C47.8212 74.0108 47.9031 73.705 48.1423 73.5669L50.7403 72.0669C50.9795 71.9288 51.2853 72.0108 51.4233 72.2499Z" fill="#F92D00"/>
<path fill-rule="evenodd" clip-rule="evenodd" d="M28.0408 85.7499C28.1788 85.9891 28.0969 86.2948 27.8578 86.4329L25.2597 87.9329C25.0205 88.071 24.7147 87.9891 24.5767 87.7499C24.4386 87.5108 24.5205 87.205 24.7597 87.0669L27.3578 85.5669C27.5969 85.4288 27.9027 85.5108 28.0408 85.7499Z" fill="#F92D00"/>
<path fill-rule="evenodd" clip-rule="evenodd" d="M45.7499 66.5767C45.9891 66.7147 46.071 67.0205 45.9329 67.2597L44.4329 69.8577C44.2948 70.0969 43.9891 70.1788 43.7499 70.0408C43.5108 69.9027 43.4288 69.5969 43.5669 69.3577L45.0669 66.7597C45.205 66.5205 45.5108 66.4386 45.7499 66.5767Z" fill="#F92D00"/>
<path fill-rule="evenodd" clip-rule="evenodd" d="M32.2499 89.9595C32.4891 90.0975 32.571 90.4033 32.4329 90.6425L30.9329 93.2406C30.7948 93.4797 30.4891 93.5616 30.2499 93.4236C30.0108 93.2855 29.9288 92.9797 30.0669 92.7406L31.5669 90.1425C31.705 89.9033 32.0108 89.8214 32.2499 89.9595Z" fill="#F92D00"/>
<path fill-rule="evenodd" clip-rule="evenodd" d="M30.2499 66.5767C30.4891 66.4386 30.7948 66.5205 30.9329 66.7597L32.4329 69.3577C32.571 69.5969 32.4891 69.9027 32.2499 70.0408C32.0108 70.1788 31.705 70.0969 31.5669 69.8577L30.0669 67.2597C29.9288 67.0205 30.0108 66.7147 30.2499 66.5767Z" fill="#F92D00"/>
<path fill-rule="evenodd" clip-rule="evenodd" d="M43.7502 89.9595C43.9893 89.8214 44.2951 89.9033 44.4332 90.1425L45.9332 92.7406C46.0712 92.9797 45.9893 93.2855 45.7502 93.4236C45.511 93.5616 45.2052 93.4797 45.0671 93.2406L43.5671 90.6425C43.4291 90.4033 43.511 90.0975 43.7502 89.9595Z" fill="#F92D00"/>
<path fill-rule="evenodd" clip-rule="evenodd" d="M24.5767 72.2501C24.7147 72.0109 25.0205 71.929 25.2597 72.0671L27.8577 73.5671C28.0969 73.7052 28.1788 74.0109 28.0408 74.2501C27.9027 74.4892 27.5969 74.5712 27.3577 74.4331L24.7597 72.9331C24.5205 72.795 24.4386 72.4892 24.5767 72.2501Z" fill="#F92D00"/>
<path fill-rule="evenodd" clip-rule="evenodd" d="M47.9595 85.7501C48.0975 85.5109 48.4033 85.429 48.6425 85.5671L51.2406 87.0671C51.4797 87.2052 51.5616 87.5109 51.4236 87.7501C51.2855 87.9892 50.9797 88.0712 50.7406 87.9331L48.1425 86.4331C47.9033 86.295 47.8214 85.9892 47.9595 85.7501Z" fill="#F92D00"/>
<path d="M73 58C73 48.0589 81.0589 40 91 40V40C100.941 40 109 48.0589 109 58V58C109 67.9411 100.941 76 91 76V76C81.0589 76 73 67.9411 73 58V58Z" fill="white"/>
<path fill-rule="evenodd" clip-rule="evenodd" d="M102 55C102 55.0277 102 55.0553 101.999 55.0829C104.837 55.5587 107 58.0268 107 61C107 63.973 104.838 66.441 102 66.917V67H101H82H81V66.917C78.1623 66.441 76 63.973 76 61C76 57.6863 78.6863 55 82 55C82.2624 55 82.5209 55.0168 82.7744 55.0495C83.8046 53.2288 85.7588 52 88 52C88.9 52 89.7537 52.1982 90.5199 52.5532C91.4563 50.4592 93.5578 49 96 49C99.3137 49 102 51.6863 102 55Z" fill="#53BBF3"/>
<path d="M20 36C20 26.0589 28.0589 18 38 18V18C47.9411 18 56 26.0589 56 36V36C56 45.9411 47.9411 54 38 54V54C28.0589 54 20 45.9411 20 36V36Z" fill="white"/>
<path fill-rule="evenodd" clip-rule="evenodd" d="M49 33C49 33.0277 48.9998 33.0553 48.9994 33.0829C51.8374 33.5587 54 36.0268 54 39C54 41.973 51.8377 44.441 49 44.917V45H48H29H28V44.917C25.1623 44.441 23 41.973 23 39C23 35.6863 25.6863 33 29 33C29.2624 33 29.5209 33.0168 29.7744 33.0495C30.8046 31.2288 32.7588 30 35 30C35.9 30 36.7537 30.1982 37.5199 30.5532C38.4563 28.4592 40.5578 27 43 27C46.3137 27 49 29.6863 49 33Z" fill="#53BBF3"/>
<path d="M59.9999 57.1115L85.9998 11" stroke="white" stroke-width="2" stroke-linecap="round"/>
</svg>
