<svg width="86" height="137" viewBox="0 0 86 137" fill="none" xmlns="http://www.w3.org/2000/svg">
<path fill-rule="evenodd" clip-rule="evenodd" d="M31 122.923V113H34V122.923H31Z" fill="#F92D00"/>
<path fill-rule="evenodd" clip-rule="evenodd" d="M51 122.839V112.916H54V122.839H51Z" fill="#F92D00"/>
<path d="M85.0994 56.7679C85.0994 76.0978 72.6223 105.79 55.4074 116.412C52.9916 117.903 48.7991 118.349 45.8029 118.466C43.4597 118.557 41.1107 118.564 38.7681 118.458C35.9378 118.329 32.055 117.87 29.692 116.412C12.4771 105.79 0 76.0978 0 56.7679C0 32.883 19.0502 13.5205 42.5497 13.5205C66.0493 13.5205 85.0994 32.883 85.0994 56.7679Z" fill="#53BBF3"/>
<mask id="mask0_187_179" style="mask-type:alpha" maskUnits="userSpaceOnUse" x="27" y="0" width="31" height="133">
<path d="M57.7935 54.3868C57.7935 78.6957 53.3235 116.036 47.1562 129.394C45.7029 132.542 42.4548 131.986 42.4548 131.986C42.4548 131.986 39.3968 132.542 37.9435 129.394C31.7761 116.036 27.3062 78.6957 27.3062 54.3868C27.3062 24.3498 34.131 0 42.5498 0C50.9687 0 57.7935 24.3498 57.7935 54.3868Z" fill="#53BBF3"/>
</mask>
<g mask="url(#mask0_187_179)">
<path d="M85.0994 56.7679C85.0994 76.0978 72.6223 105.79 55.4074 116.412C51.3508 118.915 42.2846 118.473 42.2846 118.473C42.2846 118.473 33.7486 118.915 29.692 116.412C12.4771 105.79 0 76.0978 0 56.7679C0 32.883 19.0502 13.5205 42.5497 13.5205C66.0493 13.5205 85.0994 32.883 85.0994 56.7679Z" fill="#DDEFFD"/>
</g>
<path d="M31 122.42H54V130.711C54 133.665 51.6052 136.059 48.6512 136.059H36.3488C33.3948 136.059 31 133.665 31 130.711V122.42Z" fill="#F92D00"/>
</svg>
