<svg width="74" height="121" viewBox="0 0 74 121" fill="none" xmlns="http://www.w3.org/2000/svg">
<path d="M69 120H74V57H69V120Z" fill="#53BBF3"/>
<path d="M23 120.009H28V57.0088H23V120.009Z" fill="#53BBF3"/>
<path d="M2.22217 120H8.88882V57.2223H2.22217V120Z" fill="#53BBF3"/>
<path d="M70.8622 13.7683H5.66455V73.6045H70.8622V13.7683Z" fill="#53BBF3"/>
<path d="M67.2979 15.8139H8.70217V71.1861H67.2979V15.8139ZM2 11H74V76H2V11Z" fill="#53BBF3"/>
<path d="M37.3869 0L74 11H50.5L25 0H37.3869Z" fill="#53BBF3"/>
<path d="M11.5215 24.8687H65.0058V21.3501H11.5215V24.8687Z" fill="#53BBF3"/>
<path d="M11.5215 31.7188H65.0058V28.2002H11.5215V31.7188Z" fill="#53BBF3"/>
<path d="M11.5215 38.5679H65.0058V35.0494H11.5215V38.5679Z" fill="#53BBF3"/>
<path d="M11.5215 45.4165H65.0058V41.898H11.5215V45.4165Z" fill="#53BBF3"/>
<path d="M11.5215 52.2666H65.0058V48.7481H11.5215V52.2666Z" fill="#53BBF3"/>
<path d="M11.5215 59.1167H65.0058V55.5982H11.5215V59.1167Z" fill="#53BBF3"/>
<path d="M11.5215 65.9644H65.0058V62.4458H11.5215V65.9644Z" fill="#53BBF3"/>
<path d="M46.6665 120H51.6665V57.2223H46.6665V120Z" fill="#DDEFFD"/>
<path d="M0 120H4.99999V57.2223H0V120Z" fill="#DDEFFD"/>
<path d="M49.1058 13.7683H2.47705V73.6045H49.1058V13.7683Z" fill="#DDEFFD"/>
<path d="M46.7123 16.1609H4.86946V71.2112H46.7123V16.1609ZM0.0834961 11.375H51.4982V75.9971H0.0834961V11.375Z" fill="#DDEFFD"/>
<path d="M25.4097 -0.000379562L51.4541 11.3833H0.0527344L25.4097 -0.000379562Z" fill="#DDEFFD"/>
<path d="M6.66504 24.8687H44.9168V21.3501H6.66504V24.8687Z" fill="#53BBF3"/>
<path d="M6.66504 31.7188H44.9168V28.2002H6.66504V31.7188Z" fill="#53BBF3"/>
<path d="M6.66504 38.5679H44.9168V35.0494H6.66504V38.5679Z" fill="#53BBF3"/>
<path d="M6.66504 45.4165H44.9168V41.898H6.66504V45.4165Z" fill="#53BBF3"/>
<path d="M6.66504 52.2666H44.9168V48.7481H6.66504V52.2666Z" fill="#53BBF3"/>
<path d="M6.66504 59.1167H44.9168V55.5982H6.66504V59.1167Z" fill="#53BBF3"/>
<path d="M6.66504 65.9644H44.9168V62.4458H6.66504V65.9644Z" fill="#53BBF3"/>
</svg>
