<svg width="33" height="76" viewBox="0 0 33 76" fill="none" xmlns="http://www.w3.org/2000/svg">
<path fill-rule="evenodd" clip-rule="evenodd" d="M14.2091 0C10.2181 0 6.98277 3.23536 6.98277 7.22637V49.5533C2.80291 52.027 0 56.5813 0 61.7902C0 69.6377 6.36164 75.9994 14.2091 75.9994C22.0566 75.9994 28.4182 69.6377 28.4182 61.7902C28.4182 56.5813 25.6153 52.027 21.4355 49.5533V7.22637C21.4355 3.23536 18.2001 0 14.2091 0Z" fill="#53BBF3"/>
<mask id="mask0_187_34" style="mask-type:alpha" maskUnits="userSpaceOnUse" x="0" y="0" width="29" height="77">
<path fill-rule="evenodd" clip-rule="evenodd" d="M14.2091 0.00146484C10.2181 0.00146484 6.98277 3.23682 6.98277 7.22782V49.5546C2.80291 52.0283 0 56.5826 0 61.7915C0 69.639 6.36164 76.0006 14.2091 76.0006C22.0566 76.0006 28.4182 69.639 28.4182 61.7915C28.4182 56.5826 25.6153 52.0283 21.4355 49.5546V7.22781C21.4355 3.23681 18.2001 0.00146484 14.2091 0.00146484Z" fill="#53BBF3"/>
</mask>
<g mask="url(#mask0_187_34)">
<path d="M-9.90576 26.7959H41.0847V76H-9.90576V26.7959Z" fill="#F92D00"/>
</g>
<path d="M25.6833 7.79297H32.9909V11.3655H25.6833V7.79297Z" fill="#53BBF3"/>
<path d="M25.6833 14.6138H32.9909V18.1863H25.6833V14.6138Z" fill="#53BBF3"/>
<path d="M25.6833 21.4341H32.9909V25.0067H25.6833V21.4341Z" fill="#53BBF3"/>
<path d="M25.6833 28.2549H32.9909V31.8275H25.6833V28.2549Z" fill="#F92D00"/>
<path d="M25.6833 35.0737H32.9909V38.6463H25.6833V35.0737Z" fill="#F92D00"/>
<path d="M25.6833 41.8945H32.9909V45.4671H25.6833V41.8945Z" fill="#F92D00"/>
</svg>
