<svg width="86" height="137" viewBox="0 0 86 137" fill="none" xmlns="http://www.w3.org/2000/svg">
<path fill-rule="evenodd" clip-rule="evenodd" d="M31 122.923V113H34V122.923H31Z" fill="#C2620E"/>
<path fill-rule="evenodd" clip-rule="evenodd" d="M51 122.839V112.916H54V122.839H51Z" fill="#C2620E"/>
<path d="M85.0994 56.7669C85.0994 76.0968 72.6223 105.789 55.4074 116.411C52.9916 117.902 48.7991 118.348 45.8029 118.465C43.4597 118.556 41.1107 118.563 38.7681 118.457C35.9378 118.328 32.055 117.869 29.692 116.411C12.4771 105.789 0 76.0968 0 56.7669C0 32.882 19.0502 13.5195 42.5497 13.5195C66.0493 13.5195 85.0994 32.882 85.0994 56.7669Z" fill="#0863B8"/>
<mask id="mask0_426_7380" style="mask-type:alpha" maskUnits="userSpaceOnUse" x="27" y="0" width="31" height="133">
<path d="M57.7935 54.3868C57.7935 78.6957 53.3235 116.036 47.1562 129.394C45.7029 132.542 42.4548 131.985 42.4548 131.985C42.4548 131.985 39.3968 132.542 37.9435 129.394C31.7761 116.036 27.3062 78.6957 27.3062 54.3868C27.3062 24.3498 34.131 0 42.5498 0C50.9687 0 57.7935 24.3498 57.7935 54.3868Z" fill="#53BBF3"/>
</mask>
<g mask="url(#mask0_426_7380)">
<path d="M85.0994 56.7669C85.0994 76.0968 72.6223 105.789 55.4074 116.411C51.3508 118.914 42.2846 118.472 42.2846 118.472C42.2846 118.472 33.7486 118.914 29.692 116.411C12.4771 105.789 0 76.0968 0 56.7669C0 32.882 19.0502 13.5195 42.5497 13.5195C66.0493 13.5195 85.0994 32.882 85.0994 56.7669Z" fill="#53BBF3"/>
</g>
<path d="M31 122.42H54V130.711C54 133.665 51.6052 136.059 48.6512 136.059H36.3488C33.3948 136.059 31 133.665 31 130.711V122.42Z" fill="#C2620E"/>
</svg>
