<svg width="33" height="77" viewBox="0 0 33 77" fill="none" xmlns="http://www.w3.org/2000/svg">
<path fill-rule="evenodd" clip-rule="evenodd" d="M14.2091 0C10.2181 0 6.98277 3.23535 6.98277 7.22635V49.5531C2.80291 52.0268 0 56.5811 0 61.7901C0 69.6375 6.36164 75.9992 14.2091 75.9992C22.0566 75.9992 28.4182 69.6375 28.4182 61.7901C28.4182 56.5811 25.6153 52.0268 21.4355 49.5531V7.22635C21.4355 3.23535 18.2001 0 14.2091 0Z" fill="#53BBF3"/>
<mask id="mask0_426_7438" style="mask-type:alpha" maskUnits="userSpaceOnUse" x="0" y="0" width="29" height="77">
<path fill-rule="evenodd" clip-rule="evenodd" d="M14.2091 0.00195312C10.2181 0.00195312 6.98277 3.2373 6.98277 7.22831V49.5551C2.80291 52.0288 0 56.5831 0 61.792C0 69.6395 6.36164 76.0011 14.2091 76.0011C22.0566 76.0011 28.4182 69.6395 28.4182 61.792C28.4182 56.5831 25.6153 52.0288 21.4355 49.5551V7.2283C21.4355 3.2373 18.2001 0.00195312 14.2091 0.00195312Z" fill="#53BBF3"/>
</mask>
<g mask="url(#mask0_426_7438)">
<rect x="-9.90576" y="26.7969" width="50.9904" height="49.2041" fill="#F92D00"/>
</g>
<rect x="25.6836" y="7.79297" width="7.30754" height="3.57258" fill="#0863B8"/>
<rect x="25.6836" y="14.6133" width="7.30754" height="3.57258" fill="#0863B8"/>
<rect x="25.6836" y="21.4336" width="7.30754" height="3.57258" fill="#0863B8"/>
<rect x="25.6836" y="28.2539" width="7.30754" height="3.57258" fill="#F92D00"/>
<rect x="25.6836" y="35.0742" width="7.30754" height="3.57258" fill="#F92D00"/>
<rect x="25.6836" y="41.8945" width="7.30754" height="3.57258" fill="#F92D00"/>
</svg>
