<svg width="119" height="119" viewBox="0 0 119 119" fill="none" xmlns="http://www.w3.org/2000/svg">
<path d="M119 59.5C119 92.3609 92.3609 119 59.5 119C26.6391 119 0 92.3609 0 59.5C0 26.6391 26.6391 0 59.5 0C92.3609 0 119 26.6391 119 59.5Z" fill="#DDEFFD"/>
<path d="M55 59.5C55 57.0147 57.0147 55 59.5 55C61.9853 55 64 57.0147 64 59.5C64 61.9853 61.9853 64 59.5 64C57.0147 64 55 61.9853 55 59.5Z" fill="#53BBF3"/>
<path fill-rule="evenodd" clip-rule="evenodd" d="M37.8147 89.6414C40.145 87.311 40.145 83.5328 37.8147 81.2025C35.4844 78.8722 31.7062 78.8722 29.3758 81.2025L27.2545 79.0812C30.7564 75.5793 36.4341 75.5793 39.936 79.0812C43.4379 82.5831 43.4379 88.2608 39.936 91.7627L37.8147 89.6414Z" fill="#53BBF3"/>
<path d="M62.1645 10.1506C62.1645 11.5519 61.0285 12.6879 59.6272 12.6879C58.2258 12.6879 57.0898 11.5519 57.0898 10.1506C57.0898 8.74928 58.2258 7.61328 59.6272 7.61328C61.0285 7.61328 62.1645 8.74928 62.1645 10.1506Z" fill="#53BBF3"/>
<path d="M86.5001 18.0296C85.7995 19.2432 84.2477 19.659 83.0341 18.9583C81.8205 18.2577 81.4047 16.7059 82.1054 15.4923C82.806 14.2787 84.3578 13.8629 85.5714 14.5636C86.785 15.2642 87.2008 16.816 86.5001 18.0296Z" fill="#53BBF3"/>
<path d="M37.1486 103.508C36.4479 104.722 34.8961 105.138 33.6825 104.437C32.4689 103.736 32.0531 102.184 32.7538 100.971C33.4545 99.7572 35.0063 99.3414 36.2198 100.042C37.4334 100.743 37.8492 102.295 37.1486 103.508Z" fill="#53BBF3"/>
<path d="M103.634 37.0208C102.421 37.7215 100.869 37.3057 100.168 36.0921C99.4677 34.8785 99.8835 33.3267 101.097 32.6261C102.311 31.9254 103.862 32.3412 104.563 33.5548C105.264 34.7684 104.848 36.3202 103.634 37.0208Z" fill="#53BBF3"/>
<path d="M18.1563 86.3743C16.9428 87.075 15.391 86.6592 14.6903 85.4456C13.9896 84.2321 14.4055 82.6803 15.619 81.9796C16.8326 81.2789 18.3844 81.6947 19.0851 82.9083C19.7857 84.1219 19.3699 85.6737 18.1563 86.3743Z" fill="#53BBF3"/>
<path d="M108.977 62.0375C107.576 62.0375 106.44 60.9015 106.44 59.5002C106.44 58.0989 107.576 56.9629 108.977 56.9629C110.379 56.9629 111.515 58.0989 111.515 59.5002C111.515 60.9015 110.379 62.0375 108.977 62.0375Z" fill="#53BBF3"/>
<path d="M10.2762 62.0375C8.87484 62.0375 7.73885 60.9015 7.73885 59.5002C7.73885 58.0989 8.87484 56.9629 10.2762 56.9629C11.6775 56.9629 12.8135 58.0989 12.8135 59.5002C12.8135 60.9015 11.6775 62.0375 10.2762 62.0375Z" fill="#53BBF3"/>
<path d="M101.097 86.3722C99.8838 85.6715 99.468 84.1197 100.169 82.9062C100.869 81.6926 102.421 81.2768 103.635 81.9774C104.848 82.6781 105.264 84.2299 104.563 85.4435C103.863 86.657 102.311 87.0729 101.097 86.3722Z" fill="#53BBF3"/>
<path d="M15.6193 37.0206C14.4057 36.32 13.9899 34.7682 14.6906 33.5546C15.3913 32.341 16.943 31.9252 18.1566 32.6259C19.3702 33.3265 19.786 34.8783 19.0853 36.0919C18.3847 37.3055 16.8329 37.7213 15.6193 37.0206Z" fill="#53BBF3"/>
<path d="M82.1047 103.508C81.404 102.294 81.8198 100.743 83.0334 100.042C84.247 99.3412 85.7988 99.757 86.4994 100.971C87.2001 102.184 86.7843 103.736 85.5707 104.437C84.3571 105.137 82.8053 104.721 82.1047 103.508Z" fill="#53BBF3"/>
<path d="M32.7546 18.0294C32.0539 16.8158 32.4697 15.264 33.6833 14.5634C34.8969 13.8627 36.4487 14.2785 37.1493 15.4921C37.85 16.7057 37.4342 18.2575 36.2206 18.9581C35.007 19.6588 33.4552 19.243 32.7546 18.0294Z" fill="#53BBF3"/>
<path fill-rule="evenodd" clip-rule="evenodd" d="M75.9775 45.1617L39.9362 81.203L37.8149 79.0817L73.8562 43.0404L68.7932 37.9773L85.5235 33.4944L81.0406 50.2248L75.9775 45.1617Z" fill="#53BBF3"/>
</svg>
