<svg width="148" height="180" viewBox="0 0 148 180" fill="none" xmlns="http://www.w3.org/2000/svg">
<path d="M8.85254 46.2617C8.85254 45.1571 9.74797 44.2617 10.8525 44.2617H133.737C134.842 44.2617 135.737 45.1571 135.737 46.2617V177.999C135.737 179.104 134.842 179.999 133.737 179.999H10.8525C9.74797 179.999 8.85254 179.104 8.85254 177.999V46.2617Z" fill="#322E4F"/>
<path d="M0 44.2617H147.541V83.5731C147.541 84.6776 146.645 85.5731 145.541 85.5731H2C0.895429 85.5731 0 84.6776 0 83.5731V44.2617Z" fill="#4C566F"/>
<path d="M11.8027 56.0664H29.5076V61.968H11.8027V56.0664Z" fill="#69758F"/>
<path d="M35.4092 56.0664H53.114V61.968H35.4092V56.0664Z" fill="#69758F"/>
<path d="M59.0166 56.0664H76.7215V61.968H59.0166V56.0664Z" fill="#69758F"/>
<path d="M11.8027 67.8691H29.5076V73.7708H11.8027V67.8691Z" fill="#69758F"/>
<path d="M35.4092 67.8691H53.114V73.7708H35.4092V67.8691Z" fill="#69758F"/>
<path d="M59.0166 67.8691H76.7215V73.7708H59.0166V67.8691Z" fill="#69758F"/>
<path d="M0 44.2617H147.541L118.626 0.890152C118.255 0.333755 117.631 -0.00044632 116.962 -0.00044632H30.5785C29.9098 -0.00044632 29.2853 0.333758 28.9144 0.890156L0 44.2617Z" fill="#69758F"/>
<path d="M0 93.4766C0 92.372 0.895431 91.4766 2 91.4766H145.541C146.645 91.4766 147.541 92.372 147.541 93.4766V130.788C147.541 131.892 146.645 132.788 145.541 132.788H2C0.895429 132.788 0 131.892 0 130.788V93.4766Z" fill="#4C566F"/>
<path d="M11.8027 103.279H29.5076V109.181H11.8027V103.279Z" fill="#69758F"/>
<path d="M35.4092 103.279H53.114V109.181H35.4092V103.279Z" fill="#69758F"/>
<path d="M59.0166 103.279H76.7215V109.181H59.0166V103.279Z" fill="#69758F"/>
<path d="M11.8027 115.084H29.5076V120.986H11.8027V115.084Z" fill="#69758F"/>
<path d="M35.4092 115.084H53.114V120.986H35.4092V115.084Z" fill="#69758F"/>
<path d="M59.0166 115.084H76.7215V120.986H59.0166V115.084Z" fill="#69758F"/>
<path d="M0 140.689C0 139.585 0.895431 138.689 2 138.689H145.541C146.645 138.689 147.541 139.585 147.541 140.689V178.001C147.541 179.105 146.645 180.001 145.541 180.001H2C0.895429 180.001 0 179.105 0 178.001V140.689Z" fill="#4C566F"/>
<path d="M11.8037 150.49H29.5086V156.392H11.8037V150.49Z" fill="#69758F"/>
<path d="M35.4102 150.49H53.115V156.392H35.4102V150.49Z" fill="#69758F"/>
<path d="M59.0166 150.49H76.7215V156.392H59.0166V150.49Z" fill="#69758F"/>
<path d="M11.8037 162.295H29.5086V168.197H11.8037V162.295Z" fill="#69758F"/>
<path d="M35.4102 162.295H53.115V168.197H35.4102V162.295Z" fill="#69758F"/>
<path d="M59.0166 162.295H76.7215V168.197H59.0166V162.295Z" fill="#69758F"/>
<path d="M106.229 44.2617H147.541V83.5731C147.541 84.6776 146.645 85.5731 145.541 85.5731H106.229V44.2617Z" fill="#424055"/>
<path d="M118.032 59.0172C118.032 60.6469 116.711 61.968 115.082 61.968C113.452 61.968 112.131 60.6469 112.131 59.0172C112.131 57.3875 113.452 56.0664 115.082 56.0664C116.711 56.0664 118.032 57.3875 118.032 59.0172Z" fill="#424055"/>
<path d="M129.835 59.0172C129.835 60.6469 128.514 61.968 126.884 61.968C125.255 61.968 123.934 60.6469 123.934 59.0172C123.934 57.3875 125.255 56.0664 126.884 56.0664C128.514 56.0664 129.835 57.3875 129.835 59.0172Z" fill="#424055"/>
<path d="M141.639 59.0172C141.639 60.6469 140.318 61.968 138.688 61.968C137.058 61.968 135.737 60.6469 135.737 59.0172C135.737 57.3875 137.058 56.0664 138.688 56.0664C140.318 56.0664 141.639 57.3875 141.639 59.0172Z" fill="#424055"/>
<path d="M118.032 70.82C118.032 72.4496 116.711 73.7708 115.082 73.7708C113.452 73.7708 112.131 72.4496 112.131 70.82C112.131 69.1903 113.452 67.8691 115.082 67.8691C116.711 67.8691 118.032 69.1903 118.032 70.82Z" fill="#424055"/>
<path d="M129.835 70.82C129.835 72.4496 128.514 73.7708 126.884 73.7708C125.255 73.7708 123.934 72.4496 123.934 70.82C123.934 69.1903 125.255 67.8691 126.884 67.8691C128.514 67.8691 129.835 69.1903 129.835 70.82Z" fill="#424055"/>
<path d="M141.639 70.82C141.639 72.4496 140.318 73.7708 138.688 73.7708C137.058 73.7708 135.737 72.4496 135.737 70.82C135.737 69.1903 137.058 67.8691 138.688 67.8691C140.318 67.8691 141.639 69.1903 141.639 70.82Z" fill="#424055"/>
<path d="M106.229 91.4766H145.541C146.645 91.4766 147.541 92.372 147.541 93.4766V130.788C147.541 131.892 146.645 132.788 145.541 132.788H106.229V91.4766Z" fill="#424055"/>
<path d="M118.032 106.23C118.032 107.86 116.711 109.181 115.082 109.181C113.452 109.181 112.131 107.86 112.131 106.23C112.131 104.6 113.452 103.279 115.082 103.279C116.711 103.279 118.032 104.6 118.032 106.23Z" fill="#424055"/>
<path d="M129.835 106.23C129.835 107.86 128.514 109.181 126.884 109.181C125.255 109.181 123.934 107.86 123.934 106.23C123.934 104.6 125.255 103.279 126.884 103.279C128.514 103.279 129.835 104.6 129.835 106.23Z" fill="#424055"/>
<path d="M141.639 106.23C141.639 107.86 140.318 109.181 138.688 109.181C137.058 109.181 135.737 107.86 135.737 106.23C135.737 104.6 137.058 103.279 138.688 103.279C140.318 103.279 141.639 104.6 141.639 106.23Z" fill="#424055"/>
<path d="M118.032 118.035C118.032 119.664 116.711 120.986 115.082 120.986C113.452 120.986 112.131 119.664 112.131 118.035C112.131 116.405 113.452 115.084 115.082 115.084C116.711 115.084 118.032 116.405 118.032 118.035Z" fill="#424055"/>
<path d="M129.835 118.035C129.835 119.664 128.514 120.986 126.884 120.986C125.255 120.986 123.934 119.664 123.934 118.035C123.934 116.405 125.255 115.084 126.884 115.084C128.514 115.084 129.835 116.405 129.835 118.035Z" fill="#424055"/>
<path d="M141.639 118.035C141.639 119.664 140.318 120.986 138.688 120.986C137.058 120.986 135.737 119.664 135.737 118.035C135.737 116.405 137.058 115.084 138.688 115.084C140.318 115.084 141.639 116.405 141.639 118.035Z" fill="#424055"/>
<path d="M106.229 138.689H145.541C146.645 138.689 147.541 139.585 147.541 140.689V178.001C147.541 179.105 146.645 180.001 145.541 180.001H106.229V138.689Z" fill="#424055"/>
<path d="M118.032 153.441C118.032 155.071 116.711 156.392 115.082 156.392C113.452 156.392 112.131 155.071 112.131 153.441C112.131 151.811 113.452 150.49 115.082 150.49C116.711 150.49 118.032 151.811 118.032 153.441Z" fill="#424055"/>
<path d="M129.835 153.441C129.835 155.071 128.514 156.392 126.884 156.392C125.255 156.392 123.934 155.071 123.934 153.441C123.934 151.811 125.255 150.49 126.884 150.49C128.514 150.49 129.835 151.811 129.835 153.441Z" fill="#424055"/>
<path d="M141.639 153.441C141.639 155.071 140.318 156.392 138.688 156.392C137.058 156.392 135.737 155.071 135.737 153.441C135.737 151.811 137.058 150.49 138.688 150.49C140.318 150.49 141.639 151.811 141.639 153.441Z" fill="#424055"/>
<path d="M118.032 165.246C118.032 166.875 116.711 168.197 115.082 168.197C113.452 168.197 112.131 166.875 112.131 165.246C112.131 163.616 113.452 162.295 115.082 162.295C116.711 162.295 118.032 163.616 118.032 165.246Z" fill="#424055"/>
<path d="M129.835 165.246C129.835 166.875 128.514 168.197 126.884 168.197C125.255 168.197 123.934 166.875 123.934 165.246C123.934 163.616 125.255 162.295 126.884 162.295C128.514 162.295 129.835 163.616 129.835 165.246Z" fill="#424055"/>
<path d="M141.639 165.246C141.639 166.875 140.318 168.197 138.688 168.197C137.058 168.197 135.737 166.875 135.737 165.246C135.737 163.616 137.058 162.295 138.688 162.295C140.318 162.295 141.639 163.616 141.639 165.246Z" fill="#424055"/>
<g filter="url(#filter0_d_553_455)">
<path d="M36.1221 21C36.1221 12.1634 43.2855 5 52.1221 5H96.3125C105.149 5 112.313 12.1634 112.313 21V21C112.313 29.8366 105.149 37 96.3125 37H52.1221C43.2855 37 36.1221 29.8366 36.1221 21V21Z" fill="white"/>
</g>
<path d="M66.3769 25.7601V31.8828H63.6516V28.0001H53.8516V14.6721H56.6702V25.6481H61.5796V14.6721H64.3982V25.7601H66.3769Z" fill="black"/>
<path d="M80.5309 21.3175C80.5309 22.3504 80.4002 23.2899 80.1389 24.1361C79.89 24.9699 79.5042 25.6917 78.9816 26.3015C78.4713 26.9112 77.8118 27.3779 77.0029 27.7015C76.2065 28.025 75.2669 28.1868 74.1842 28.1868C73.1016 28.1868 72.1558 28.025 71.3469 27.7015C70.5505 27.3655 69.8909 26.8988 69.3682 26.3015C68.858 25.6917 68.4722 24.9637 68.2109 24.1175C67.962 23.2712 67.8376 22.3317 67.8376 21.2988C67.8376 19.9175 68.0616 18.7166 68.5096 17.6961C68.97 16.6757 69.6669 15.8855 70.6002 15.3255C71.546 14.753 72.7469 14.4668 74.2029 14.4668C75.6465 14.4668 76.8349 14.753 77.7682 15.3255C78.7016 15.8855 79.3922 16.6819 79.8402 17.7148C80.3007 18.7352 80.5309 19.9361 80.5309 21.3175ZM70.8056 21.3175C70.8056 22.2508 70.9238 23.0535 71.1602 23.7255C71.3967 24.3975 71.7638 24.9139 72.2616 25.2748C72.7593 25.6357 73.4002 25.8161 74.1842 25.8161C74.9931 25.8161 75.6402 25.6357 76.1256 25.2748C76.6233 24.9139 76.9842 24.3975 77.2082 23.7255C77.4447 23.0535 77.5629 22.2508 77.5629 21.3175C77.5629 19.9112 77.3016 18.8099 76.7789 18.0135C76.2562 17.217 75.3976 16.8188 74.2029 16.8188C73.4065 16.8188 72.7593 16.9992 72.2616 17.3601C71.7638 17.721 71.3967 18.2375 71.1602 18.9095C70.9238 19.5815 70.8056 20.3841 70.8056 21.3175Z" fill="black"/>
<path d="M93.3618 14.6721V25.6481H95.1351V31.8828H92.4098V28.0001H84.0658V31.8828H81.3404V25.6481H82.3671C82.7155 24.9512 83.0515 24.217 83.3751 23.4455C83.6986 22.6739 83.9973 21.8464 84.2711 20.9628C84.5573 20.0792 84.8124 19.121 85.0364 18.0881C85.2604 17.0428 85.4471 15.9041 85.5964 14.6721H93.3618ZM87.8364 17.0241C87.7493 17.6712 87.6249 18.3619 87.4631 19.0961C87.3013 19.8179 87.1084 20.5584 86.8844 21.3175C86.6729 22.0766 86.4364 22.8232 86.1751 23.5575C85.9138 24.2917 85.6338 24.9886 85.3351 25.6481H90.5431V17.0241H87.8364Z" fill="black"/>
<defs>
<filter id="filter0_d_553_455" x="34.5983" y="5" width="79.238" height="35.8095" filterUnits="userSpaceOnUse" color-interpolation-filters="sRGB">
<feFlood flood-opacity="0" result="BackgroundImageFix"/>
<feColorMatrix in="SourceAlpha" type="matrix" values="0 0 0 0 0 0 0 0 0 0 0 0 0 0 0 0 0 0 127 0" result="hardAlpha"/>
<feOffset dy="2.28571"/>
<feGaussianBlur stdDeviation="0.761905"/>
<feComposite in2="hardAlpha" operator="out"/>
<feColorMatrix type="matrix" values="0 0 0 0 0 0 0 0 0 0 0 0 0 0 0 0 0 0 0.25 0"/>
<feBlend mode="normal" in2="BackgroundImageFix" result="effect1_dropShadow_553_455"/>
<feBlend mode="normal" in="SourceGraphic" in2="effect1_dropShadow_553_455" result="shape"/>
</filter>
</defs>
</svg>
