<svg width="149" height="180" viewBox="0 0 149 180" fill="none" xmlns="http://www.w3.org/2000/svg">
<rect x="9.49268" y="44.2627" width="126.885" height="135.737" rx="2" fill="#322E4F"/>
<path d="M0.639648 44.2627H148.18V83.5741C148.18 84.6786 147.285 85.5741 146.18 85.5741H2.63965C1.53508 85.5741 0.639648 84.6786 0.639648 83.5741V44.2627Z" fill="#4C566F"/>
<rect x="12.4424" y="56.0664" width="17.7049" height="5.90162" fill="#69758F"/>
<rect x="36.0493" y="56.0664" width="17.7049" height="5.90162" fill="#69758F"/>
<rect x="59.6558" y="56.0664" width="17.7049" height="5.90162" fill="#69758F"/>
<rect x="12.4424" y="67.8701" width="17.7049" height="5.90162" fill="#69758F"/>
<rect x="36.0493" y="67.8701" width="17.7049" height="5.90162" fill="#69758F"/>
<rect x="59.6558" y="67.8701" width="17.7049" height="5.90162" fill="#69758F"/>
<path d="M0.639648 44.2627H148.18L119.266 0.891129C118.895 0.334732 118.27 0.000530243 117.602 0.000530243H31.2181C30.5494 0.000530243 29.925 0.334732 29.554 0.891132L0.639648 44.2627Z" fill="#69758F"/>
<rect x="0.639648" y="91.4756" width="147.541" height="41.3114" rx="2" fill="#4C566F"/>
<rect x="12.4424" y="103.279" width="17.7049" height="5.90162" fill="#69758F"/>
<rect x="36.0493" y="103.279" width="17.7049" height="5.90162" fill="#69758F"/>
<rect x="59.6558" y="103.279" width="17.7049" height="5.90162" fill="#69758F"/>
<rect x="12.4424" y="115.083" width="17.7049" height="5.90162" fill="#69758F"/>
<rect x="36.0493" y="115.083" width="17.7049" height="5.90162" fill="#69758F"/>
<rect x="59.6558" y="115.083" width="17.7049" height="5.90162" fill="#69758F"/>
<rect x="0.639648" y="138.689" width="147.541" height="41.3114" rx="2" fill="#4C566F"/>
<rect x="12.4434" y="150.49" width="17.7049" height="5.90162" fill="#69758F"/>
<rect x="36.0498" y="150.49" width="17.7049" height="5.90162" fill="#69758F"/>
<rect x="59.6567" y="150.49" width="17.7049" height="5.90162" fill="#69758F"/>
<rect x="12.4434" y="162.294" width="17.7049" height="5.90162" fill="#69758F"/>
<rect x="36.0498" y="162.294" width="17.7049" height="5.90162" fill="#69758F"/>
<rect x="59.6567" y="162.294" width="17.7049" height="5.90162" fill="#69758F"/>
<path d="M106.869 44.2627H148.18V83.5741C148.18 84.6786 147.285 85.5741 146.18 85.5741H106.869V44.2627Z" fill="#424055"/>
<circle cx="115.721" cy="59.0172" r="2.95081" fill="#424055"/>
<circle cx="127.524" cy="59.0172" r="2.95081" fill="#424055"/>
<circle cx="139.328" cy="59.0172" r="2.95081" fill="#424055"/>
<circle cx="115.721" cy="70.8209" r="2.95081" fill="#424055"/>
<circle cx="127.524" cy="70.8209" r="2.95081" fill="#424055"/>
<circle cx="139.328" cy="70.8209" r="2.95081" fill="#424055"/>
<path d="M106.869 91.4756H146.181C147.285 91.4756 148.18 92.371 148.18 93.4756V130.787C148.18 131.892 147.285 132.787 146.18 132.787H106.869V91.4756Z" fill="#424055"/>
<circle cx="115.721" cy="106.23" r="2.95081" fill="#424055"/>
<circle cx="127.524" cy="106.23" r="2.95081" fill="#424055"/>
<circle cx="139.328" cy="106.23" r="2.95081" fill="#424055"/>
<circle cx="115.721" cy="118.034" r="2.95081" fill="#424055"/>
<circle cx="127.524" cy="118.034" r="2.95081" fill="#424055"/>
<circle cx="139.328" cy="118.034" r="2.95081" fill="#424055"/>
<path d="M106.869 138.689H146.181C147.285 138.689 148.18 139.585 148.18 140.689V178.001C148.18 179.105 147.285 180.001 146.18 180.001H106.869V138.689Z" fill="#424055"/>
<circle cx="115.721" cy="153.441" r="2.95081" fill="#424055"/>
<circle cx="127.524" cy="153.441" r="2.95081" fill="#424055"/>
<circle cx="139.327" cy="153.441" r="2.95081" fill="#424055"/>
<circle cx="115.721" cy="165.245" r="2.95081" fill="#424055"/>
<circle cx="127.524" cy="165.245" r="2.95081" fill="#424055"/>
<circle cx="139.327" cy="165.245" r="2.95081" fill="#424055"/>
<g filter="url(#filter0_d_399_4187)">
<rect x="36.7617" y="5" width="76.1905" height="32" rx="16" fill="white"/>
</g>
<path d="M67.0162 25.76V31.8827H64.2908V28H54.4908V14.672H57.3095V25.648H62.2188V14.672H65.0375V25.76H67.0162ZM81.1702 21.3173C81.1702 22.3502 81.0395 23.2898 80.7782 24.136C80.5293 24.9698 80.1435 25.6916 79.6208 26.3013C79.1106 26.9111 78.451 27.3778 77.6422 27.7013C76.8457 28.0249 75.9062 28.1867 74.8235 28.1867C73.7408 28.1867 72.795 28.0249 71.9862 27.7013C71.1897 27.3653 70.5302 26.8987 70.0075 26.3013C69.4973 25.6916 69.1115 24.9636 68.8502 24.1173C68.6013 23.2711 68.4768 22.3316 68.4768 21.2987C68.4768 19.9173 68.7008 18.7164 69.1488 17.696C69.6093 16.6756 70.3062 15.8853 71.2395 15.3253C72.1853 14.7529 73.3862 14.4667 74.8422 14.4667C76.2857 14.4667 77.4742 14.7529 78.4075 15.3253C79.3408 15.8853 80.0315 16.6818 80.4795 17.7147C80.9399 18.7351 81.1702 19.936 81.1702 21.3173ZM71.4448 21.3173C71.4448 22.2507 71.563 23.0533 71.7995 23.7253C72.0359 24.3973 72.403 24.9138 72.9008 25.2747C73.3986 25.6356 74.0395 25.816 74.8235 25.816C75.6324 25.816 76.2795 25.6356 76.7648 25.2747C77.2626 24.9138 77.6235 24.3973 77.8475 23.7253C78.0839 23.0533 78.2022 22.2507 78.2022 21.3173C78.2022 19.9111 77.9408 18.8098 77.4182 18.0133C76.8955 17.2169 76.0368 16.8187 74.8422 16.8187C74.0457 16.8187 73.3986 16.9991 72.9008 17.36C72.403 17.7209 72.0359 18.2373 71.7995 18.9093C71.563 19.5813 71.4448 20.384 71.4448 21.3173ZM94.001 14.672V25.648H95.7743V31.8827H93.049V28H84.705V31.8827H81.9797V25.648H83.0063C83.3548 24.9511 83.6908 24.2169 84.0143 23.4453C84.3379 22.6738 84.6366 21.8462 84.9103 20.9627C85.1966 20.0791 85.4517 19.1209 85.6757 18.088C85.8997 17.0427 86.0863 15.904 86.2357 14.672H94.001ZM88.4757 17.024C88.3886 17.6711 88.2641 18.3618 88.1023 19.096C87.9406 19.8178 87.7477 20.5582 87.5237 21.3173C87.3121 22.0764 87.0757 22.8231 86.8143 23.5573C86.553 24.2916 86.273 24.9884 85.9743 25.648H91.1823V17.024H88.4757Z" fill="black"/>
<defs>
<filter id="filter0_d_399_4187" x="35.2379" y="5" width="79.238" height="35.8095" filterUnits="userSpaceOnUse" color-interpolation-filters="sRGB">
<feFlood flood-opacity="0" result="BackgroundImageFix"/>
<feColorMatrix in="SourceAlpha" type="matrix" values="0 0 0 0 0 0 0 0 0 0 0 0 0 0 0 0 0 0 127 0" result="hardAlpha"/>
<feOffset dy="2.28571"/>
<feGaussianBlur stdDeviation="0.761905"/>
<feComposite in2="hardAlpha" operator="out"/>
<feColorMatrix type="matrix" values="0 0 0 0 0 0 0 0 0 0 0 0 0 0 0 0 0 0 0.25 0"/>
<feBlend mode="normal" in2="BackgroundImageFix" result="effect1_dropShadow_399_4187"/>
<feBlend mode="normal" in="SourceGraphic" in2="effect1_dropShadow_399_4187" result="shape"/>
</filter>
</defs>
</svg>
