<svg width="148" height="172" viewBox="0 0 148 172" fill="none" xmlns="http://www.w3.org/2000/svg">
<path d="M8.85254 38.2622C8.85254 37.1576 9.74797 36.2622 10.8525 36.2622H133.737C134.842 36.2622 135.737 37.1576 135.737 38.2622V170C135.737 171.104 134.842 172 133.737 172H10.8525C9.74797 172 8.85254 171.104 8.85254 170V38.2622Z" fill="#53BBF3"/>
<path d="M-0.000488281 36H148V76C148 77.1046 147.104 78 146 78H1.99951C0.894941 78 -0.000488281 77.1046 -0.000488281 76V36Z" fill="#DDEFFD"/>
<path d="M11.8022 48.0664H29.5071V53.968H11.8022V48.0664Z" fill="#53BBF3"/>
<path d="M35.4092 48.0664H53.114V53.968H35.4092V48.0664Z" fill="#53BBF3"/>
<path d="M59.0156 48.0664H76.7205V53.968H59.0156V48.0664Z" fill="#53BBF3"/>
<path d="M11.8022 59.8701H29.5071V65.7717H11.8022V59.8701Z" fill="#53BBF3"/>
<path d="M35.4092 59.8701H53.114V65.7717H35.4092V59.8701Z" fill="#53BBF3"/>
<path d="M59.0156 59.8701H76.7205V65.7717H59.0156V59.8701Z" fill="#53BBF3"/>
<path d="M-0.000488281 36H148L119 0.729786C118.62 0.267742 118.053 0 117.455 0H30.5443C29.9461 0 29.3794 0.267746 28.9995 0.72979L-0.000488281 36Z" fill="#53BBF3"/>
<path d="M-0.000488281 85C-0.000488281 83.8954 0.894942 83 1.99951 83H146C147.104 83 148 83.8954 148 85V123C148 124.105 147.104 125 146 125H1.99951C0.894941 125 -0.000488281 124.105 -0.000488281 123V85Z" fill="#DDEFFD"/>
<path d="M11.8022 95.2793H29.5071V101.181H11.8022V95.2793Z" fill="#53BBF3"/>
<path d="M35.4092 95.2793H53.114V101.181H35.4092V95.2793Z" fill="#53BBF3"/>
<path d="M59.0156 95.2793H76.7205V101.181H59.0156V95.2793Z" fill="#53BBF3"/>
<path d="M11.8022 107.083H29.5071V112.985H11.8022V107.083Z" fill="#53BBF3"/>
<path d="M35.4092 107.083H53.114V112.985H35.4092V107.083Z" fill="#53BBF3"/>
<path d="M59.0156 107.083H76.7205V112.985H59.0156V107.083Z" fill="#53BBF3"/>
<path d="M-0.000488281 132.689C-0.000488281 131.584 0.894942 130.689 1.99951 130.689H145.54C146.645 130.689 147.54 131.584 147.54 132.689V170C147.54 171.105 146.645 172 145.54 172H1.99951C0.894941 172 -0.000488281 171.105 -0.000488281 170V132.689Z" fill="#DDEFFD"/>
<path d="M11.8032 142.491H29.5081V148.392H11.8032V142.491Z" fill="#53BBF3"/>
<path d="M35.4097 142.491H53.1145V148.392H35.4097V142.491Z" fill="#53BBF3"/>
<path d="M59.0166 142.491H76.7215V148.392H59.0166V142.491Z" fill="#53BBF3"/>
<path d="M11.8032 154.294H29.5081V160.196H11.8032V154.294Z" fill="#53BBF3"/>
<path d="M35.4097 154.294H53.1145V160.196H35.4097V154.294Z" fill="#53BBF3"/>
<path d="M59.0166 154.294H76.7215V160.196H59.0166V154.294Z" fill="#53BBF3"/>
</svg>
