<svg width="148" height="181" viewBox="0 0 148 181" fill="none" xmlns="http://www.w3.org/2000/svg">
<path d="M8.85156 46.2617C8.85156 45.1571 9.74699 44.2617 10.8516 44.2617H133.737C134.841 44.2617 135.737 45.1571 135.737 46.2617V177.999C135.737 179.104 134.841 179.999 133.737 179.999H10.8516C9.74699 179.999 8.85156 179.104 8.85156 177.999V46.2617Z" fill="#322E4F"/>
<path d="M0 44.2617H147.541V83.5732C147.541 84.6778 146.646 85.5732 145.541 85.5732H2C0.895426 85.5732 0 84.6778 0 83.5732V44.2617Z" fill="#4C566F"/>
<path d="M11.8027 56.0703H29.5077V61.972H11.8027V56.0703Z" fill="#69758F"/>
<path d="M35.4102 56.0703H53.1151V61.972H35.4102V56.0703Z" fill="#69758F"/>
<path d="M59.0156 56.0703H76.7205V61.972H59.0156V56.0703Z" fill="#69758F"/>
<path d="M11.8027 67.873H29.5077V73.7747H11.8027V67.873Z" fill="#69758F"/>
<path d="M35.4102 67.873H53.1151V73.7747H35.4102V67.873Z" fill="#69758F"/>
<path d="M59.0156 67.873H76.7205V73.7747H59.0156V67.873Z" fill="#69758F"/>
<path d="M0 44.2617H147.541L118.627 0.890022C118.256 0.333625 117.631 -0.000576019 116.962 -0.000576019H30.5786C29.9099 -0.000576019 29.2854 0.333625 28.9145 0.890022L0 44.2617Z" fill="#69758F"/>
<path d="M0 93.4746C0 92.37 0.895431 91.4746 2 91.4746H145.541C146.646 91.4746 147.541 92.37 147.541 93.4746V130.786C147.541 131.891 146.646 132.786 145.541 132.786H2C0.895426 132.786 0 131.891 0 130.786V93.4746Z" fill="#4C566F"/>
<path d="M11.8027 103.279H29.5077V109.181H11.8027V103.279Z" fill="#69758F"/>
<path d="M35.4102 103.279H53.1151V109.181H35.4102V103.279Z" fill="#69758F"/>
<path d="M59.0156 103.279H76.7205V109.181H59.0156V103.279Z" fill="#69758F"/>
<path d="M11.8027 115.082H29.5077V120.984H11.8027V115.082Z" fill="#69758F"/>
<path d="M35.4102 115.082H53.1151V120.984H35.4102V115.082Z" fill="#69758F"/>
<path d="M59.0156 115.082H76.7205V120.984H59.0156V115.082Z" fill="#69758F"/>
<path d="M0 140.689C0 139.585 0.895431 138.689 2 138.689H145.541C146.646 138.689 147.541 139.585 147.541 140.689V178.001C147.541 179.106 146.646 180.001 145.541 180.001H2C0.895426 180.001 0 179.105 0 178.001V140.689Z" fill="#4C566F"/>
<path d="M11.8027 150.494H29.5077V156.396H11.8027V150.494Z" fill="#69758F"/>
<path d="M35.4102 150.494H53.1151V156.396H35.4102V150.494Z" fill="#69758F"/>
<path d="M59.0156 150.494H76.7205V156.396H59.0156V150.494Z" fill="#69758F"/>
<path d="M11.8027 162.297H29.5077V168.199H11.8027V162.297Z" fill="#69758F"/>
<path d="M35.4102 162.297H53.1151V168.199H35.4102V162.297Z" fill="#69758F"/>
<path d="M59.0156 162.297H76.7205V168.199H59.0156V162.297Z" fill="#69758F"/>
<path d="M106.23 44.2617H147.542V83.5732C147.542 84.6778 146.647 85.5732 145.542 85.5732H106.23V44.2617Z" fill="#424055"/>
<path d="M118.032 59.0211C118.032 60.6508 116.711 61.972 115.082 61.972C113.452 61.972 112.131 60.6508 112.131 59.0211C112.131 57.3914 113.452 56.0703 115.082 56.0703C116.711 56.0703 118.032 57.3914 118.032 59.0211Z" fill="#FF446A"/>
<path d="M129.835 59.0211C129.835 60.6508 128.514 61.972 126.884 61.972C125.255 61.972 123.934 60.6508 123.934 59.0211C123.934 57.3914 125.255 56.0703 126.884 56.0703C128.514 56.0703 129.835 57.3914 129.835 59.0211Z" fill="#44D2FF"/>
<path d="M141.64 59.0211C141.64 60.6508 140.319 61.972 138.689 61.972C137.059 61.972 135.738 60.6508 135.738 59.0211C135.738 57.3914 137.059 56.0703 138.689 56.0703C140.319 56.0703 141.64 57.3914 141.64 59.0211Z" fill="#9ADBFF"/>
<path d="M118.032 70.8239C118.032 72.4536 116.711 73.7747 115.082 73.7747C113.452 73.7747 112.131 72.4536 112.131 70.8239C112.131 69.1942 113.452 67.873 115.082 67.873C116.711 67.873 118.032 69.1942 118.032 70.8239Z" fill="#FF446A"/>
<path d="M129.835 70.8239C129.835 72.4536 128.514 73.7747 126.884 73.7747C125.255 73.7747 123.934 72.4536 123.934 70.8239C123.934 69.1942 125.255 67.873 126.884 67.873C128.514 67.873 129.835 69.1942 129.835 70.8239Z" fill="#44FFDD"/>
<path d="M141.64 70.8239C141.64 72.4536 140.319 73.7747 138.689 73.7747C137.059 73.7747 135.738 72.4536 135.738 70.8239C135.738 69.1942 137.059 67.873 138.689 67.873C140.319 67.873 141.64 69.1942 141.64 70.8239Z" fill="#4484FF"/>
<path d="M106.23 91.4746H145.542C146.647 91.4746 147.542 92.37 147.542 93.4746V130.786C147.542 131.891 146.647 132.786 145.542 132.786H106.23V91.4746Z" fill="#424055"/>
<path d="M118.032 106.23C118.032 107.86 116.711 109.181 115.082 109.181C113.452 109.181 112.131 107.86 112.131 106.23C112.131 104.6 113.452 103.279 115.082 103.279C116.711 103.279 118.032 104.6 118.032 106.23Z" fill="#FF446A"/>
<path d="M129.835 106.23C129.835 107.86 128.514 109.181 126.884 109.181C125.255 109.181 123.934 107.86 123.934 106.23C123.934 104.6 125.255 103.279 126.884 103.279C128.514 103.279 129.835 104.6 129.835 106.23Z" fill="#44D2FF"/>
<path d="M141.64 106.23C141.64 107.86 140.319 109.181 138.689 109.181C137.059 109.181 135.738 107.86 135.738 106.23C135.738 104.6 137.059 103.279 138.689 103.279C140.319 103.279 141.64 104.6 141.64 106.23Z" fill="#9ADBFF"/>
<path d="M118.032 118.033C118.032 119.663 116.711 120.984 115.082 120.984C113.452 120.984 112.131 119.663 112.131 118.033C112.131 116.403 113.452 115.082 115.082 115.082C116.711 115.082 118.032 116.403 118.032 118.033Z" fill="#FF446A"/>
<path d="M129.835 118.033C129.835 119.663 128.514 120.984 126.884 120.984C125.255 120.984 123.934 119.663 123.934 118.033C123.934 116.403 125.255 115.082 126.884 115.082C128.514 115.082 129.835 116.403 129.835 118.033Z" fill="#44FFDD"/>
<path d="M141.64 118.033C141.64 119.663 140.319 120.984 138.689 120.984C137.059 120.984 135.738 119.663 135.738 118.033C135.738 116.403 137.059 115.082 138.689 115.082C140.319 115.082 141.64 116.403 141.64 118.033Z" fill="#4484FF"/>
<path d="M106.23 138.689H145.542C146.647 138.689 147.542 139.585 147.542 140.689V178.001C147.542 179.106 146.647 180.001 145.542 180.001H106.23V138.689Z" fill="#424055"/>
<path d="M118.032 153.445C118.032 155.075 116.711 156.396 115.082 156.396C113.452 156.396 112.131 155.075 112.131 153.445C112.131 151.815 113.452 150.494 115.082 150.494C116.711 150.494 118.032 151.815 118.032 153.445Z" fill="#FF446A"/>
<path d="M129.835 153.445C129.835 155.075 128.514 156.396 126.884 156.396C125.255 156.396 123.934 155.075 123.934 153.445C123.934 151.815 125.255 150.494 126.884 150.494C128.514 150.494 129.835 151.815 129.835 153.445Z" fill="#44D2FF"/>
<path d="M141.64 153.445C141.64 155.075 140.319 156.396 138.689 156.396C137.059 156.396 135.738 155.075 135.738 153.445C135.738 151.815 137.059 150.494 138.689 150.494C140.319 150.494 141.64 151.815 141.64 153.445Z" fill="#9ADBFF"/>
<path d="M118.032 165.248C118.032 166.877 116.711 168.199 115.082 168.199C113.452 168.199 112.131 166.877 112.131 165.248C112.131 163.618 113.452 162.297 115.082 162.297C116.711 162.297 118.032 163.618 118.032 165.248Z" fill="#FF446A"/>
<path d="M129.835 165.248C129.835 166.877 128.514 168.199 126.884 168.199C125.255 168.199 123.934 166.877 123.934 165.248C123.934 163.618 125.255 162.297 126.884 162.297C128.514 162.297 129.835 163.618 129.835 165.248Z" fill="#44FFDD"/>
<path d="M141.64 165.248C141.64 166.877 140.319 168.199 138.689 168.199C137.059 168.199 135.738 166.877 135.738 165.248C135.738 163.618 137.059 162.297 138.689 162.297C140.319 162.297 141.64 163.618 141.64 165.248Z" fill="#4484FF"/>
<g filter="url(#filter0_d_553_557)">
<path d="M35.7617 21C35.7617 12.1634 42.9252 5 51.7617 5H95.9522C104.789 5 111.952 12.1634 111.952 21V21C111.952 29.8366 104.789 37 95.9522 37H51.7617C42.9252 37 35.7617 29.8366 35.7617 21V21Z" fill="white"/>
</g>
<path d="M66.0156 25.7601V31.8828H63.2902V28.0001H53.4902V14.6721H56.3089V25.6481H61.2182V14.6721H64.0369V25.7601H66.0156Z" fill="black"/>
<path d="M80.1696 21.3175C80.1696 22.3504 80.0389 23.2899 79.7776 24.1361C79.5287 24.9699 79.1429 25.6917 78.6202 26.3015C78.11 26.9112 77.4505 27.3779 76.6416 27.7015C75.8451 28.025 74.9056 28.1868 73.8229 28.1868C72.7402 28.1868 71.7945 28.025 70.9856 27.7015C70.1891 27.3655 69.5296 26.8988 69.0069 26.3015C68.4967 25.6917 68.1109 24.9637 67.8496 24.1175C67.6007 23.2712 67.4762 22.3317 67.4762 21.2988C67.4762 19.9175 67.7002 18.7166 68.1482 17.6961C68.6087 16.6757 69.3056 15.8855 70.2389 15.3255C71.1847 14.753 72.3856 14.4668 73.8416 14.4668C75.2851 14.4668 76.4736 14.753 77.4069 15.3255C78.3402 15.8855 79.0309 16.6819 79.4789 17.7148C79.9393 18.7352 80.1696 19.9361 80.1696 21.3175ZM70.4442 21.3175C70.4442 22.2508 70.5625 23.0535 70.7989 23.7255C71.0353 24.3975 71.4025 24.9139 71.9002 25.2748C72.398 25.6357 73.0389 25.8161 73.8229 25.8161C74.6318 25.8161 75.2789 25.6357 75.7642 25.2748C76.262 24.9139 76.6229 24.3975 76.8469 23.7255C77.0833 23.0535 77.2016 22.2508 77.2016 21.3175C77.2016 19.9112 76.9402 18.8099 76.4176 18.0135C75.8949 17.217 75.0362 16.8188 73.8416 16.8188C73.0451 16.8188 72.398 16.9992 71.9002 17.3601C71.4025 17.721 71.0353 18.2375 70.7989 18.9095C70.5625 19.5815 70.4442 20.3841 70.4442 21.3175Z" fill="black"/>
<path d="M93.0004 14.6721V25.6481H94.7738V31.8828H92.0484V28.0001H83.7044V31.8828H80.9791V25.6481H82.0058C82.3542 24.9512 82.6902 24.217 83.0138 23.4455C83.3373 22.6739 83.636 21.8464 83.9098 20.9628C84.196 20.0792 84.4511 19.121 84.6751 18.0881C84.8991 17.0428 85.0858 15.9041 85.2351 14.6721H93.0004ZM87.4751 17.0241C87.388 17.6712 87.2635 18.3619 87.1018 19.0961C86.94 19.8179 86.7471 20.5584 86.5231 21.3175C86.3115 22.0766 86.0751 22.8232 85.8138 23.5575C85.5524 24.2917 85.2724 24.9886 84.9738 25.6481H90.1818V17.0241H87.4751Z" fill="black"/>
<defs>
<filter id="filter0_d_553_557" x="34.2379" y="5" width="79.239" height="35.8095" filterUnits="userSpaceOnUse" color-interpolation-filters="sRGB">
<feFlood flood-opacity="0" result="BackgroundImageFix"/>
<feColorMatrix in="SourceAlpha" type="matrix" values="0 0 0 0 0 0 0 0 0 0 0 0 0 0 0 0 0 0 127 0" result="hardAlpha"/>
<feOffset dy="2.28571"/>
<feGaussianBlur stdDeviation="0.761905"/>
<feComposite in2="hardAlpha" operator="out"/>
<feColorMatrix type="matrix" values="0 0 0 0 0 0 0 0 0 0 0 0 0 0 0 0 0 0 0.25 0"/>
<feBlend mode="normal" in2="BackgroundImageFix" result="effect1_dropShadow_553_557"/>
<feBlend mode="normal" in="SourceGraphic" in2="effect1_dropShadow_553_557" result="shape"/>
</filter>
</defs>
</svg>
