<svg width="148" height="180" viewBox="0 0 148 180" fill="none" xmlns="http://www.w3.org/2000/svg">
<rect x="8.85254" y="44.2627" width="126.885" height="135.738" rx="2" fill="#322E4F"/>
<path d="M0 44.2627H147.541V83.5742C147.541 84.6787 146.646 85.5742 145.541 85.5742H2C0.895426 85.5742 0 84.6787 0 83.5742V44.2627Z" fill="#4C566F"/>
<rect x="11.8027" y="56.0654" width="17.7049" height="5.90164" fill="#69758F"/>
<rect x="35.4092" y="56.0654" width="17.7049" height="5.90164" fill="#69758F"/>
<rect x="59.0156" y="56.0654" width="17.7049" height="5.90164" fill="#69758F"/>
<rect x="11.8027" y="67.8691" width="17.7049" height="5.90164" fill="#69758F"/>
<rect x="35.4092" y="67.8691" width="17.7049" height="5.90164" fill="#69758F"/>
<rect x="59.0156" y="67.8691" width="17.7049" height="5.90164" fill="#69758F"/>
<path d="M0 44.2627H147.541L118.627 0.890999C118.256 0.334599 117.631 0.000400543 116.962 0.000400543H30.5786C29.9099 0.000400543 29.2854 0.334602 28.9145 0.890999L0 44.2627Z" fill="#69758F"/>
<rect y="91.4756" width="147.541" height="41.3115" rx="2" fill="#4C566F"/>
<rect x="11.8027" y="103.279" width="17.7049" height="5.90164" fill="#69758F"/>
<rect x="35.4092" y="103.279" width="17.7049" height="5.90164" fill="#69758F"/>
<rect x="59.0156" y="103.279" width="17.7049" height="5.90164" fill="#69758F"/>
<rect x="11.8027" y="115.083" width="17.7049" height="5.90164" fill="#69758F"/>
<rect x="35.4092" y="115.083" width="17.7049" height="5.90164" fill="#69758F"/>
<rect x="59.0156" y="115.083" width="17.7049" height="5.90164" fill="#69758F"/>
<rect y="138.688" width="147.541" height="41.3115" rx="2" fill="#4C566F"/>
<rect x="11.8027" y="150.491" width="17.7049" height="5.90164" fill="#69758F"/>
<rect x="35.4092" y="150.491" width="17.7049" height="5.90164" fill="#69758F"/>
<rect x="59.0156" y="150.491" width="17.7049" height="5.90164" fill="#69758F"/>
<rect x="11.8027" y="162.295" width="17.7049" height="5.90164" fill="#69758F"/>
<rect x="35.4092" y="162.295" width="17.7049" height="5.90164" fill="#69758F"/>
<rect x="59.0156" y="162.295" width="17.7049" height="5.90164" fill="#69758F"/>
<path d="M106.229 44.2627H147.541V83.5742C147.541 84.6787 146.646 85.5742 145.541 85.5742H106.229V44.2627Z" fill="#424055"/>
<circle cx="115.083" cy="59.0163" r="2.95082" fill="#FF446A"/>
<circle cx="126.886" cy="59.0163" r="2.95082" fill="#44D2FF"/>
<circle cx="138.689" cy="59.0163" r="2.95082" fill="#9ADBFF"/>
<circle cx="115.083" cy="70.82" r="2.95082" fill="#FF446A"/>
<circle cx="126.886" cy="70.82" r="2.95082" fill="#44FFDD"/>
<circle cx="138.689" cy="70.82" r="2.95082" fill="#4484FF"/>
<path d="M106.229 91.4756H145.541C146.646 91.4756 147.541 92.371 147.541 93.4756V130.787C147.541 131.892 146.646 132.787 145.541 132.787H106.229V91.4756Z" fill="#424055"/>
<circle cx="115.083" cy="106.23" r="2.95082" fill="#FF446A"/>
<circle cx="126.886" cy="106.23" r="2.95082" fill="#44D2FF"/>
<circle cx="138.689" cy="106.23" r="2.95082" fill="#9ADBFF"/>
<circle cx="115.083" cy="118.034" r="2.95082" fill="#FF446A"/>
<circle cx="126.886" cy="118.034" r="2.95082" fill="#44FFDD"/>
<circle cx="138.689" cy="118.034" r="2.95082" fill="#4484FF"/>
<path d="M106.229 138.688H145.541C146.646 138.688 147.541 139.584 147.541 140.688V178C147.541 179.105 146.646 180 145.541 180H106.229V138.688Z" fill="#424055"/>
<circle cx="115.083" cy="153.442" r="2.95082" fill="#FF446A"/>
<circle cx="126.886" cy="153.442" r="2.95082" fill="#44D2FF"/>
<circle cx="138.689" cy="153.442" r="2.95082" fill="#9ADBFF"/>
<circle cx="115.083" cy="165.246" r="2.95082" fill="#FF446A"/>
<circle cx="126.886" cy="165.246" r="2.95082" fill="#44FFDD"/>
<circle cx="138.689" cy="165.246" r="2.95082" fill="#4484FF"/>
<g filter="url(#filter0_d_388_6059)">
<rect x="35.7617" y="5" width="76.1905" height="32" rx="16" fill="white"/>
</g>
<path d="M66.0162 25.76V31.8827H63.2908V28H53.4908V14.672H56.3095V25.648H61.2188V14.672H64.0375V25.76H66.0162ZM80.1702 21.3173C80.1702 22.3502 80.0395 23.2898 79.7782 24.136C79.5293 24.9698 79.1435 25.6916 78.6208 26.3013C78.1106 26.9111 77.451 27.3778 76.6422 27.7013C75.8457 28.0249 74.9062 28.1867 73.8235 28.1867C72.7408 28.1867 71.795 28.0249 70.9862 27.7013C70.1897 27.3653 69.5302 26.8987 69.0075 26.3013C68.4973 25.6916 68.1115 24.9636 67.8502 24.1173C67.6013 23.2711 67.4768 22.3316 67.4768 21.2987C67.4768 19.9173 67.7008 18.7164 68.1488 17.696C68.6093 16.6756 69.3062 15.8853 70.2395 15.3253C71.1853 14.7529 72.3862 14.4667 73.8422 14.4667C75.2857 14.4667 76.4742 14.7529 77.4075 15.3253C78.3408 15.8853 79.0315 16.6818 79.4795 17.7147C79.9399 18.7351 80.1702 19.936 80.1702 21.3173ZM70.4448 21.3173C70.4448 22.2507 70.563 23.0533 70.7995 23.7253C71.0359 24.3973 71.403 24.9138 71.9008 25.2747C72.3986 25.6356 73.0395 25.816 73.8235 25.816C74.6324 25.816 75.2795 25.6356 75.7648 25.2747C76.2626 24.9138 76.6235 24.3973 76.8475 23.7253C77.0839 23.0533 77.2022 22.2507 77.2022 21.3173C77.2022 19.9111 76.9408 18.8098 76.4182 18.0133C75.8955 17.2169 75.0368 16.8187 73.8422 16.8187C73.0457 16.8187 72.3986 16.9991 71.9008 17.36C71.403 17.7209 71.0359 18.2373 70.7995 18.9093C70.563 19.5813 70.4448 20.384 70.4448 21.3173ZM93.001 14.672V25.648H94.7743V31.8827H92.049V28H83.705V31.8827H80.9797V25.648H82.0063C82.3548 24.9511 82.6908 24.2169 83.0143 23.4453C83.3379 22.6738 83.6366 21.8462 83.9103 20.9627C84.1966 20.0791 84.4517 19.1209 84.6757 18.088C84.8997 17.0427 85.0863 15.904 85.2357 14.672H93.001ZM87.4757 17.024C87.3886 17.6711 87.2641 18.3618 87.1023 19.096C86.9406 19.8178 86.7477 20.5582 86.5237 21.3173C86.3121 22.0764 86.0757 22.8231 85.8143 23.5573C85.553 24.2916 85.273 24.9884 84.9743 25.648H90.1823V17.024H87.4757Z" fill="black"/>
<defs>
<filter id="filter0_d_388_6059" x="34.2379" y="5" width="79.238" height="35.8095" filterUnits="userSpaceOnUse" color-interpolation-filters="sRGB">
<feFlood flood-opacity="0" result="BackgroundImageFix"/>
<feColorMatrix in="SourceAlpha" type="matrix" values="0 0 0 0 0 0 0 0 0 0 0 0 0 0 0 0 0 0 127 0" result="hardAlpha"/>
<feOffset dy="2.28571"/>
<feGaussianBlur stdDeviation="0.761905"/>
<feComposite in2="hardAlpha" operator="out"/>
<feColorMatrix type="matrix" values="0 0 0 0 0 0 0 0 0 0 0 0 0 0 0 0 0 0 0.25 0"/>
<feBlend mode="normal" in2="BackgroundImageFix" result="effect1_dropShadow_388_6059"/>
<feBlend mode="normal" in="SourceGraphic" in2="effect1_dropShadow_388_6059" result="shape"/>
</filter>
</defs>
</svg>
