<svg width="148" height="172" viewBox="0 0 148 172" fill="none" xmlns="http://www.w3.org/2000/svg">
<path d="M8.85205 38.2622C8.85205 37.1576 9.74748 36.2622 10.8521 36.2622H133.737C134.842 36.2622 135.737 37.1576 135.737 38.2622V170C135.737 171.104 134.842 172 133.737 172H10.8521C9.74748 172 8.85205 171.104 8.85205 170V38.2622Z" fill="#53BBF3"/>
<path d="M-0.000488281 36H148V76C148 77.1046 147.104 78 146 78H1.99951C0.894941 78 -0.000488281 77.1046 -0.000488281 76V36Z" fill="#DDEFFD"/>
<path d="M11.8022 48.0659H29.5072V53.9676H11.8022V48.0659Z" fill="#53BBF3"/>
<path d="M35.4087 48.0659H53.1136V53.9676H35.4087V48.0659Z" fill="#53BBF3"/>
<path d="M59.0151 48.0659H76.7201V53.9676H59.0151V48.0659Z" fill="#53BBF3"/>
<path d="M11.8022 59.8691H29.5072V65.7708H11.8022V59.8691Z" fill="#53BBF3"/>
<path d="M35.4087 59.8691H53.1136V65.7708H35.4087V59.8691Z" fill="#53BBF3"/>
<path d="M59.0151 59.8691H76.7201V65.7708H59.0151V59.8691Z" fill="#53BBF3"/>
<path d="M-0.000488281 36H148L119 0.729786C118.62 0.267742 118.053 0 117.455 0H30.5443C29.9461 0 29.3794 0.267746 28.9995 0.72979L-0.000488281 36Z" fill="#53BBF3"/>
<path d="M-0.000488281 85C-0.000488281 83.8954 0.894942 83 1.99951 83H146C147.104 83 148 83.8954 148 85V123C148 124.105 147.104 125 146 125H1.99951C0.894941 125 -0.000488281 124.105 -0.000488281 123V85Z" fill="#DDEFFD"/>
<path d="M11.8022 95.2793H29.5072V101.181H11.8022V95.2793Z" fill="#53BBF3"/>
<path d="M35.4087 95.2793H53.1136V101.181H35.4087V95.2793Z" fill="#53BBF3"/>
<path d="M59.0151 95.2793H76.7201V101.181H59.0151V95.2793Z" fill="#53BBF3"/>
<path d="M11.8022 107.083H29.5072V112.984H11.8022V107.083Z" fill="#53BBF3"/>
<path d="M35.4087 107.083H53.1136V112.984H35.4087V107.083Z" fill="#53BBF3"/>
<path d="M59.0151 107.083H76.7201V112.984H59.0151V107.083Z" fill="#53BBF3"/>
<path d="M-0.000488281 133C-0.000488281 131.895 0.894942 131 1.99951 131H146C147.104 131 148 131.895 148 133V170C148 171.105 147.104 172 146 172H1.99951C0.894941 172 -0.000488281 171.105 -0.000488281 170V133Z" fill="#DDEFFD"/>
<path d="M11.8022 142.491H29.5072V148.393H11.8022V142.491Z" fill="#53BBF3"/>
<path d="M35.4087 142.491H53.1136V148.393H35.4087V142.491Z" fill="#53BBF3"/>
<path d="M59.0151 142.491H76.7201V148.393H59.0151V142.491Z" fill="#53BBF3"/>
<path d="M11.8022 154.294H29.5072V160.196H11.8022V154.294Z" fill="#53BBF3"/>
<path d="M35.4087 154.294H53.1136V160.196H35.4087V154.294Z" fill="#53BBF3"/>
<path d="M59.0151 154.294H76.7201V160.196H59.0151V154.294Z" fill="#53BBF3"/>
<path d="M106 36H148V76C148 77.1046 147.104 78 146 78H106V36Z" fill="#DDEFFD"/>
<path d="M118.032 51.0167C118.032 52.6464 116.711 53.9676 115.082 53.9676C113.452 53.9676 112.131 52.6464 112.131 51.0167C112.131 49.387 113.452 48.0659 115.082 48.0659C116.711 48.0659 118.032 49.387 118.032 51.0167Z" fill="#F92D00"/>
<path d="M129.836 51.0167C129.836 52.6464 128.515 53.9676 126.885 53.9676C125.255 53.9676 123.934 52.6464 123.934 51.0167C123.934 49.387 125.255 48.0659 126.885 48.0659C128.515 48.0659 129.836 49.387 129.836 51.0167Z" fill="#F92D00"/>
<path d="M141.639 51.0167C141.639 52.6464 140.318 53.9676 138.688 53.9676C137.058 53.9676 135.737 52.6464 135.737 51.0167C135.737 49.387 137.058 48.0659 138.688 48.0659C140.318 48.0659 141.639 49.387 141.639 51.0167Z" fill="#F92D00"/>
<path d="M118.032 62.82C118.032 64.4497 116.711 65.7708 115.082 65.7708C113.452 65.7708 112.131 64.4497 112.131 62.82C112.131 61.1903 113.452 59.8691 115.082 59.8691C116.711 59.8691 118.032 61.1903 118.032 62.82Z" fill="#F92D00"/>
<path d="M129.836 62.82C129.836 64.4497 128.515 65.7708 126.885 65.7708C125.255 65.7708 123.934 64.4497 123.934 62.82C123.934 61.1903 125.255 59.8691 126.885 59.8691C128.515 59.8691 129.836 61.1903 129.836 62.82Z" fill="#F92D00"/>
<path d="M141.639 62.82C141.639 64.4497 140.318 65.7708 138.688 65.7708C137.058 65.7708 135.737 64.4497 135.737 62.82C135.737 61.1903 137.058 59.8691 138.688 59.8691C140.318 59.8691 141.639 61.1903 141.639 62.82Z" fill="#F92D00"/>
<path d="M106 83H146C147.104 83 148 83.8954 148 85V123C148 124.105 147.104 125 146 125H106V83Z" fill="#DDEFFD"/>
<path d="M118.032 98.2301C118.032 99.8598 116.711 101.181 115.082 101.181C113.452 101.181 112.131 99.8598 112.131 98.2301C112.131 96.6004 113.452 95.2793 115.082 95.2793C116.711 95.2793 118.032 96.6004 118.032 98.2301Z" fill="#F92D00"/>
<path d="M129.836 98.2301C129.836 99.8598 128.515 101.181 126.885 101.181C125.255 101.181 123.934 99.8598 123.934 98.2301C123.934 96.6004 125.255 95.2793 126.885 95.2793C128.515 95.2793 129.836 96.6004 129.836 98.2301Z" fill="#F92D00"/>
<path d="M141.639 98.2301C141.639 99.8598 140.318 101.181 138.688 101.181C137.058 101.181 135.737 99.8598 135.737 98.2301C135.737 96.6004 137.058 95.2793 138.688 95.2793C140.318 95.2793 141.639 96.6004 141.639 98.2301Z" fill="#F92D00"/>
<path d="M118.032 110.033C118.032 111.663 116.711 112.984 115.082 112.984C113.452 112.984 112.131 111.663 112.131 110.033C112.131 108.404 113.452 107.083 115.082 107.083C116.711 107.083 118.032 108.404 118.032 110.033Z" fill="#F92D00"/>
<path d="M129.836 110.033C129.836 111.663 128.515 112.984 126.885 112.984C125.255 112.984 123.934 111.663 123.934 110.033C123.934 108.404 125.255 107.083 126.885 107.083C128.515 107.083 129.836 108.404 129.836 110.033Z" fill="#F92D00"/>
<path d="M141.639 110.033C141.639 111.663 140.318 112.984 138.688 112.984C137.058 112.984 135.737 111.663 135.737 110.033C135.737 108.404 137.058 107.083 138.688 107.083C140.318 107.083 141.639 108.404 141.639 110.033Z" fill="#F92D00"/>
<path d="M106 131H146C147.104 131 148 131.895 148 133V170C148 171.105 147.104 172 146 172H106V131Z" fill="#DDEFFD"/>
<path d="M118.032 145.442C118.032 147.072 116.711 148.393 115.082 148.393C113.452 148.393 112.131 147.072 112.131 145.442C112.131 143.812 113.452 142.491 115.082 142.491C116.711 142.491 118.032 143.812 118.032 145.442Z" fill="#F92D00"/>
<path d="M129.836 145.442C129.836 147.072 128.515 148.393 126.885 148.393C125.255 148.393 123.934 147.072 123.934 145.442C123.934 143.812 125.255 142.491 126.885 142.491C128.515 142.491 129.836 143.812 129.836 145.442Z" fill="#F92D00"/>
<path d="M141.639 145.442C141.639 147.072 140.318 148.393 138.688 148.393C137.058 148.393 135.737 147.072 135.737 145.442C135.737 143.812 137.058 142.491 138.688 142.491C140.318 142.491 141.639 143.812 141.639 145.442Z" fill="#F92D00"/>
<path d="M118.032 157.245C118.032 158.875 116.711 160.196 115.082 160.196C113.452 160.196 112.131 158.875 112.131 157.245C112.131 155.616 113.452 154.294 115.082 154.294C116.711 154.294 118.032 155.616 118.032 157.245Z" fill="#F92D00"/>
<path d="M129.836 157.245C129.836 158.875 128.515 160.196 126.885 160.196C125.255 160.196 123.934 158.875 123.934 157.245C123.934 155.616 125.255 154.294 126.885 154.294C128.515 154.294 129.836 155.616 129.836 157.245Z" fill="#F92D00"/>
<path d="M141.639 157.245C141.639 158.875 140.318 160.196 138.688 160.196C137.058 160.196 135.737 158.875 135.737 157.245C135.737 155.616 137.058 154.294 138.688 154.294C140.318 154.294 141.639 155.616 141.639 157.245Z" fill="#F92D00"/>
</svg>
