<svg width="754" height="1059" viewBox="0 0 754 1059" fill="none" xmlns="http://www.w3.org/2000/svg">
<path d="M183.717 397.795L109.715 392.073L577.613 151.293L582.727 189.452L520.775 200.781L523.896 224.073L457.685 227.901L468.331 254.724L391.06 265.079L394.978 294.318L320.774 295.181L321.025 333.488L253.417 330.945L257.601 362.166L182.933 359.56L183.717 397.795Z" fill="#FFE88A"/>
<path d="M216.786 320.72L142.785 314.998L610.682 74.2179L615.796 112.377L553.844 123.706L556.966 146.997L490.754 150.826L501.401 177.649L424.129 188.004L428.047 217.243L353.844 218.106L354.095 256.412L286.487 253.87L290.671 285.09L216.002 282.485L216.786 320.72Z" fill="#FFE88A"/>
<path d="M228.54 246.502L154.539 240.78L622.436 0.000153355L627.55 38.159L565.598 49.4879L568.72 72.7797L502.508 76.6079L513.155 103.431L435.883 113.786L439.801 143.025L365.598 143.889L365.849 182.195L298.241 179.652L302.424 210.873L227.756 208.267L228.54 246.502Z" fill="#FFE88A"/>
<path d="M159.174 473.727L85.1724 468.006L553.07 227.226L558.184 265.385L496.232 276.713L499.353 300.005L433.142 303.833L443.788 330.657L366.517 341.012L370.435 370.251L296.231 371.114L296.482 409.42L228.874 406.877L233.058 438.098L158.39 435.493L159.174 473.727Z" fill="#FFE88A"/>
<path d="M157.012 546.661L83.0112 540.939L550.909 300.159L556.023 338.318L494.071 349.647L497.192 372.939L430.981 376.767L441.627 403.591L364.356 413.946L368.274 443.184L294.07 444.048L294.321 482.354L226.713 479.811L230.897 511.032L156.229 508.426L157.012 546.661Z" fill="#FFE88A"/>
<path d="M145.26 620.88L71.2583 615.158L539.156 374.378L544.27 412.537L482.318 423.866L485.439 447.158L419.228 450.986L429.874 477.809L352.603 488.164L356.521 517.403L282.317 518.266L282.568 556.572L214.96 554.03L219.144 585.251L144.476 582.645L145.26 620.88Z" fill="#FFE88A"/>
<path d="M154.823 692.242L80.8218 686.52L548.72 445.74L553.833 483.899L491.881 495.228L495.003 518.52L428.791 522.348L439.438 549.172L362.166 559.527L366.084 588.765L291.881 589.629L292.132 627.935L224.524 625.392L228.708 656.613L154.039 654.007L154.823 692.242Z" fill="#FFE88A"/>
<path d="M185.702 760.747L111.701 755.025L579.599 514.245L584.712 552.404L522.76 563.733L525.882 587.025L459.67 590.853L470.317 617.677L393.045 628.032L396.963 657.27L322.76 658.134L323.011 696.44L255.403 693.897L259.587 725.118L184.918 722.512L185.702 760.747Z" fill="#FFE88A"/>
<path d="M206.989 830.538L132.988 824.816L600.886 584.036L605.999 622.195L544.047 633.524L547.169 656.816L480.957 660.644L491.604 687.468L414.332 697.823L418.25 727.061L344.047 727.925L344.298 766.231L276.69 763.688L280.874 794.909L206.205 792.303L206.989 830.538Z" fill="#FFE88A"/>
<path d="M250.658 897.33L176.657 891.608L644.555 650.828L649.668 688.987L587.716 700.316L590.838 723.608L524.626 727.436L535.273 754.26L458.001 764.615L461.919 793.853L387.716 794.717L387.967 833.023L320.359 830.48L324.543 861.701L249.874 859.095L250.658 897.33Z" fill="#FFE88A"/>
<path d="M302.854 962.978L228.853 957.257L696.751 716.477L701.864 754.636L639.913 765.964L643.034 789.256L576.822 793.084L587.469 819.908L510.198 830.263L514.116 859.502L439.912 860.365L440.163 898.671L372.555 896.128L376.739 927.349L302.07 924.744L302.854 962.978Z" fill="#FFE88A"/>
<path d="M333.733 1031.48L259.732 1025.76L727.63 784.983L732.743 823.141L670.792 834.47L673.913 857.762L607.701 861.59L618.348 888.414L541.076 898.769L544.995 928.007L470.791 928.871L471.042 967.177L403.434 964.634L407.618 995.855L332.949 993.25L333.733 1031.48Z" fill="#FFE88A"/>
</svg>
