<svg fill="none" height="62" viewBox="0 0 60 62" width="60" xmlns="http://www.w3.org/2000/svg"><g fill="#fff"><path d="m55.0168 31.8555h-20.4864v4.3934l20.5036.0091-.01 21.3566s-.002 0-.0072 0l-20.4875-.0081c-.0007 1.6075-.4677 3.0951-1.2266 4.3936h21.7141c2.4283 0 4.4028-1.9745 4.4028-4.4026v-21.3395c0-2.426-1.9745-4.4025-4.4028-4.4025z"/><path d="m25.7429 12.7739h-21.34035c-2.42707 0-4.40255 1.9755-4.40255 4.4026v40.4204c0 2.4281 1.97548 4.4026 4.40255 4.4026h10.19375 11.1466c2.4263 0 4.4018-1.9745 4.4018-4.4026v-40.4204c0-2.4271-1.9755-4.4026-4.4018-4.4026zm-21.34035 4.3844 21.35665.0182-.0092 36.0319h-21.36255zm8.34475 40.3224c0-1.2832 1.0407-2.3241 2.323-2.3241 1.2874 0 2.3283 1.0408 2.3283 2.3241 0 1.2843-1.0408 2.3272-2.3283 2.3272-1.2823-.0001-2.323-1.0429-2.323-2.3272z"/><path d="m44.6109 16.3062h-2.9253c-.2122 0-.4023.1273-.484.3246-.0798.1939-.0354.4202.114.5688l5.1323 5.1332c.2051.2032.5356.2032.7406 0l5.1323-5.1332c.1486-.1486.1941-.3749.1142-.5688-.081-.1973-.2719-.3246-.4841-.3246h-2.9555c-.1657-9.01751-7.5413-16.3062-16.5972-16.3062-1.2106 0-2.1917.98108-2.1917 2.1917 0 1.21175.9811 2.19385 2.1917 2.19385 6.6389 0 12.048 5.32018 12.2127 11.92065z"/></g></svg>