<svg width="105" height="118" viewBox="0 0 105 118" fill="none" xmlns="http://www.w3.org/2000/svg">
<path d="M13.5 118L0 79H13.5L22.5 106H82L91.5 79H105L91.5 118H13.5Z" fill="#DDEFFD"/>
<path fill-rule="evenodd" clip-rule="evenodd" d="M76.6667 14C76.6667 14.0646 76.6662 14.129 76.6654 14.1933C83.2873 15.3037 88.3333 21.0625 88.3333 28C88.3333 34.937 83.288 40.6956 76.6667 41.8064V42H74.3481C74.3432 42 74.3383 42 74.3333 42C74.3284 42 74.3235 42 74.3186 42H30.0148C30.0099 42 30.0049 42 30 42C29.9951 42 29.9902 42 29.9852 42H27.6667V41.8064C21.0453 40.6956 16 34.937 16 28C16 20.268 22.268 14 30 14C30.6123 14 31.2153 14.0393 31.8069 14.1155C34.2107 9.86728 38.7705 7 44 7C46.1 7 48.0921 7.46237 49.8798 8.29087C52.0648 3.4047 56.9681 0 62.6667 0C70.3987 0 76.6667 6.26802 76.6667 14Z" fill="#53BBF3"/>
<path d="M27 58.7368C27 55.1579 30.3333 50.0877 32 48C33.8056 49.9386 37 54.8 37 58.7368C37 63.6579 34.0833 65 32 65C29.9167 65 27 63.2105 27 58.7368Z" fill="#DDEFFD"/>
<path d="M47 65.7368C47 62.1579 50.3333 57.0877 52 55C53.8056 56.9386 57 61.8 57 65.7368C57 70.6579 54.0833 72 52 72C49.9167 72 47 70.2105 47 65.7368Z" fill="#DDEFFD"/>
<path d="M67 59.7368C67 56.1579 70.3333 51.0877 72 49C73.8056 50.9386 77 55.8 77 59.7368C77 64.6579 74.0833 66 72 66C69.9167 66 67 64.2105 67 59.7368Z" fill="#DDEFFD"/>
<path d="M22 106.5L15 85C17 87 22.5 91 28.5 91C34.5 91 38.6667 87 40 85C41.8333 87 47 91 53 91C59 91 63.5 87 65 85C66.8333 87 72 91 78 91C84 91 88.5 87 90 85L82.5 106.5H22Z" fill="#53BBF3"/>
</svg>
