<svg width="121" height="123" viewBox="0 0 121 123" fill="none" xmlns="http://www.w3.org/2000/svg">
<path fill-rule="evenodd" clip-rule="evenodd" d="M27.506 26L30 29.3514L13.9277 41.5L30 53.6486L27.506 57L7 41.5L27.506 26Z" fill="#DDEFFD"/>
<path d="M89 31.595C61.5154 33.0674 64.3818 4.67046 27.1379 15.447C25.8813 15.8106 25 16.9841 25 18.2923V62.394C25 65.2459 29.1185 66.9447 31.4199 65.2602C39.8418 59.096 56.7706 50.9851 83.5 56.595C99.5326 59.9599 115.718 46.0712 119.617 42.4427C120.194 41.9055 120.5 41.153 120.5 40.3646V30.9071C120.5 28.5723 117.805 26.8533 115.577 27.549C110.903 29.0079 102.541 30.8696 89 31.595Z" fill="#DDEFFD"/>
<path fill-rule="evenodd" clip-rule="evenodd" d="M8.5358 13C9.07394 13 9.51558 13.4259 9.53514 13.9637L13.4624 121.964C13.483 122.53 13.0296 123 12.4631 123H3.53712C2.97059 123 2.5172 122.53 2.53778 121.964L6.46506 13.9637C6.48461 13.4259 6.92625 13 7.4644 13H8.5358Z" fill="#53BBF3"/>
<path d="M16 8C16 12.4183 12.4183 16 8 16C3.58172 16 0 12.4183 0 8C0 3.58172 3.58172 0 8 0C12.4183 0 16 3.58172 16 8Z" fill="#53BBF3"/>
<mask id="mask0_187_394" style="mask-type:alpha" maskUnits="userSpaceOnUse" x="25" y="13" width="96" height="53">
<path d="M89 31.595C61.5154 33.0674 64.3818 4.67046 27.1379 15.447C25.8813 15.8106 25 16.9841 25 18.2923V62.394C25 65.2459 29.1185 66.9447 31.4199 65.2602C39.8418 59.096 56.7706 50.9851 83.5 56.595C99.5326 59.9599 115.718 46.0712 119.617 42.4427C120.194 41.9055 120.5 41.153 120.5 40.3646V30.9071C120.5 28.5723 117.805 26.8533 115.577 27.549C110.903 29.0079 102.541 30.8696 89 31.595Z" fill="#DDEFFD"/>
</mask>
<g mask="url(#mask0_187_394)">
<path d="M25 3H43V74H25V3Z" fill="#F92D00"/>
<path d="M57 3H75V74H57V3Z" fill="#F92D00"/>
<path d="M89 3H107V74H89V3Z" fill="#F92D00"/>
</g>
</svg>
