<svg width="106" height="104" viewBox="0 0 106 104" fill="none" xmlns="http://www.w3.org/2000/svg">
<path fill-rule="evenodd" clip-rule="evenodd" d="M56 18.9438L99.6068 9.93801L98.3932 4.06201L53.191 13.3973C51.3329 13.781 50 15.4173 50 17.3146V50.7937L10.3027 37.1202C7.7054 36.2256 5 38.1551 5 40.9021V94.0719C5 96.1655 6.61447 97.905 8.70232 98.0608L40.4528 100.43C42.3657 100.573 44.1106 99.3377 44.6117 97.4861L56 55.3987V18.9438ZM49.3717 56.9232L11 43.7063V92.2155L39.2515 94.3239L49.3717 56.9232Z" fill="#DDEFFD"/>
<path d="M60 17.5C60 21.6421 56.6421 25 52.5 25C48.3579 25 45 21.6421 45 17.5C45 13.3579 48.3579 10 52.5 10C56.6421 10 60 13.3579 60 17.5Z" fill="#53BBF3"/>
<path d="M106 7.5C106 11.6421 102.642 15 98.5 15C94.3579 15 91 11.6421 91 7.5C91 3.35786 94.3579 0 98.5 0C102.642 0 106 3.35786 106 7.5Z" fill="#53BBF3"/>
<path d="M15 39.5C15 43.6421 11.6421 47 7.5 47C3.35786 47 0 43.6421 0 39.5C0 35.3579 3.35786 32 7.5 32C11.6421 32 15 35.3579 15 39.5Z" fill="#53BBF3"/>
<path d="M60 54.5C60 58.6421 56.6421 62 52.5 62C48.3579 62 45 58.6421 45 54.5C45 50.3579 48.3579 47 52.5 47C56.6421 47 60 50.3579 60 54.5Z" fill="#53BBF3"/>
<path d="M48 96.5C48 100.642 44.6421 104 40.5 104C36.3579 104 33 100.642 33 96.5C33 92.3579 36.3579 89 40.5 89C44.6421 89 48 92.3579 48 96.5Z" fill="#53BBF3"/>
<path d="M15 94.5C15 98.6421 11.6421 102 7.5 102C3.35786 102 0 98.6421 0 94.5C0 90.3579 3.35786 87 7.5 87C11.6421 87 15 90.3579 15 94.5Z" fill="#53BBF3"/>
</svg>
