<svg width="126" height="73" viewBox="0 0 126 73" fill="none" xmlns="http://www.w3.org/2000/svg">
<path fill-rule="evenodd" clip-rule="evenodd" d="M105.444 24.3333C105.444 24.4455 105.444 24.5576 105.442 24.6694C116.952 26.5992 125.722 36.6087 125.722 48.6667C125.722 60.7238 116.953 70.7328 105.444 72.6636V73H101.389H24.3333H20.2778V72.6636C8.76927 70.7328 0 60.7238 0 48.6667C0 35.2277 10.8944 24.3333 24.3333 24.3333C25.3975 24.3333 26.4457 24.4016 27.4738 24.5341C31.6518 17.1503 39.5773 12.1667 48.6667 12.1667C52.3167 12.1667 55.779 12.9703 58.8864 14.4103C62.684 5.91769 71.2065 0 81.1111 0C94.55 0 105.444 10.8944 105.444 24.3333Z" fill="#53BBF3"/>
</svg>
