<svg width="90" height="90" viewBox="0 0 90 90" fill="none" xmlns="http://www.w3.org/2000/svg">
<path d="M0 10C0 4.47715 4.47715 0 10 0H80C85.5229 0 90 4.47715 90 10V80C90 85.5229 85.5229 90 80 90H10C4.47715 90 0 85.5229 0 80V10Z" fill="#DDEFFD"/>
<path fill-rule="evenodd" clip-rule="evenodd" d="M41.8912 9V15.5643L37.1505 10.8235L32.9078 15.0661L41.8912 24.0495L41.8912 39.5539L28.4641 31.8017L25.176 19.5302L19.3804 21.0831L21.1156 27.5591L15.4308 24.2769L12.4308 29.4731L18.1156 32.7552L11.6396 34.4904L13.1926 40.286L25.4641 36.9979L38.8912 44.75L25.4641 52.5022L13.1926 49.214L11.6397 55.0096L18.1156 56.7448L12.4308 60.0269L15.4308 65.2231L21.1156 61.9409L19.3804 68.4169L25.176 69.9698L28.4641 57.6983L41.8912 49.9462L41.8912 65.4505L32.9078 74.4339L37.1505 78.6765L41.8912 73.9357V80.5H47.8912L47.8912 73.9357L52.632 78.6765L56.8746 74.4339L47.8912 65.4505L47.8912 49.9461L61.3184 57.6983L64.6065 69.9698L70.4021 68.4169L68.6668 61.9409L74.3516 65.2231L77.3516 60.0269L71.6668 56.7448L78.1428 55.0096L76.5899 49.214L64.3184 52.5021L50.8913 44.75L64.3184 36.9979L76.5899 40.286L78.1428 34.4905L71.6668 32.7552L77.3516 29.4731L74.3516 24.2769L68.6668 27.5591L70.4021 21.0831L64.6065 19.5302L61.3184 31.8017L47.8912 39.5539V24.0495L56.8746 15.0661L52.632 10.8235L47.8912 15.5643V9H41.8912Z" fill="#53BBF3"/>
</svg>
