<svg width="108" height="108" viewBox="0 0 108 108" fill="none" xmlns="http://www.w3.org/2000/svg">
<path d="M0 20C0 8.95432 8.9543 0 20 0H87.5267C98.5724 0 107.527 8.9543 107.527 20V87.5267C107.527 98.5724 98.5724 107.527 87.5267 107.527H20C8.95432 107.527 0 98.5724 0 87.5267V20Z" fill="#DDEFFD"/>
<path d="M8 37C8 31.4772 12.4772 27 18 27H90C95.5229 27 100 31.4772 100 37V71C100 76.5228 95.5229 81 90 81H18C12.4772 81 8 76.5228 8 71V37Z" fill="#53BBF3"/>
<path d="M35.8988 38.6349L37.0149 39.7509L35.8988 40.867H24.6451L23.529 39.7509L24.6451 38.6349H35.8988ZM38.3634 41.053V52.3997L37.2939 53.4693L36.2243 52.3997V41.053L37.2939 39.9834L38.3634 41.053ZM24.4126 55.0039V66.3506L23.343 67.4202L22.2734 66.3506V55.0039L23.343 53.9343L24.4126 55.0039ZM24.4126 41.053V52.3997L23.343 53.4693L22.2734 52.3997V41.053L23.343 39.9834L24.4126 41.053ZM38.3634 55.0039V66.3506L37.2939 67.4202L36.2243 66.3506V55.0039L37.2939 53.9343L38.3634 55.0039ZM35.9685 66.5366L37.0846 67.6527L35.9685 68.7687H24.7148L23.5988 67.6527L24.7148 66.5366H35.9685ZM30.1557 54.3993L30.7137 56.0269L27.0167 65.2345L25.5984 66.0251L25.0404 64.258L28.7606 55.1899L30.1557 54.3993ZM35.0385 41.611L35.5965 43.2386L31.8995 52.4462L30.4812 53.2368L29.9232 51.4697L33.6434 42.4016L35.0385 41.611Z" fill="white"/>
<path d="M59.1037 40.8205V52.1672L58.0342 53.2368L56.9646 52.1672V40.8205L58.0342 39.7509L59.1037 40.8205ZM45.1529 40.8205V52.1672L44.0833 53.2368L43.0137 52.1672V40.8205L44.0833 39.7509L45.1529 40.8205ZM59.1037 54.7714V66.1181L58.0342 67.1876L56.9646 66.1181V54.7714L58.0342 53.7018L59.1037 54.7714ZM56.7088 52.3532L57.8249 53.4693L56.7088 54.5854H45.4551L44.3391 53.4693L45.4551 52.3532H56.7088Z" fill="white"/>
<path d="M65.8932 64.909V67.1411H63.754V64.909H65.8932Z" fill="white"/>
<path d="M83.076 38.4023L84.192 39.5184L83.076 40.6345H71.8223L70.7062 39.5184L71.8223 38.4023H83.076ZM85.5639 40.8205V52.1672L84.4943 53.2368L83.4247 52.1672V40.8205L84.4943 39.7509L85.5639 40.8205ZM85.5639 54.7714V66.1181L84.4943 67.1876L83.4247 66.1181V54.7714L84.4943 53.7018L85.5639 54.7714ZM83.1457 66.3041L84.2618 67.4202L83.1457 68.5362H71.892L70.776 67.4202L71.892 66.3041H83.1457ZM82.9132 52.4462L84.0293 53.5623L82.9132 54.6784H71.6595L70.5434 53.5623L71.6595 52.4462H82.9132Z" fill="white"/>
</svg>
