<svg width="98" height="94" viewBox="0 0 98 94" fill="none" xmlns="http://www.w3.org/2000/svg">
<path fill-rule="evenodd" clip-rule="evenodd" d="M23.4492 34.9262C15.4248 29.0903 4.68862 28.188 0.427482 28.4924L0 22.5076C5.0722 22.1453 17.4027 23.1098 26.9783 30.0738L23.4492 34.9262Z" fill="#F92D00"/>
<path fill-rule="evenodd" clip-rule="evenodd" d="M23.4492 66.4848C15.4248 60.6489 4.68862 59.7466 0.427482 60.051L0 54.0662C5.0722 53.7039 17.4027 54.6684 26.9783 61.6324L23.4492 66.4848Z" fill="#F92D00"/>
<path fill-rule="evenodd" clip-rule="evenodd" d="M23.4492 50.4848C15.4248 44.6489 4.68862 43.7466 0.427482 44.051L0 38.0662C5.0722 37.7039 17.4027 38.6684 26.9783 45.6324L23.4492 50.4848Z" fill="#F92D00"/>
<path d="M18.2139 10C18.2139 4.47715 22.691 0 28.2139 0H74.2139C79.7367 0 84.2139 4.47715 84.2139 10V84C84.2139 89.5229 79.7367 94 74.2139 94H28.2139C22.691 94 18.2139 89.5229 18.2139 84V10Z" fill="#DDEFFD"/>
<path fill-rule="evenodd" clip-rule="evenodd" d="M53.3037 33.7236C50.6603 36.0398 47.2821 39 42.2136 39C34.5833 39 29.1299 35.6589 27.0923 33.6213L31.3349 29.3787C32.2973 30.3411 36.244 33 42.2136 33C44.9362 33 46.6132 31.5569 49.5809 29.0032C49.7808 28.8312 49.9865 28.6542 50.1987 28.4722C53.4317 25.7011 57.6246 22.5 64.7136 22.5C71.2028 22.5 76.2862 25.2168 80.8606 27.6616C81.137 27.8093 81.4115 27.956 81.6844 28.1011C86.5734 30.7003 91.2577 33 97.7136 33V39C89.6695 39 83.8538 36.0497 78.8678 33.3989C78.7003 33.3099 78.5341 33.2214 78.369 33.1335C73.5205 30.5528 69.6638 28.5 64.7136 28.5C59.8026 28.5 56.9955 30.5489 54.1035 33.0278C53.8441 33.2501 53.5779 33.4834 53.3037 33.7236Z" fill="#53BBF3"/>
<path fill-rule="evenodd" clip-rule="evenodd" d="M53.3037 49.2236C50.6603 51.5398 47.2821 54.5 42.2136 54.5C34.5833 54.5 29.1299 51.1589 27.0923 49.1213L31.3349 44.8787C32.2973 45.8411 36.244 48.5 42.2136 48.5C44.9362 48.5 46.6132 47.0569 49.5809 44.5032C49.7808 44.3312 49.9865 44.1542 50.1987 43.9722C53.4317 41.2011 57.6246 38 64.7136 38C71.2028 38 76.2862 40.7168 80.8606 43.1616C81.137 43.3093 81.4115 43.456 81.6844 43.6011C86.5734 46.2003 91.2577 48.5 97.7136 48.5V54.5C89.6695 54.5 83.8538 51.5497 78.8678 48.8989C78.7003 48.8099 78.5341 48.7214 78.369 48.6335C73.5205 46.0528 69.6638 44 64.7136 44C59.8026 44 56.9955 46.0489 54.1035 48.5278C53.8441 48.7501 53.5779 48.9834 53.3037 49.2236Z" fill="#53BBF3"/>
<path fill-rule="evenodd" clip-rule="evenodd" d="M53.3037 65.2236C50.6603 67.5398 47.2821 70.5 42.2136 70.5C34.5833 70.5 29.1299 67.1589 27.0923 65.1213L31.3349 60.8787C32.2973 61.8411 36.244 64.5 42.2136 64.5C44.9362 64.5 46.6132 63.0569 49.5809 60.5032C49.7808 60.3312 49.9865 60.1542 50.1987 59.9722C53.4317 57.2011 57.6246 54 64.7136 54C71.2028 54 76.2862 56.7168 80.8606 59.1616C81.137 59.3093 81.4115 59.456 81.6844 59.6011C86.5734 62.2003 91.2577 64.5 97.7136 64.5V70.5C89.6695 70.5 83.8538 67.5497 78.8678 64.8989C78.7003 64.8099 78.5341 64.7214 78.369 64.6335C73.5205 62.0528 69.6638 60 64.7136 60C59.8026 60 56.9955 62.0489 54.1035 64.5278C53.8441 64.7501 53.5779 64.9834 53.3037 65.2236Z" fill="#53BBF3"/>
</svg>
