<svg width="81" height="81" viewBox="0 0 81 81" fill="none" xmlns="http://www.w3.org/2000/svg">
<circle cx="40.5" cy="40.5" r="40.5" fill="#986CE7"/>
<mask id="mask0_439_869" style="mask-type:alpha" maskUnits="userSpaceOnUse" x="0" y="0" width="81" height="81">
<circle cx="40.5" cy="40.5" r="40.5" fill="#986CE7"/>
</mask>
<g mask="url(#mask0_439_869)">
<path d="M43.1792 47.4523C47.8892 46.0251 51.8377 42.3486 54.3145 37.8654C56.7914 33.3822 57.8825 28.1462 58.0427 22.9526C58.0901 21.4158 58.0584 19.8679 57.7886 18.3572C57.1262 14.6493 54.9709 11.2689 51.9732 9.23679C54.3373 9.65339 56.3789 11.3064 57.6356 13.4712C58.8923 15.6361 59.1875 17.939 59.4579 20.4652C60.4105 29.3707 57.415 40.59 52.0786 47.366C49.6159 50.493 47.103 50.6514 43.2949 51.1836" fill="#E9F2FF"/>
<path d="M58.208 18.7924C58.7846 24.3942 58.6104 30.1689 56.7635 35.4888C54.9166 40.8087 52.7687 44.413 48.2449 49.2688C47.3651 50.2134 43.7668 49.075 42.4805 49.1851C39.8334 49.4115 37.2789 48.2734 34.8888 47.1131C33.6945 46.5333 32.4922 45.9321 31.4856 45.0663C30.3987 44.1315 29.5814 42.9222 28.8872 41.6678C26.1324 36.6893 25.1814 30.9161 24.7868 25.24C24.7212 24.2977 24.6731 23.3283 24.9678 22.4309C25.2798 21.4811 25.9476 20.6969 26.6028 19.9418C28.9002 17.2939 31.3121 14.6128 34.4473 13.0445C39.425 10.5545 45.4188 11.2755 50.7274 12.948C52.9398 13.6451 55.1794 14.5451 56.7823 16.2219" fill="#BACAE0"/>
<path d="M33.2257 50.067C37.5637 51.1597 43.7663 56.72 48.2395 56.6716C48.2587 54.4324 48.2204 43.6013 48.2395 41.3621C48.2432 40.9317 46.953 40.5738 46.7521 40.1929C46.5413 39.7936 46.1443 39.5338 45.7692 39.2824C42.3487 36.9892 39.4326 33.9514 37.2701 30.4476C37.1183 30.2016 36.8658 29.52 36.4691 29.6408C36.3202 29.6861 36.214 29.8224 36.1594 29.9682C36.1047 30.1139 36.0924 30.2713 36.0699 30.4254C35.9934 30.9506 35.8261 31.4502 35.7447 31.9752C35.6553 32.5524 35.5685 33.13 35.4831 33.7079C35.3097 34.8801 35.1427 36.0533 34.9772 37.2267C34.6462 39.5749 34.322 41.9242 33.9671 44.269C33.9376 44.4634 33.2019 50.061 33.2257 50.067Z" fill="#E28781"/>
<path d="M33.2258 50.0646C33.7155 50.435 34.6461 50.5519 35.2249 50.8552C35.7796 51.1459 36.5716 51.8898 37.2416 51.5804C37.6382 51.3971 37.7972 50.9274 37.916 50.5069C38.5176 48.375 39.1193 46.243 39.7209 44.1111C41.1797 44.6818 47.5509 44.8051 48.0302 44.0624C48.8745 42.754 46.9736 40.0872 45.7694 39.2799C42.3489 36.9868 39.4327 33.949 37.2703 30.4452C37.1185 30.1992 36.8659 29.5175 36.4693 29.6384C36.3204 29.6837 36.2143 29.8199 36.1597 29.9657C36.1049 30.1114 36.0926 30.2689 36.0702 30.4229C35.9936 30.9482 35.8263 31.4478 35.7449 31.9728C35.6555 32.5499 35.5687 33.1276 35.4832 33.7054C35.3099 34.8776 35.1428 36.0509 34.9774 37.2243C34.6464 39.5725 34.3222 41.9218 33.9673 44.2665C33.9379 44.4608 33.2035 50.0476 33.2258 50.0646Z" fill="#C0655F"/>
<path d="M35.2424 24.2861C35.0532 21.7384 35.0184 18.9662 36.5596 16.8898C37.8674 15.1278 40.0625 14.2215 42.1931 13.5566C45.8647 12.4108 49.9522 11.7535 53.5049 13.1933C54.5436 13.6143 55.5372 14.2348 56.1429 15.1543C56.6444 15.9156 56.8444 16.822 57.0355 17.7065C57.5081 19.8946 57.9819 22.1541 57.5374 24.3499C57.3686 25.1837 57.0703 25.9885 56.885 26.8189C56.6196 28.0094 56.5898 29.2347 56.4705 30.4467C56.2799 32.3825 55.8592 34.2915 55.3556 36.1746C54.8658 38.0056 53.8298 40.7068 52.5857 42.1656C49.0807 46.2753 44.4258 43.3482 40.5723 39.8449C38.2979 37.7773 37.4088 35.8331 36.8066 33.0053C36.1593 29.9659 35.4642 27.2747 35.2424 24.2861Z" fill="#E28781"/>
<path fill-rule="evenodd" clip-rule="evenodd" d="M50.7426 28.1542C50.7248 27.1952 50.8053 26.2546 50.8854 25.6797L51.1423 25.7155C51.0638 26.2789 50.9844 27.2057 51.0019 28.1494C51.0195 29.0983 51.135 30.0427 51.433 30.6552C51.8369 31.4853 51.7327 32.1639 51.2806 32.5407C50.8394 32.9083 50.1215 32.9387 49.4026 32.6017L49.5127 32.3669C50.1771 32.6783 50.7776 32.6222 51.1145 32.3414C51.4405 32.0698 51.5741 31.538 51.1998 30.7687C50.8753 30.1017 50.7603 29.1081 50.7426 28.1542Z" fill="#A4002A"/>
<path d="M56.0084 27.3937C56.1381 27.3415 56.2693 27.279 56.3653 27.1683C56.4635 27.0553 56.5161 26.9009 56.5398 26.7455C56.7554 25.3362 55.2984 24.9015 54.321 24.9767C53.5622 25.0351 51.0324 26.0161 52.5593 27.0434C53.5701 27.7235 54.906 27.838 56.0084 27.3937Z" fill="#141823"/>
<path d="M34.4897 17.6842C35.2208 17.6592 35.9519 17.6343 36.6828 17.6093C37.1658 17.5928 37.7074 17.6434 38.1808 17.5376C38.4584 17.4756 38.9017 17.0888 39.1791 17.2526C39.3577 17.3582 39.3306 17.6214 39.2799 17.8229C38.9154 19.271 39.3316 18.6462 38.9672 20.0943C38.7234 21.0631 37.6948 24.1161 37.2217 24.9959C36.9891 25.4286 36.4712 26.4098 35.9818 26.5917C35.2077 26.8795 35.2889 26.1146 35.252 25.5179C35.1603 24.034 35.1407 22.5497 35.1661 21.0633C35.172 20.7068 34.7246 17.6842 34.4897 17.6842Z" fill="#C0655F"/>
<path d="M38.2157 20.9276C38.7957 20.3966 39.2052 19.7146 39.5392 18.9619C40.2473 17.3658 41.5511 14.3643 43.649 15.928C44.2723 16.3927 44.7388 17.0478 45.3827 17.4834C46.2971 18.1019 47.5397 18.1999 48.5397 17.7322C49.3886 18.742 50.6317 19.3588 51.9126 19.6744C54.2582 20.2525 57.2391 20.5388 59.0373 18.6454C60.0198 17.611 59.7532 15.958 59.4524 14.6578C59.0678 12.9951 58.0266 11.4037 56.7339 10.3027C52.0595 6.321 43.6234 7.88952 38.445 9.98277C37.5334 10.3513 36.6183 10.7867 35.9458 11.5039C34.5512 12.9909 33.7955 14.644 33.5412 16.6543C33.4103 17.6883 33.8342 18.8491 34.1709 19.8064C34.3589 20.3408 34.5642 20.8689 34.7481 21.4049C34.8141 21.5972 35.1349 22.4704 35.2122 22.998C35.7489 22.3592 36.5352 21.9312 37.2841 21.5636C37.6381 21.3899 37.9454 21.1751 38.2157 20.9276Z" fill="#141823"/>
<path d="M36.3473 30.3822C36.3473 30.3822 35.3775 31.2138 34.7288 31.0512C33.9664 30.8601 33.2948 30.0438 32.7886 29.5001C32.0747 28.7333 31.8516 27.6799 31.9411 26.6443C32.0499 25.3828 32.8355 22.1769 34.7744 23.2625C35.5315 23.6864 35.9881 24.9114 36.0853 25.732C36.1642 26.3996 36.3042 27.0467 36.3429 27.7225C36.3936 28.6061 36.3974 29.4983 36.3473 30.3822Z" fill="#DC768A"/>
<path d="M35.5097 28.0938C35.3784 28.0685 34.2771 27.9454 33.6673 26.9539C33.2165 26.1973 33.342 25.4102 33.3669 25.2267C34.0812 26.1912 34.7953 27.1294 35.5097 28.0938Z" fill="#AB5755"/>
<path d="M54.5849 64.1653C54.3222 68.1542 54.8872 72.1499 55.5837 76.0863C57.1916 85.1735 59.5059 94.1186 61.8179 103.053C66.1232 102.514 70.3619 101.444 74.4069 99.874C70.7087 89.946 72.8636 78.6374 69.5519 68.5739C67.9651 63.7521 66.9731 55.6937 61.0312 53.1719C55.0776 50.6452 54.8244 60.5298 54.5849 64.1653Z" fill="#BACAE0"/>
<path d="M26.8669 48.1236C22.395 49.0781 14.6922 50.0667 13.5869 54.0559C13.0664 55.9349 13.6189 57.8906 14.1161 59.774C16.5557 69.0169 17.6856 78.5022 17.4746 87.967C17.378 92.2959 17.0218 96.7443 18.6814 100.844C35.0876 101.43 51.5367 101.175 67.9058 100.08C65.9638 97.1745 65.9282 93.6737 65.9426 90.3431C65.9788 81.9569 66.0149 73.5706 66.0511 65.1843C66.0643 62.1095 66.0458 58.911 64.4466 56.1439C62.7272 53.1685 59.6563 50.9307 56.4644 49.2685C55.2454 48.6336 54.0629 47.9499 52.8039 47.3764C51.3319 46.7059 52.146 47.1856 50.6166 46.5946C49.1556 49.3619 45.2934 51.2536 42.6236 52.4119C40.4134 51.6596 39.9225 51.1939 38.7485 50.3418C37.1378 49.1728 35.5058 48.0269 33.8536 46.9048C32.3434 45.8792 29.6133 47.4461 28.0285 47.8543C27.675 47.9454 27.2851 48.0344 26.8669 48.1236Z" fill="#D5E2F7"/>
<path d="M65.9425 90.3438C65.9787 81.9575 66.0149 73.5713 66.051 65.185C66.0643 62.1101 66.0457 58.9116 64.4466 56.1445C62.7272 53.1692 54.9015 74.3991 49.2453 89.4663L48.0535 94.2558C53.8796 96.0934 60.3026 95.7824 66.0087 93.6216C65.9389 92.5286 65.9379 91.4271 65.9425 90.3438Z" fill="#E9F2FF"/>
<path d="M49.8182 68.6538C50.4979 68.6538 51.0953 69.2451 51.1768 70.2485C51.2584 71.252 50.5197 72.0039 49.8287 72.0039C49.1377 72.0039 48.8148 71.2056 48.7339 70.2187C48.653 69.2317 49.1384 68.6538 49.8182 68.6538Z" fill="#FC3F1D"/>
<path d="M50.0559 69.4724C50.0063 69.4722 49.9815 69.4721 49.932 69.4718C49.7195 69.4706 49.6295 69.6109 49.6529 69.8368C49.6791 70.0878 49.7604 70.2207 49.9298 70.3802C49.9827 70.4333 50.009 70.46 50.0613 70.5134C49.9367 70.8382 49.8696 71.0036 49.6977 71.3215C49.5841 71.32 49.5274 71.3194 49.4141 71.318C49.5767 71.0303 49.6426 70.8817 49.7646 70.5883C49.5617 70.3746 49.4426 70.1862 49.4086 69.8595C49.3668 69.4577 49.5338 69.2161 49.9062 69.2172C50.0551 69.2177 50.1296 69.2179 50.2786 69.2184C50.3475 69.9658 50.463 70.4795 50.3926 71.3301C50.2924 71.3289 50.2424 71.3282 50.1426 71.327C50.2068 70.5875 50.1282 70.1583 50.0559 69.4724Z" fill="white"/>
<path d="M52.4441 68.6538C53.1239 68.6538 53.7142 69.2594 53.8132 70.2803C53.9122 71.3014 53.2401 72.0039 52.5328 72.0039C51.8256 72.0039 51.4233 71.2551 51.3411 70.2505C51.2588 69.246 51.7643 68.6538 52.4441 68.6538Z" fill="#A9E6FD"/>
<path d="M51.3123 69.9224C51.3125 69.9224 51.3126 69.9226 51.3127 69.9226C51.3314 70.1099 52.0208 70.3648 52.5566 70.504C53.0453 70.6309 53.8142 70.6945 53.8274 70.55C53.8275 70.5485 53.8275 70.5477 53.8275 70.5462H53.8278C53.8282 70.4654 53.8244 70.3829 53.8163 70.2992C53.7169 69.255 53.1182 68.6327 52.4324 68.6327C51.8263 68.6327 51.3392 69.0828 51.3123 69.9224Z" fill="url(#paint0_linear_439_869)"/>
<path d="M52.5569 70.5079C53.0454 70.6348 53.8144 70.6985 53.8276 70.5539C53.8408 70.4094 53.3166 70.144 52.6215 69.974C52.4522 69.9326 51.3177 69.6889 51.313 69.9265C51.3313 70.1137 52.021 70.3688 52.5569 70.5079Z" fill="#D12000"/>
<path d="M52.6103 69.0647C52.6536 69.074 52.6859 69.1248 52.6832 69.1799C52.6451 69.9471 52.7097 70.4931 52.5709 71.3401C52.547 71.4859 52.603 71.6191 52.7052 71.6438C52.8074 71.6687 52.9187 71.5788 52.944 71.4357C52.9498 71.4031 52.9525 71.3867 52.9577 71.3536C52.9673 71.2932 53.0089 71.2523 53.0521 71.2635C53.0954 71.2747 53.1236 71.3335 53.1139 71.3936C53.1085 71.4263 53.1057 71.4426 53.0999 71.475C53.0523 71.7352 52.835 71.889 52.6488 71.8465C52.4626 71.8041 52.3728 71.5689 52.4155 71.2996C52.5505 70.4471 52.4849 69.9034 52.526 69.1449C52.529 69.0905 52.5671 69.0554 52.6103 69.0647Z" fill="black"/>
<path d="M51.3125 69.9427C51.3127 69.9427 51.3128 69.9428 51.313 69.9428V69.9427C51.3177 69.7052 52.4522 69.949 52.6213 69.9903C53.3104 70.1588 53.8317 70.421 53.8278 70.5664H53.828C53.8285 70.4856 53.8247 70.4031 53.8166 70.3194C53.7171 69.2752 53.1185 68.6529 52.4326 68.6529C51.8265 68.6529 51.3395 69.103 51.3125 69.9427Z" fill="url(#paint1_linear_439_869)"/>
<path d="M61.7967 70.3686C61.7631 70.1169 61.7018 69.9381 61.6087 69.8342C61.5152 69.7276 61.3876 69.6754 61.2245 69.6744C61.1222 69.6735 61.0332 69.6928 60.958 69.7323C60.8845 69.7718 60.8268 69.8129 60.7852 69.8558C60.8047 70.0164 60.8153 70.0986 60.8371 70.2621C60.8605 70.2294 60.8927 70.1982 60.9338 70.1683C60.9763 70.1358 61.0241 70.1103 61.0771 70.0916C61.1298 70.0702 61.1821 70.0597 61.2341 70.0603C61.3084 70.0611 61.3659 70.085 61.4064 70.1322C61.447 70.1795 61.4744 70.2587 61.4893 70.369C61.4955 70.4153 61.4988 70.4386 61.5051 70.4847C61.4854 70.4845 61.4756 70.4844 61.4559 70.484C61.221 70.481 61.0558 70.5383 60.9615 70.6531C60.8689 70.7681 60.8376 70.9281 60.8666 71.1199C60.8957 71.3116 60.9536 71.4481 61.0418 71.5413C61.1315 71.6324 61.2365 71.6738 61.3572 71.6749C61.4498 71.6757 61.5163 71.6624 61.5565 71.6335C61.5981 71.6028 61.6303 71.5678 61.653 71.5286C61.6583 71.5286 61.6608 71.5286 61.666 71.5288C61.6716 71.5508 61.6781 71.5736 61.6857 71.597C61.695 71.6205 61.7037 71.6403 61.7119 71.6568C61.8331 71.6581 61.8935 71.6587 62.014 71.6598C61.9801 71.5329 61.9506 71.392 61.9262 71.2428C61.8734 70.9198 61.8455 70.7339 61.7967 70.3686ZM61.6197 71.2494C61.6069 71.2883 61.5846 71.3215 61.5529 71.3493C61.5211 71.3773 61.4773 71.3905 61.4218 71.3898C61.3558 71.3889 61.3026 71.3663 61.2623 71.3205C61.2234 71.2722 61.1978 71.2088 61.1853 71.1281C61.1686 71.0197 61.1855 70.9412 61.2359 70.8972C61.2877 70.8506 61.3793 70.828 61.5108 70.8298C61.5284 70.8301 61.5372 70.8303 61.5548 70.8305C61.5806 71.0046 61.5939 71.0898 61.6197 71.2494ZM60.3561 71.3262C60.1792 71.3238 60.0907 71.3226 59.9132 71.3203C59.9289 71.2296 59.9347 71.117 59.9312 70.9801C59.929 70.8405 59.9195 70.6946 59.9041 70.5455C59.89 70.3937 59.8748 70.2562 59.8589 70.1361C59.8557 70.1116 59.854 70.0994 59.8509 70.0748C59.9827 70.0762 60.0486 70.0769 60.1803 70.0782C60.2475 70.5941 60.2899 70.8742 60.3561 71.3262ZM60.8077 71.3322C60.7521 71.3315 60.7244 71.3311 60.6688 71.3304C60.5802 70.7447 60.5197 70.3511 60.4438 69.7006C60.0814 69.6981 59.8998 69.6967 59.5364 69.6942C59.5444 69.762 59.5487 69.7964 59.5573 69.8655C59.5782 70.0317 59.5986 70.2112 59.6172 70.3992C59.6355 70.5844 59.6471 70.7613 59.6506 70.9254C59.6555 71.0869 59.646 71.216 59.6225 71.3165C59.5833 71.316 59.5637 71.3157 59.5245 71.3153C59.5642 71.6167 59.5819 71.7558 59.6007 71.9675C59.7195 71.9676 59.7788 71.9677 59.8973 71.9678C59.8853 71.8527 59.877 71.7855 59.8582 71.639C60.1423 71.6417 60.284 71.643 60.5664 71.6458C60.5879 71.7905 60.5977 71.8565 60.6136 71.9685C60.7313 71.9686 60.7899 71.9686 60.9072 71.9688C60.8755 71.7677 60.8536 71.6312 60.8077 71.3322ZM58.8599 71.3425C58.7712 71.3413 58.6994 71.2934 58.6432 71.1935C58.5888 71.0936 58.5479 70.9318 58.5178 70.6998C58.4874 70.4651 58.4852 70.2903 58.5131 70.1825C58.5428 70.0748 58.6016 70.0217 58.6892 70.0226C58.7768 70.0234 58.8485 70.0779 58.9049 70.1869C58.9629 70.2959 59.0083 70.4707 59.0395 70.703C59.0711 70.9381 59.0703 71.1004 59.0387 71.199C59.0087 71.2975 58.9487 71.3436 58.8599 71.3425ZM58.6426 69.6489C58.471 69.6477 58.3411 69.7339 58.2553 69.9141C58.1691 70.0916 58.1498 70.357 58.1927 70.6952C58.2211 70.9191 58.2675 71.1029 58.3335 71.2484C58.399 71.3913 58.4783 71.493 58.5741 71.5608C58.6697 71.6286 58.7765 71.6606 58.8945 71.6618C59.0697 71.6633 59.2061 71.5968 59.297 71.4431C59.3877 71.2871 59.4098 71.0471 59.3633 70.7075C59.3325 70.4829 59.2815 70.2873 59.2119 70.1292C59.1421 69.9712 59.059 69.8528 58.9618 69.7729C58.8643 69.6903 58.7581 69.6497 58.6426 69.6489ZM57.2145 69.6777C57.307 70.4552 57.3897 70.9494 57.4254 71.6158C57.5539 71.6171 57.6181 71.6176 57.7465 71.6188C57.7122 71.0798 57.6564 70.7079 57.5737 70.0515C57.7677 70.0535 57.8647 70.0545 58.0584 70.0565C58.0391 69.905 58.0295 69.8297 58.0119 69.6833C57.6931 69.6812 57.5336 69.68 57.2145 69.6777ZM56.5948 71.3134C56.5054 71.3123 56.4354 71.2634 56.3832 71.1626C56.3327 71.0618 56.2979 70.8991 56.2735 70.6688C56.249 70.4357 56.2493 70.2637 56.2791 70.1578C56.3104 70.0518 56.37 69.9997 56.4581 70.0006C56.5462 70.0014 56.6176 70.0548 56.6728 70.1621C56.7299 70.2694 56.7733 70.4413 56.7991 70.672C56.8251 70.9055 56.8182 71.0686 56.782 71.1681C56.7475 71.2675 56.6844 71.3146 56.5948 71.3134ZM56.4145 69.6339C56.2423 69.6327 56.1115 69.7171 56.0234 69.8939C55.935 70.0682 55.9125 70.3283 55.9466 70.6642C55.9692 70.8864 56.009 71.071 56.0684 71.2181C56.1276 71.3629 56.2014 71.4671 56.2935 71.5369C56.3855 71.6068 56.4907 71.6403 56.6099 71.6414C56.787 71.643 56.9306 71.573 57.0312 71.4159C57.1316 71.2565 57.1645 71.0138 57.1255 70.6765C57.0997 70.4535 57.0509 70.2609 56.9825 70.1055C56.9141 69.9501 56.8315 69.834 56.7343 69.7555C56.6369 69.6746 56.5305 69.6347 56.4145 69.6339ZM55.2384 68.9859C55.3014 69.8749 55.4725 70.6481 55.4642 71.5973C55.5954 71.5985 55.661 71.5992 55.7922 71.6005C55.7907 70.6559 55.6209 69.8772 55.5567 68.9864C55.4293 68.9863 55.3658 68.9862 55.2384 68.9859ZM54.3521 68.9848C54.412 69.8686 54.5863 70.6263 54.5509 71.5887C54.682 71.59 54.7476 71.5905 54.8787 71.5918C54.9044 70.6341 54.7313 69.8709 54.6702 68.9852C54.5429 68.9851 54.4793 68.985 54.3521 68.9848ZM54.3786 69.3002C54.8609 69.302 55.1021 69.3029 55.5846 69.3048C55.5712 69.1712 55.5653 69.1069 55.5567 68.9864C55.0748 68.9857 54.8338 68.9855 54.3521 68.9848C54.3601 69.1043 54.3658 69.1681 54.3786 69.3002Z" fill="black"/>
<path d="M7.35779 60.6269C5.36172 64.3184 4.38213 68.2829 3.58951 72.2338C1.75966 81.3544 0.859493 90.5681 -0.0390625 99.7706C5.48968 100.648 11.159 101.001 16.7995 100.818C16.4071 90.2284 23.803 80.2175 23.9437 69.6236C24.011 64.5478 26.1681 56.5996 19.907 52.2975C13.6335 47.9868 9.17704 57.2625 7.35779 60.6269Z" fill="#BACAE0"/>
<path d="M39.7974 51.5682C32.5066 45.8288 32.5557 34.5904 33.7178 25.319C33.8784 24.0377 34.1114 22.7617 34.5093 21.5401C36.821 14.4448 40.2108 10.4059 46.8558 8.8363C49.7576 8.15089 52.94 7.83527 55.5784 9.28863C54.5083 8.69912 53.6526 7.61683 52.5231 7.02593C51.3341 6.40415 50.052 5.98063 48.7408 5.77452C46.6834 5.45118 44.5707 5.3781 42.4942 5.5268C40.6208 5.66098 39.7208 6.0264 39.2791 6.03112C37.1009 6.05441 34.929 5.04853 32.7611 5.24254C30.3356 5.4596 27.8088 6.03746 25.8737 7.60587C23.6079 9.44241 21.912 11.4686 20.5955 14.0624C17.269 20.6163 16.3191 26.7272 19.5233 33.5884C20.945 36.6327 22.9627 39.3111 24.9645 41.9631C26.5804 44.104 28.212 46.2621 30.2123 47.9998C33.3833 50.7546 37.1286 51.0474 40.8503 52.4023" fill="#D5E2F7"/>
<path d="M34.7323 44.8086C32.0291 42.2729 30.6661 38.2717 30.5654 32.5765C30.4348 25.2059 32.1299 18.8666 35.4675 14.2438C37.3576 11.6254 39.9959 9.44862 42.896 8.11433C45.9963 6.68794 49.2287 6.26743 52.2434 6.89785L52.1962 7.12345C46.3224 5.89532 39.674 8.81059 35.6543 14.3786C32.3462 18.9609 30.6662 25.2521 30.7959 32.5723C30.8955 38.2021 32.2346 42.1496 34.8901 44.6404L34.7323 44.8086Z" fill="#BACAE0"/>
<path d="M56.0082 27.7472C56.1378 27.695 56.269 27.6325 56.365 27.5219C56.4633 27.4088 56.5158 27.2544 56.5396 27.099C56.7551 25.6897 55.2982 25.255 54.3208 25.3302C53.5619 25.3886 51.0322 26.3696 52.5591 27.3969C53.5699 28.077 54.9058 28.1915 56.0082 27.7472Z" fill="white"/>
<path d="M55.4217 25.4529C55.057 25.3367 54.6601 25.3012 54.3209 25.3274C54.133 25.3418 53.8365 25.4129 53.5199 25.5271C53.1926 25.8022 52.9846 26.2091 52.9846 26.6641C52.9846 27.1611 53.2331 27.6004 53.6142 27.8734C54.1687 28.0251 54.756 28.0481 55.3163 27.944C55.7579 27.6806 56.0537 27.2067 56.0537 26.6641C56.0537 26.1659 55.8041 25.7258 55.4217 25.4529Z" fill="#44181C"/>
<path d="M55.5411 26.8347C55.5411 27.2324 55.2732 27.5547 54.9428 27.5547C54.6124 27.5547 54.3445 27.2324 54.3445 26.8347C54.3445 26.437 54.6124 26.1147 54.9428 26.1147C55.2732 26.1147 55.5411 26.437 55.5411 26.8347Z" fill="#141823"/>
<path d="M44.3099 35.001C44.2003 34.8256 44.186 34.5796 44.2536 34.445C44.2826 34.387 44.3522 34.3494 44.4087 34.3657C45.4757 34.6729 46.8523 34.6973 48.0474 34.7304C49.3492 34.7665 50.7202 34.7181 52.0312 34.5522C52.1524 34.5369 52.2659 34.6505 52.2785 34.8071C52.2864 34.904 52.2608 35.0024 52.2097 35.0532C51.8294 35.482 51.617 35.7185 51.1775 36.1842C49.0232 38.529 46.5261 37.6551 44.6843 35.5687C44.5293 35.3423 44.454 35.2268 44.3099 35.001Z" fill="#27060E"/>
<path d="M48.1317 35.5026C47.3747 35.461 46.1795 35.6942 45.8125 36.6228C46.7013 37.2909 47.6765 37.6611 48.6578 37.5705C48.6617 37.57 48.6657 37.5697 48.6697 37.5692C48.6995 37.5663 48.7295 37.5614 48.7593 37.5577C48.9893 37.5259 49.2159 37.4725 49.4361 37.3972C49.4604 37.3886 49.4849 37.3814 49.5092 37.3722C49.513 37.3708 49.5168 37.3691 49.5206 37.3677C49.8231 37.2518 50.1237 37.0859 50.4204 36.8681C50.4957 36.8097 50.5695 36.7484 50.6407 36.6826C50.2586 35.7842 48.9101 35.5453 48.1317 35.5026Z" fill="#772E4A"/>
<path d="M48.0463 34.7321C49.1255 34.7483 50.2305 34.7259 51.314 34.6169C51.3221 34.7745 51.2567 34.957 51.158 35.0426C50.6169 35.5126 49.8588 35.7223 49.2574 35.8344C48.4754 35.9804 47.7593 36.0538 46.9689 35.9038C46.644 35.8423 46.3103 35.7707 45.9823 35.5393C45.828 35.4306 45.6742 35.2912 45.5345 35.1015C45.4839 35.0327 45.2195 34.4957 45.199 34.4946C45.199 34.4946 45.6597 34.5186 45.7313 34.5285C45.9658 34.561 46.2031 34.5904 46.4423 34.6165C46.97 34.674 47.512 34.724 48.0463 34.7321Z" fill="white"/>
<path d="M52.6723 24.2792C53.9361 23.678 55.593 23.802 56.9116 24.1667C57.5083 24.3318 57.7632 23.4437 57.1677 23.279C55.5834 22.8408 53.6915 22.7681 52.1859 23.4843C51.6308 23.7484 52.1183 24.5427 52.6723 24.2792Z" fill="#141823"/>
<path d="M41.881 24.0585C43.1449 23.4573 44.8017 23.5813 46.1202 23.946C46.7171 24.1111 46.972 23.223 46.3765 23.0583C44.7921 22.6201 42.9003 22.5474 41.3947 23.2636C40.8395 23.5277 41.327 24.322 41.881 24.0585Z" fill="#141823"/>
<path d="M26.0561 17.0781L25.8738 16.9919C28.437 11.5628 33.4484 7.46641 39.2791 6.03437L39.3272 6.2301C33.5549 7.64796 28.5938 11.7032 26.0561 17.0781Z" fill="#BACAE0"/>
<path d="M52.5854 43.9628C49.8215 47.5094 36.5653 51.5261 40.7348 56.668C44.0621 54.6579 49.5545 48.8785 52.5854 43.9628Z" fill="#BACAE0"/>
<path d="M30.2124 48.0028C29.9761 47.7954 29.7858 47.4503 29.4936 47.3461C29.1233 47.4827 28.3316 47.7697 28.0285 47.8479C27.6639 47.9417 25.0615 48.3837 25.0615 48.3837C25.9135 50.3079 27.5479 51.8012 29.3695 52.8549C31.2127 53.9212 33.2366 54.4794 35.2 55.2489C37.0959 55.9919 39.1335 56.6737 41.1916 56.7246C36.5562 56.6099 33.697 51.0618 30.2124 48.0028Z" fill="#BACAE0"/>
<path d="M45.1494 56.5156C45.5286 56.5116 48.1691 55.4672 48.3659 55.1503C49.2582 53.7132 50.1505 52.276 51.043 50.8389C51.4592 50.1683 53.156 48.85 54.5307 48.2264C54.5307 48.2264 54.3612 44.3859 54.6869 43.3658C54.9242 42.6225 53.5164 44.4432 53.3605 43.6063C52.3768 44.3174 51.4756 45.1327 50.4316 45.7806C50.1482 45.9564 45.0617 47.9454 45.0616 48.0622C45.0576 50.815 45.4319 53.8183 45.1494 56.5156Z" fill="#E9F2FF"/>
<path d="M45.8498 63.5696C45.8498 64.1515 45.3781 64.623 44.7963 64.623C44.2144 64.623 43.7427 64.1515 43.7427 63.5696C43.7427 62.9877 44.2144 62.5161 44.7963 62.5161C45.3781 62.5161 45.8498 62.9877 45.8498 63.5696Z" fill="#BACAE0"/>
<path d="M44.4349 101.346C44.2728 93.7555 43.813 86.0734 43.068 78.5124C42.8556 76.3579 42.555 74.1874 42.2643 72.0883C41.7143 68.1182 41.1459 64.013 41.1602 59.8863C41.1615 59.5356 41.1582 59.1754 41.1551 58.823C41.1445 57.6222 41.1352 56.5852 41.2872 56.1639L41.4771 56.2323C41.337 56.6197 41.3467 57.6889 41.3567 58.8212C41.36 59.1745 41.3631 59.5354 41.3618 59.8871C41.3475 63.9993 41.915 68.0975 42.4639 72.0608C42.755 74.1616 43.0559 76.3342 43.2688 78.4927C44.014 86.0586 44.4743 93.7461 44.6365 101.341L44.4349 101.346Z" fill="#BACAE0"/>
<path d="M32.5612 42.3298C34.7688 45.4548 38.8005 46.6276 42.5555 47.3616C42.1644 50.3053 41.7732 53.2491 41.3821 56.1928C41.357 56.382 41.3252 56.5853 41.1913 56.7213C40.9587 56.9578 40.5644 56.8671 40.2544 56.7491C35.6767 55.006 32.2986 51.4298 28.7867 48.2077C28.666 48.0969 28.5389 47.9859 28.3846 47.9309C28.1673 47.8537 27.9279 47.8976 27.7016 47.9424C26.8369 48.1133 25.9723 48.2841 25.1076 48.4551C23.0424 44.3453 21.8971 39.7763 21.7795 35.1781" fill="#D5E2F7"/>
<path d="M34.1622 49.207C33.9904 49.4661 33.4282 49.3958 32.9066 49.0497C32.385 48.7038 32.1015 48.2133 32.2734 47.9542C32.4452 47.6951 33.0074 47.7654 33.529 48.1113C34.0507 48.4574 34.3341 48.9478 34.1622 49.207Z" fill="#BACAE0"/>
<path d="M50.5191 47.4645C50.6939 47.7217 50.416 48.2154 49.8983 48.5672C49.3807 48.919 48.8193 48.9957 48.6446 48.7385C48.4697 48.4813 48.7477 47.9876 49.2653 47.6358C49.783 47.284 50.3444 47.2073 50.5191 47.4645Z" fill="#BACAE0"/>
<path fill-rule="evenodd" clip-rule="evenodd" d="M49.8805 38.9891C48.9871 38.7025 48.2052 38.8292 47.3018 39.0515L47.3568 39.2754C48.2515 39.0553 48.9805 38.9425 49.81 39.2087L49.8805 38.9891Z" fill="#A4002A"/>
<path fill-rule="evenodd" clip-rule="evenodd" d="M48.2074 32.2778C48.2939 32.4705 48.4526 32.637 48.6617 32.7109L48.7386 32.4936C48.5979 32.4439 48.4827 32.328 48.4178 32.1834C48.3529 32.0388 48.3429 31.8757 48.3992 31.7376L48.1858 31.6505C48.102 31.8559 48.1209 32.0851 48.2074 32.2778Z" fill="#A4002A"/>
<path d="M45.8799 27.3839C46.0096 27.3317 46.1408 27.2692 46.2368 27.1586C46.335 27.0455 46.3876 26.8911 46.4115 26.7358C46.6269 25.3264 45.17 24.8917 44.1927 24.9669C43.4337 25.0253 40.9039 26.0063 42.4309 27.0336C43.4417 27.7137 44.7776 27.8282 45.8799 27.3839Z" fill="#141823"/>
<path d="M45.8799 27.7394C46.0096 27.6872 46.1408 27.6247 46.2368 27.514C46.335 27.401 46.3876 27.2466 46.4115 27.0912C46.6269 25.6819 45.17 25.2472 44.1927 25.3224C43.4337 25.3808 40.9039 26.3618 42.4309 27.3891C43.4417 28.0692 44.7776 28.1837 45.8799 27.7394Z" fill="white"/>
<path d="M45.2933 25.449C44.9286 25.3329 44.5317 25.2973 44.1924 25.3235C44.0046 25.3379 43.7081 25.409 43.3914 25.5233C43.0642 25.7984 42.8562 26.2052 42.8562 26.6602C42.8562 27.1573 43.1047 27.5967 43.4857 27.8695C44.0403 28.0212 44.6276 28.0441 45.1878 27.9401C45.6294 27.6767 45.9252 27.2028 45.9252 26.6602C45.9252 26.162 45.6757 25.7218 45.2933 25.449Z" fill="#44181C"/>
<path d="M45.4127 26.8308C45.4127 27.2285 45.1448 27.5508 44.8143 27.5508C44.484 27.5508 44.2161 27.2285 44.2161 26.8308C44.2161 26.4331 44.484 26.1108 44.8143 26.1108C45.1448 26.1108 45.4127 26.4331 45.4127 26.8308Z" fill="#141823"/>
</g>
<defs>
<linearGradient id="paint0_linear_439_869" x1="52.7808" y1="69.024" x2="52.4757" y2="70.6851" gradientUnits="userSpaceOnUse">
<stop stop-color="#FC3F1D"/>
<stop offset="1" stop-color="#FD8974"/>
</linearGradient>
<linearGradient id="paint1_linear_439_869" x1="52.7302" y1="69.2348" x2="52.3019" y2="71.8163" gradientUnits="userSpaceOnUse">
<stop stop-color="#FC3F1D"/>
<stop offset="1" stop-color="#FC3F1D"/>
</linearGradient>
</defs>
</svg>
